<svg width="475" height="602" xmlns="http://www.w3.org/2000/svg" xmlns:xlink="http://www.w3.org/1999/xlink" overflow="hidden"><defs><clipPath id="clip0"><rect x="0" y="0" width="475" height="602"/></clipPath></defs><g clip-path="url(#clip0)"><rect x="0" y="0" width="475" height="601.544" fill="#FFFFFF" fill-opacity="0"/><path d="M167.433 466.992C167.433 466.992 81.1074 491.974 79.1366 499.635 76.0278 511.626 113.806 621.99 129.627 642.419 135.012 649.303 159.05 659.546 162.437 659.934 165.823 660.323 272.218 636.729 274.494 628.596 276.77 620.463 230.387 475.347 226.584 472.655 222.782 469.962 167.433 466.992 167.433 466.992Z" stroke="#263238" stroke-width="2.77575" stroke-linecap="round" stroke-linejoin="round" fill="#263238" transform="matrix(-1 0 0 1.00034 475 -365.094)"/><path d="M79.775 501.134 104.091 511.182 226.584 472.655 167.433 467.103C167.433 467.103 75.1673 493.334 79.775 501.134Z" stroke="#263238" stroke-width="2.77575" stroke-linecap="round" stroke-linejoin="round" fill="#FFFFFF" transform="matrix(-1 0 0 1.00034 475 -365.094)"/><path d="M118.441 502.91 96.9014 490.503 141.619 475.597 150.751 492.14 118.441 502.91Z" fill="#263238" transform="matrix(-1 0 0 1.00034 475 -365.094)"/><path d="M104.091 511.182 162.381 659.934 126.741 643.28C126.741 643.28 81.3572 536.025 79.7195 501.189Z" stroke="#263238" stroke-width="2.77575" stroke-linecap="round" stroke-linejoin="round" fill="#FFFFFF" transform="matrix(-1 0 0 1.00034 475 -365.094)"/><path d="M276.492 496.165C276.492 496.165 278.075 499.329 302.362 503.549 318.081 506.155 333.978 507.565 349.911 507.768 349.911 507.768 338.808 518.871 341.972 533.638 343.471 541.146 345.409 548.56 347.774 555.844 347.774 555.844 335.644 559.008 315.575 555.844 295.506 552.679 289.705 550.015 289.705 550.015 289.705 550.015 273.855 517.289 276.492 496.165Z" stroke="#263238" stroke-width="2.77575" stroke-linecap="round" stroke-linejoin="round" fill="#FFFFFF" transform="matrix(-1 0 0 1.00034 475 -365.094)"/><path d="M369.369 532.139C369.369 546.365 358.135 557.898 344.276 557.898 330.418 557.898 319.183 546.365 319.183 532.139 319.183 517.913 330.418 506.38 344.276 506.38 358.135 506.38 369.369 517.913 369.369 532.139Z" stroke="#263238" stroke-width="2.77575" stroke-linecap="round" stroke-linejoin="round" fill="#263238" transform="matrix(-1 0 0 1.00034 475 -365.094)"/><path d="M377.89 531.528C377.89 547.272 366.656 560.035 352.798 560.035 338.939 560.035 327.705 547.272 327.705 531.528 327.705 515.784 338.939 503.021 352.798 503.021 366.656 503.021 377.89 515.784 377.89 531.528Z" stroke="#263238" stroke-width="2.77575" stroke-linecap="round" stroke-linejoin="round" fill="#FFFFFF" transform="matrix(-1 0 0 1.00034 475 -365.094)"/><path d="M394.156 501.439C394.156 501.439 367.731 495.638 352.687 503.021 337.642 510.405 337.115 532.583 343.443 546.323 349.772 560.063 364.039 557.426 370.396 554.234 376.752 551.042 400.929 540.522 408.923 535.248 416.917 529.974 414.225 508.295 409.451 503.021 404.676 497.747 394.156 501.439 394.156 501.439Z" stroke="#263238" stroke-width="2.77575" stroke-linecap="round" stroke-linejoin="round" fill="#FFFFFF" transform="matrix(-1 0 0 1.00034 475 -365.094)"/><path d="M424.357 518.593C424.357 531.578 413.358 542.104 399.791 542.104 386.224 542.104 375.226 531.578 375.226 518.593 375.226 505.609 386.224 495.083 399.791 495.083 413.358 495.083 424.357 505.609 424.357 518.593Z" stroke="#263238" stroke-width="2.77575" stroke-linecap="round" stroke-linejoin="round" fill="#263238" transform="matrix(-1 0 0 1.00034 475 -365.094)"/><path d="M397.432 488.754C397.432 488.754 387.911 505.131 387.911 514.652 387.911 524.172 391.103 535.248 400.069 536.858 409.034 538.468 418.555 524.7 418.555 524.7 422.28 524.184 425.866 522.926 429.103 521.008 434.405 517.844 438.624 507.796 438.624 507.796 438.624 507.796 443.898 507.268 449.727 507.268 455.556 507.268 461.885 507.796 461.885 503.576 461.885 499.357 447.617 496.72 447.617 496.72 447.617 496.72 459.248 496.193 462.412 493.029 465.576 489.864 466.104 484.563 461.357 484.563 456.611 484.563 437.069 487.199 437.069 487.199 437.069 487.199 452.891 478.872 451.836 468.186 450.782 457.499 436.542 469.768 436.542 469.768 436.542 469.768 440.761 459.22 430.713 461.857 420.665 464.494 408.035 470.823 397.432 488.754Z" stroke="#263238" stroke-width="2.77575" stroke-linecap="round" stroke-linejoin="round" fill="#FFFFFF" transform="matrix(-1 0 0 1.00034 475 -365.094)"/><path d="M409.562 532.583C425.411 526.254 420.137 514.652 420.137 514.652 420.137 514.652 441.261 499.329 430.685 492.446 420.11 485.562 400.152 507.74 400.152 507.74" stroke="#263238" stroke-width="2.77575" stroke-linecap="round" stroke-linejoin="round" fill="#FFFFFF" transform="matrix(-1 0 0 1.00034 475 -365.094)"/><path d="M436.514 469.74C434.108 472.455 431.449 474.936 428.576 477.151 423.302 481.37 416.446 485.062 416.446 490.336" stroke="#263238" stroke-width="2.77575" stroke-linecap="round" stroke-linejoin="round" fill="#FFFFFF" transform="matrix(-1 0 0 1.00034 475 -365.094)"/><path d="M294.368 832.086C294.368 832.086 286.041 843.023 289.483 852.821 292.925 862.62 302.168 870.697 307.914 878.469 313.66 886.241 317.435 900.397 336.171 904.422 354.907 908.447 368.453 898.066 369.896 891.154 371.34 884.243 366.732 873.001 366.732 871.863 366.732 870.725 351.16 837.832 351.16 837.832Z" stroke="#263238" stroke-width="2.77575" stroke-linecap="round" stroke-linejoin="round" fill="#FFFFFF" transform="matrix(-1 0 0 1.00034 475 -365.094)"/><path d="M352.77 830.948 365.15 867.033C371.34 885.048 366.843 894.596 348.273 897.983 329.703 901.369 321.82 887.296 311.134 874.361 300.447 861.426 291.426 849.018 293.119 836.638 294.812 824.259 302.14 822.593 302.14 822.593 302.14 822.593 307.192 831.587 327.455 832.697 347.718 833.807 352.77 830.948 352.77 830.948Z" stroke="#263238" stroke-width="2.77575" stroke-linecap="round" stroke-linejoin="round" fill="#FFFFFF" transform="matrix(-1 0 0 1.00034 475 -365.094)"/><path d="M358.072 830.199C354.963 843.356 337.365 850.462 318.767 846.021 300.169 841.579 287.623 827.367 290.732 814.21 293.841 801.053 311.467 793.975 330.064 798.389 348.662 802.802 361.153 817.069 358.072 830.199Z" stroke="#263238" stroke-width="2.77575" stroke-linecap="round" stroke-linejoin="round" fill="#FFFFFF" transform="matrix(-1 0 0 1.00034 475 -365.094)"/><path d="M311.689 756.669C311.689 756.669 292.259 804.717 293.952 812.045 295.645 819.373 313.937 842.19 337.004 836.555 360.07 830.92 356.711 817.985 356.711 817.985L367.953 771.297C367.953 771.297 321.82 774.656 311.689 756.669Z" stroke="#263238" stroke-width="2.77575" stroke-linecap="round" stroke-linejoin="round" fill="#FFFFFF" transform="matrix(-1 0 0 1.00034 475 -365.094)"/><path d="M311.689 756.669C311.689 756.669 292.259 804.717 293.952 812.045 294.107 812.695 294.332 813.328 294.618 813.933 340.945 810.963 361.402 785.232 366.399 777.848L367.953 771.381C367.953 771.381 321.82 774.656 311.689 756.669Z" stroke="#263238" stroke-width="2.77575" stroke-linecap="round" stroke-linejoin="round" fill="#263238" transform="matrix(-1 0 0 1.00034 475 -365.094)"/><path d="M373.782 771.658C370.646 784.815 353.048 791.893 334.45 787.48 315.852 783.067 303.306 768.882 306.443 755.698 309.579 742.513 327.178 735.462 345.775 739.876 364.373 744.289 376.919 758.529 373.782 771.658Z" stroke="#263238" stroke-width="2.77575" stroke-linecap="round" stroke-linejoin="round" fill="#FFFFFF" transform="matrix(-1 0 0 1.00034 475 -365.094)"/><path d="M313.937 621.601C313.937 621.601 358.349 684.638 369.646 716.143 373.699 727.441 377.169 740.792 373.838 752.728 367.426 775.822 337.309 780.485 321.265 764.525 301.557 744.844 263.308 691.384 263.308 691.384 263.308 691.384 263.308 681.807 276.798 674.507 290.288 667.207 307.331 644.668 308.33 639.616 309.329 634.564 313.937 621.601 313.937 621.601Z" stroke="#263238" stroke-width="2.77575" stroke-linecap="round" stroke-linejoin="round" fill="#FFFFFF" transform="matrix(-1 0 0 1.00034 475 -365.094)"/><path d="M321.265 764.525C324.038 767.289 327.305 769.513 330.897 771.075 330.37 770.492 329.814 769.909 329.204 769.299 311.05 751.118 291.814 672.148 291.814 672.148 290.46 670.177 288.65 668.559 286.541 667.429 283.565 670.143 280.298 672.517 276.798 674.507 263.308 681.807 263.308 691.384 263.308 691.384 263.308 691.384 301.557 744.844 321.265 764.525Z" stroke="#263238" stroke-width="2.77575" stroke-linecap="round" stroke-linejoin="round" fill="#263238" transform="matrix(-1 0 0 1.00034 475 -365.094)"/><path d="M308.33 610.359C308.33 610.359 317.324 610.915 317.324 627.791 317.324 644.668 298.199 670.565 288.622 682.39 279.046 694.215 271.746 698.712 240.796 691.939 209.847 685.166 183.949 671.731 176.066 652.551 168.183 633.37 178.842 622.739 188.446 621.601 198.05 620.463 247.541 613.718 268.359 605.835 279.343 601.841 290.06 597.15 300.447 591.79Z" stroke="#263238" stroke-width="2.77575" stroke-linecap="round" stroke-linejoin="round" fill="#FFFFFF" transform="matrix(-1 0 0 1.00034 475 -365.094)"/><path d="M176.649 624.544C174.839 631.086 177.312 638.061 182.839 642.003 192.387 649.331 205.905 657.186 253.176 649.331 300.447 641.476 313.937 617.243 311.134 608.25 308.852 602.071 305.199 596.489 300.447 591.928 282.224 607.806 260.069 618.495 236.299 622.878 197.467 629.484 176.649 624.544 176.649 624.544Z" stroke="#263238" stroke-width="2.77575" stroke-linecap="round" stroke-linejoin="round" fill="#FFFFFF" transform="matrix(-1 0 0 1.00034 475 -365.094)"/><path d="M296.394 518.149C300.697 535.081 295.34 551.069 284.459 553.817 273.578 556.565 261.281 545.074 256.979 528.114 252.676 511.154 258.034 495.194 268.915 492.446 279.796 489.698 292.12 501.189 296.394 518.149Z" stroke="#263238" stroke-width="2.77575" stroke-linecap="round" stroke-linejoin="round" fill="#FFFFFF" transform="matrix(-1 0 0 1.00034 475 -365.094)"/><path d="M159.3 510.099C159.3 510.099 150.168 516.289 150.168 535.997 150.168 555.705 161.576 614.412 176.038 628.124 190.5 641.836 237.715 642.586 274.272 627.375 310.828 612.164 305.471 599.201 302.446 577.106 299.42 555.011 286.457 507.074 272.745 494.888 259.033 482.703 243.794 488.032 213.344 494.888 195.072 498.994 177.032 504.073 159.3 510.099Z" stroke="#263238" stroke-width="2.77575" stroke-linecap="round" stroke-linejoin="round" fill="#FFFFFF" transform="matrix(-1 0 0 1.00034 475 -365.094)"/><path d="M182.811 549.154C183.896 562.417 182.808 575.768 179.591 588.681 176.738 599.934 174.597 611.356 173.179 622.878L157.163 588.681C157.163 588.681 168.904 547.017 182.811 549.154Z" stroke="#263238" stroke-width="2.77575" stroke-linecap="round" stroke-linejoin="round" fill="#263238" transform="matrix(-1 0 0 1.00034 475 -365.094)"/><path d="M266.638 504.021C266.638 521.681 241.759 535.997 211.068 535.997 180.377 535.997 155.497 521.681 155.497 504.021 155.497 486.36 180.377 472.044 211.068 472.044 241.759 472.044 266.638 486.36 266.638 504.021Z" stroke="#263238" stroke-width="2.77575" stroke-linecap="round" stroke-linejoin="round" fill="#FFFFFF" transform="matrix(-1 0 0 1.00034 475 -365.094)"/><path d="M182.811 513.874C182.811 513.874 174.262 520.286 179.591 527.753 179.591 527.753 158.218 519.204 153.943 510.655 149.668 502.105 162.492 491.419 162.492 491.419L185.975 509.6Z" stroke="#263238" stroke-width="2.77575" stroke-linecap="round" stroke-linejoin="round" fill="#263238" transform="matrix(-1 0 0 1.00034 475 -365.094)"/><path d="M278.824 448.811C278.824 486.86 247.979 517.705 209.93 517.705 171.881 517.705 141.036 486.86 141.036 448.811 141.036 410.762 171.881 379.917 209.93 379.917 247.979 379.917 278.824 410.762 278.824 448.811Z" stroke="#263238" stroke-width="2.77575" stroke-linecap="round" stroke-linejoin="round" fill="#FFFFFF" transform="matrix(-1 0 0 1.00034 475 -365.094)"/><path d="M174.872 389.576C142.149 408.993 131.361 451.259 150.776 483.98 158.957 497.767 171.689 508.27 186.78 513.68 219.503 494.264 230.291 451.997 210.876 419.277 202.696 405.49 189.963 394.986 174.872 389.576Z" stroke="#263238" stroke-width="2.77575" stroke-linecap="round" stroke-linejoin="round" fill="#263238" transform="matrix(-1 0 0 1.00034 475 -365.094)"/><path d="M248.235 391.547C217.022 382.171 184.116 399.872 174.739 431.085 165.361 462.298 183.062 495.202 214.275 504.581 226.712 508.317 240.034 507.848 252.177 503.243 282.235 479.916 287.693 436.636 264.365 406.578 259.83 400.735 254.384 395.658 248.235 391.547Z" stroke="#263238" stroke-width="2.77575" stroke-linecap="round" stroke-linejoin="round" fill="#FFFFFF" transform="matrix(-1 0 0 1.00034 475 -365.094)"/><path d="M218.285 843.828C216.629 848.655 216.938 853.94 219.145 858.539 222.893 866.034 230.97 874.666 245.099 883.909 259.227 893.153 277.936 897.788 287.457 896.012 296.977 894.235 305.332 889.378 308.219 882.133 311.106 874.888 310.218 869.753 308.774 868.893 307.331 868.032 304.167 871.668 282.266 858.206 260.365 844.744 254.897 835.5 241.49 835.251 228.083 835.001 217.702 839.275 218.285 843.828Z" stroke="#263238" stroke-width="2.77575" stroke-linecap="round" stroke-linejoin="round" fill="#FFFFFF" transform="matrix(-1 0 0 1.00034 475 -365.094)"/><path d="M283.126 838.276C283.126 838.276 293.813 852.349 300.586 857.401 307.359 862.453 311.272 865.284 307.886 873.167 304.5 881.05 297.199 891.182 278.075 888.934 258.893 886.855 241.205 877.603 228.555 863.036 216.175 848.408 216.175 841.663 220.228 839.414 224.281 837.166 241.601 841.663 251.178 841.663 260.754 841.663 270.858 836.111 274.799 834.335 278.741 832.558 281.294 832.725 283.126 838.276Z" stroke="#263238" stroke-width="2.77575" stroke-linecap="round" stroke-linejoin="round" fill="#FFFFFF" transform="matrix(-1 0 0 1.00034 475 -365.094)"/><path d="M212.095 825.313C212.095 825.313 209.319 839.942 218.285 846.132 227.251 852.321 262.169 852.877 277.381 844.438 292.592 836 284.126 826.424 277.936 821.927 271.746 817.43 243.6 834.307 235.161 830.254 226.723 826.202 226.168 836.555 212.095 825.313Z" stroke="#263238" stroke-width="2.77575" stroke-linecap="round" stroke-linejoin="round" fill="#FFFFFF" transform="matrix(-1 0 0 1.00034 475 -365.094)"/><path d="M218.285 760.555C218.285 760.555 208.709 819.679 210.402 829.949 212.095 840.219 225.585 846.27 254.814 842.329 284.042 838.387 289.649 827.256 284.07 818.124 281.072 813.267 282.127 777.987 282.127 777.987 282.127 777.987 245.293 788.729 218.285 760.555Z" stroke="#263238" stroke-width="2.77575" stroke-linecap="round" stroke-linejoin="round" fill="#FFFFFF" transform="matrix(-1 0 0 1.00034 475 -365.094)"/><path d="M286.457 791.727 281.683 785.898C267.999 785.343 238.437 781.595 218.285 760.611 218.285 760.611 208.709 819.679 210.402 829.81 211.213 834.029 214.001 837.602 217.896 839.414 218.589 839.47 219.285 839.47 219.978 839.414 250.733 835.722 286.457 791.727 286.457 791.727Z" stroke="#263238" stroke-width="2.77575" stroke-linecap="round" stroke-linejoin="round" fill="#263238" transform="matrix(-1 0 0 1.00034 475 -365.094)"/><path d="M218.285 751.59C218.285 751.59 209.291 761.166 221.671 774.656 234.051 788.146 245.293 798.861 272.856 798.861 300.419 798.861 299.864 779.736 294.257 767.911 288.65 756.086 247.042 725.72 218.285 751.59Z" stroke="#263238" stroke-width="2.77575" stroke-linecap="round" stroke-linejoin="round" fill="#FFFFFF" transform="matrix(-1 0 0 1.00034 475 -365.094)"/><path d="M298.31 752.589C296.006 739.654 290.149 727.607 286.096 715.283 282.044 702.958 277.242 689.552 267.804 680.114 254.869 667.179 203.102 660.434 192.387 671.121 181.673 681.807 192.387 722.888 214.898 753.838 225.363 768.244 239.714 783.067 257.673 787.952 267.41 790.728 277.833 789.737 286.874 785.176 298.948 778.514 300.558 765.218 298.337 752.644Z" stroke="#263238" stroke-width="2.77575" stroke-linecap="round" stroke-linejoin="round" fill="#FFFFFF" transform="matrix(-1 0 0 1.00034 475 -365.094)"/><path d="M244.793 782.123C217.702 749.591 213.483 687.525 212.844 665.847 203.546 666.069 195.829 667.679 192.387 671.121 181.701 681.807 192.387 722.888 214.898 753.838 222.865 764.774 233.024 776.044 245.432 782.817Z" stroke="#263238" stroke-width="2.77575" stroke-linecap="round" stroke-linejoin="round" fill="#263238" transform="matrix(-1 0 0 1.00034 475 -365.094)"/><path d="M263.335 542.409 222.31 555.983C219.205 556.996 217.509 560.332 218.521 563.435 218.526 563.449 218.53 563.463 218.535 563.477L227.611 590.513C228.641 593.594 231.962 595.265 235.05 594.26L275.771 581.048C278.849 580.029 280.539 576.731 279.573 573.636L270.858 546.24C269.897 543.134 266.602 541.396 263.497 542.356 263.443 542.373 263.389 542.39 263.335 542.409Z" stroke="#263238" stroke-width="2.77575" stroke-linecap="round" stroke-linejoin="round" fill="#FFFFFF" transform="matrix(-1 0 0 1.00034 475 -365.094)"/><path d="M241.49 572.804C241.49 576.037 238.868 578.66 235.633 578.66 232.399 578.66 229.776 576.037 229.776 572.804 229.776 569.57 232.399 566.947 235.633 566.947 238.853 566.93 241.475 569.528 241.49 572.748 241.49 572.767 241.49 572.784 241.49 572.804Z" fill="#263238" transform="matrix(-1 0 0 1.00034 475 -365.094)"/><path d="M256.868 567.696C256.868 570.931 254.246 573.553 251.011 573.553 247.776 573.553 245.154 570.931 245.154 567.696 245.154 564.462 247.776 561.839 251.011 561.839 254.246 561.839 256.868 564.462 256.868 567.696Z" fill="#263238" transform="matrix(-1 0 0 1.00034 475 -365.094)"/><path d="M272.19 562.561C272.205 565.795 269.595 568.429 266.361 568.446 263.126 568.46 260.492 565.85 260.476 562.617 260.461 559.383 263.071 556.749 266.305 556.732 266.324 556.732 266.343 556.732 266.361 556.732 269.58 556.732 272.19 559.341 272.19 562.561Z" fill="#263238" transform="matrix(-1 0 0 1.00034 475 -365.094)"/><path d="M183.921 542.964C187.557 560.007 180.34 576.023 167.794 578.688 155.248 581.353 142.118 569.722 138.482 552.652 134.846 535.581 142.063 519.592 154.609 516.9 167.156 514.208 180.257 525.893 183.921 542.964Z" stroke="#263238" stroke-width="2.77575" stroke-linecap="round" stroke-linejoin="round" fill="#FFFFFF" transform="matrix(-1 0 0 1.00034 475 -365.094)"/><path d="M151.667 606.057C151.667 606.057 173.873 577.883 172.235 562.644 170.598 547.405 160.827 526.865 141.008 533.721 121.189 540.577 96.0964 596.148 96.8459 607.584 97.5953 619.02 103.702 621.268 103.702 621.268 103.702 621.268 116.581 610.665 131.876 609.86 147.17 609.055 151.667 606.057 151.667 606.057Z" stroke="#263238" stroke-width="2.77575" stroke-linecap="round" stroke-linejoin="round" fill="#FFFFFF" transform="matrix(-1 0 0 1.00034 475 -365.094)"/><path d="M156.996 622.406C156.996 638.595 142.68 651.718 125.02 651.718 107.36 651.718 93.0431 638.595 93.0431 622.406 93.0431 606.218 107.36 593.094 125.02 593.094 142.68 593.094 156.996 606.218 156.996 622.406Z" stroke="#263238" stroke-width="2.77575" stroke-linecap="round" stroke-linejoin="round" fill="#FFFFFF" transform="matrix(-1 0 0 1.00034 475 -365.094)"/><path d="M107.671 622.406C107.671 608.527 118.219 596.953 132.348 593.899 129.94 593.375 127.484 593.105 125.02 593.094 107.366 593.094 93.0431 606.224 93.0431 622.406 93.0431 638.589 107.366 651.718 124.909 651.718 127.372 651.715 129.828 651.454 132.237 650.941 118.219 647.888 107.671 636.285 107.671 622.406Z" stroke="#263238" stroke-width="2.77575" stroke-linecap="round" stroke-linejoin="round" fill="#263238" transform="matrix(-1 0 0 1.00034 475 -365.094)"/><path d="M179.091 636.507C179.091 636.507 149.391 610.609 128.073 609.86 106.755 609.11 93.8203 633.454 103.702 648.72 113.584 663.987 159.217 682.224 159.217 682.224 159.217 682.224 155.442 650.969 179.091 636.507Z" stroke="#263238" stroke-width="2.77575" stroke-linecap="round" stroke-linejoin="round" fill="#FFFFFF" transform="matrix(-1 0 0 1.00034 475 -365.094)"/><path d="M197.855 670.121C192.998 686.082 178.786 695.853 166.129 692.022 153.471 688.191 147.115 672.12 151.945 656.159 156.774 640.199 171.014 630.428 183.671 634.286 196.329 638.145 202.63 654.188 197.855 670.121Z" stroke="#263238" stroke-width="2.77575" stroke-linecap="round" stroke-linejoin="round" fill="#263238" transform="matrix(-1 0 0 1.00034 475 -365.094)"/><path d="M220.922 648.304C220.922 648.304 223.004 656.159 229.249 656.992 235.495 657.825 243.322 657.408 243.322 663.626 243.072 669.513 238.457 674.285 232.58 674.729 227.195 675.145 223.476 675.145 213.955 667.29 204.434 659.435 199.049 656.52 198.216 653.217 197.384 649.914 200.687 639.144 206.543 640.809 211.615 642.733 216.441 645.248 220.922 648.304Z" stroke="#263238" stroke-width="2.77575" stroke-linecap="round" stroke-linejoin="round" fill="#FFFFFF" transform="matrix(-1 0 0 1.00034 475 -365.094)"/><path d="M172.707 640.171C172.707 640.171 195.218 627.236 203.24 627.236 211.262 627.236 227.417 650.302 227.417 656.492 227.417 662.682 224.058 672.814 221.866 673.369 217.653 673.524 214.111 670.235 213.956 666.022 213.944 665.697 213.953 665.366 213.982 665.042 213.765 660.47 212.411 656.023 210.041 652.107L206.654 649.858C206.654 649.858 214.51 670.76 215.676 676.866 216.481 681.169 217.341 683.611 211.734 686.443 208.86 687.931 205.797 689.024 202.63 689.69 199.356 691.106 195.966 692.241 192.498 693.077 188.838 693.779 185.122 694.151 181.395 694.187 178.134 695.386 174.726 696.141 171.264 696.435 167.322 696.435 162.936 690.245 159.439 679.004 155.942 667.762 161.715 646.056 172.707 640.171Z" stroke="#263238" stroke-width="2.77575" stroke-linecap="round" stroke-linejoin="round" fill="#FFFFFF" transform="matrix(-1 0 0 1.00034 475 -365.094)"/><path d="M202.63 689.69C202.63 689.69 196.606 652.44 186.669 643.752" stroke="#263238" stroke-width="2.77575" stroke-linecap="round" stroke-linejoin="round" fill="none" transform="matrix(-1 0 0 1.00034 475 -365.094)"/><path d="M181.145 694.187C181.145 694.187 178.703 670.649 172.485 656.992" stroke="#263238" stroke-width="2.77575" stroke-linecap="round" stroke-linejoin="round" fill="none" transform="matrix(-1 0 0 1.00034 475 -365.094)"/><path d="M206.46 649.747C204.518 645.536 202.302 641.456 199.826 637.534" stroke="#263238" stroke-width="2.77575" stroke-linecap="round" stroke-linejoin="round" fill="none" transform="matrix(-1 0 0 1.00034 475 -365.094)"/><path d="M432.85 475.569C441.011 466.881 446.951 466.243 451.753 467.825 450.393 457.943 436.514 469.74 436.514 469.74 436.514 469.74 440.733 459.192 430.685 461.829 420.637 464.466 407.98 470.823 397.376 488.754 397.376 488.754 395.655 491.724 393.684 495.86 390.484 496.615 387.472 498.011 384.83 499.968 375.753 498.941 362.069 498.441 352.742 503.021 348.365 503.043 344.087 504.323 340.418 506.713 339.416 506.88 338.425 507.102 337.448 507.379 325.67 506.774 313.937 505.494 302.307 503.549 295.923 502.438 291.204 501.411 287.512 500.468 282.21 494.278 275.604 491.058 269.386 492.362 268.046 491.441 266.624 490.641 265.14 489.975 266 488.837 266.805 487.644 267.582 486.45L267.832 486.061C268.415 485.145 268.97 484.229 269.525 483.286L269.858 482.703C270.358 481.787 270.858 480.871 271.329 479.927 271.42 479.727 271.522 479.533 271.635 479.344 272.134 478.317 272.606 477.29 273.05 476.235 273.06 476.144 273.06 476.049 273.05 475.958 274.047 473.637 274.919 471.267 275.66 468.852L275.909 467.991C276.159 467.075 276.409 466.187 276.631 465.216 276.631 464.799 276.825 464.411 276.909 463.994 276.992 463.578 277.27 462.384 277.436 461.552 277.603 460.719 277.603 460.636 277.658 460.191 277.714 459.747 277.908 458.582 278.019 457.777 278.13 456.972 278.019 456.861 278.213 456.389 278.408 455.917 278.38 454.668 278.435 453.779L278.435 452.586C278.435 451.281 278.435 450.004 278.435 448.7L278.435 448.7C278.435 447.34 278.435 445.924 278.435 444.647 278.435 444.231 278.435 443.815 278.435 443.398 278.435 442.454 278.269 441.538 278.186 440.622 278.186 440.178 278.186 439.706 277.991 439.262 277.991 438.319 277.714 437.403 277.547 436.487 277.547 436.126 277.547 435.737 277.353 435.348 277.103 434.044 276.798 432.767 276.492 431.49 276.492 431.49 276.492 431.49 276.492 431.351 276.187 430.13 275.826 428.936 275.438 427.743 275.438 427.382 275.188 427.021 275.077 426.66 274.771 425.772 274.466 424.884 274.133 424.023L273.661 422.858C273.3 421.969 272.912 421.081 272.523 420.082L272.107 419.166C271.552 418 270.969 416.834 270.358 415.668L270.358 415.668C269.775 414.558 269.109 413.476 268.47 412.421 268.269 412.143 268.084 411.857 267.915 411.56L266.305 409.145 265.667 408.285C265.056 407.424 264.446 406.619 263.779 405.814L263.335 405.204C261.701 403.283 259.968 401.448 258.145 399.708L257.534 399.097C256.785 398.403 256.035 397.709 255.258 397.043L254.536 396.432C253.703 395.711 252.843 395.017 251.982 394.351L251.538 393.99C243.277 387.744 233.713 383.448 223.559 381.416 279.074 427.077 264.834 474.736 260.532 492.14 288.484 523.756 304.638 596.536 299.226 611.775 303.251 607.778 310.19 616.716 305.027 624.932 315.381 623.433 316.991 632.121 313.077 647.138 321.598 651.135 358.321 721.917 363.373 735.962 368.425 750.007 353.02 800.693 347.69 821.344 344.165 833.408 346.938 846.434 355.074 856.013 356.073 857.262 366.177 882.799 363.04 899.953 366.288 897.985 368.73 894.926 369.924 891.321 371.367 884.409 366.76 873.167 366.76 872.029 366.651 871.599 366.504 871.18 366.316 870.78 365.983 869.614 365.622 868.393 365.178 867.116L354.852 837.11C356.376 835.109 357.464 832.811 358.044 830.365 358.968 826.302 358.518 822.044 356.767 818.263L356.767 818.263 365.094 783.816C369.438 781.146 372.583 776.899 373.866 771.964 374.87 767.322 374.138 762.473 371.812 758.335 372.689 756.63 373.394 754.845 373.921 753.005 377.252 741.07 373.782 727.718 369.73 716.421 360.348 690.134 327.871 641.947 317.351 626.681 317.074 617.493 313.993 613.552 311.522 611.886 311.644 610.712 311.542 609.524 311.217 608.389 309.749 604.131 307.542 600.164 304.694 596.675 304.427 590.155 303.703 583.662 302.529 577.245 301.258 568.901 299.562 560.629 297.449 552.457L297.782 552.457C292.869 534.304 286.679 517.289 283.237 507.129 295.173 514.374 330.842 517.955 352.881 513.736 374.92 509.516 378.834 518.066 385.885 517.788 392.935 517.511 403.067 496.859 409.201 482.647 415.335 468.435 435.571 465.743 432.85 475.569Z" fill="#869FD1" fill-opacity="0.4" transform="matrix(-1 0 0 1.00034 475 -365.094)"/></g></svg>