<svg width="756" height="756" xmlns="http://www.w3.org/2000/svg" xmlns:xlink="http://www.w3.org/1999/xlink" overflow="hidden"><defs><clipPath id="clip0"><rect x="0" y="0" width="756" height="756"/></clipPath></defs><g clip-path="url(#clip0)"><rect x="0" y="0" width="756" height="756" fill="#181D2A" fill-opacity="0"/><path d="M603.194 209.65C589.467 206.505 575.789 215.082 572.644 228.805 571.59 233.405 571.834 238.208 573.349 242.679L577.803 250.696 577.803 250.696C586.747 261.571 602.815 263.14 613.694 254.2 624.572 245.258 626.141 229.193 617.197 218.319 613.618 213.967 608.698 210.922 603.206 209.662Z" fill="#FFFFFF" fill-rule="evenodd"/><path d="M591 234.5C591 235.881 589.881 237 588.5 237 587.119 237 586 235.881 586 234.5 586 233.119 587.119 232 588.5 232 589.881 232 591 233.119 591 234.5Z" fill="#263238" fill-rule="evenodd"/><path d="M600 234.5C600 235.881 599.105 237 598 237 596.895 237 596 235.881 596 234.5 596 233.119 596.895 232 598 232 599.105 232 600 233.119 600 234.5Z" fill="#263238" fill-rule="evenodd"/><path d="M609.678 233.273C610.355 234.475 609.93 236 608.727 236.678 607.524 237.355 606 236.93 605.322 235.728 604.655 234.542 605.057 233.041 606.228 232.348 607.417 231.646 608.949 232.04 609.652 233.228 609.66 233.243 609.669 233.258 609.678 233.273Z" fill="#263238" fill-rule="evenodd"/><path d="M623 234.956C622.988 234.822 622.988 234.687 623 234.553 623 234.256 622.941 233.865 622.905 233.367 622.881 232.729 622.806 232.094 622.679 231.469 622.566 230.608 622.391 229.755 622.156 228.918 621.562 226.611 620.629 224.404 619.387 222.37 613.319 212.278 600.932 207.9 589.853 211.931 588.757 212.329 587.689 212.801 586.656 213.342 585.606 213.911 584.601 214.557 583.649 215.276 582.667 216.001 581.738 216.793 580.868 217.649 580.012 218.539 579.218 219.486 578.491 220.484 576.966 222.531 575.782 224.81 574.985 227.234 574.177 229.73 573.748 232.334 573.713 234.956 573.742 237.58 574.171 240.184 574.985 242.679 575.785 245.101 576.968 247.38 578.491 249.429 579.215 250.429 580.01 251.377 580.868 252.264 581.74 253.116 582.67 253.908 583.649 254.637 584.605 255.351 585.609 255.998 586.656 256.57 587.689 257.111 588.757 257.584 589.853 257.982 593.979 259.478 598.43 259.85 602.748 259.062 609.691 257.77 615.748 253.573 619.387 247.531 620.611 245.491 621.524 243.279 622.097 240.971 622.331 240.138 622.506 239.29 622.62 238.432 622.746 237.807 622.822 237.172 622.845 236.534 622.845 236.036 622.917 235.656 622.941 235.348 622.928 235.214 622.928 235.079 622.941 234.945 622.954 235.079 622.954 235.214 622.941 235.348L622.941 236.534C622.935 237.178 622.879 237.82 622.774 238.456 622.679 239.324 622.52 240.184 622.299 241.03 621.747 243.379 620.833 245.628 619.589 247.697 615.95 253.888 609.811 258.212 602.748 259.56 598.34 260.396 593.788 260.037 589.568 258.516 588.442 258.114 587.346 257.635 586.287 257.081 585.211 256.5 584.178 255.842 583.197 255.111 582.197 254.383 581.243 253.59 580.345 252.739 579.461 251.822 578.636 250.851 577.873 249.832 576.317 247.735 575.113 245.399 574.307 242.916 573.471 240.361 573.03 237.692 573 235.004 573.036 232.312 573.475 229.641 574.307 227.079 575.107 224.598 576.312 222.266 577.873 220.175 578.628 219.154 579.45 218.182 580.333 217.269 581.228 216.414 582.181 215.621 583.185 214.896 584.166 214.166 585.199 213.507 586.276 212.927 587.335 212.373 588.43 211.894 589.556 211.492 597.567 208.592 606.508 209.974 613.266 215.157 615.81 217.102 617.952 219.519 619.577 222.275 620.819 224.343 621.73 226.593 622.275 228.942 622.506 229.79 622.668 230.655 622.762 231.528 622.867 232.159 622.923 232.797 622.929 233.438L622.929 234.624C622.961 234.733 622.985 234.844 623 234.956Z" fill="#263238" fill-rule="evenodd"/></g></svg>