<svg width="756" height="756" xmlns="http://www.w3.org/2000/svg" xmlns:xlink="http://www.w3.org/1999/xlink" overflow="hidden"><defs><clipPath id="clip0"><rect x="0" y="0" width="756" height="756"/></clipPath></defs><g clip-path="url(#clip0)"><rect x="0" y="0" width="756" height="756" fill="#181D2A" fill-opacity="0"/><path d="M169.143 125.525C192.177 148.56 192.177 185.906 169.143 208.94 146.109 231.974 108.763 231.974 85.7283 208.94 62.6938 185.906 62.6938 148.56 85.7283 125.525 108.763 102.491 146.109 102.491 169.143 125.525Z" fill="#869FD1" fill-rule="evenodd"/><path d="M169.143 125.525C192.177 148.56 192.177 185.906 169.143 208.94 146.109 231.974 108.763 231.974 85.7283 208.94 62.6938 185.906 62.6938 148.56 85.7283 125.525 108.763 102.491 146.109 102.491 169.143 125.525Z" fill="#FFFFFF" fill-rule="evenodd" fill-opacity="0.4"/><path d="M169.696 171.362 168.346 171.559C167.993 171.614 167.633 171.516 167.36 171.287L165.176 169.46C165.08 169.386 164.979 169.32 164.873 169.264L158.502 166.531C158.287 166.438 158.103 166.287 157.971 166.093L154.376 161.036C154.217 160.805 153.997 160.621 153.739 160.508L151.631 159.541C151.536 159.496 151.432 159.464 151.328 159.451L149.098 159.119C148.79 159.064 148.5 158.94 148.249 158.756L143.516 155.193C143.325 155.053 143.101 154.965 142.864 154.937L139.391 154.484C139.165 154.454 138.933 154.484 138.723 154.574L137.783 154.982C137.463 155.118 137.102 155.118 136.782 154.982L132.641 153.08C132.397 152.96 132.118 152.929 131.852 152.989L128.182 153.804C127.951 153.862 127.745 153.989 127.59 154.167L126.073 155.827C125.809 156.117 125.41 156.244 125.027 156.16L121.993 155.526 115.607 152.687 113.529 149.456C113.375 149.203 113.322 148.902 113.378 148.611L113.833 146.105 115.35 142.512C115.401 142.408 115.359 142.281 115.254 142.228 115.213 142.208 115.166 142.202 115.122 142.21L112.437 142.527C112.095 142.571 111.791 142.772 111.618 143.07L110.83 144.429C110.646 144.736 110.346 144.955 109.995 145.033L106.325 145.848C105.974 145.937 105.615 145.738 105.506 145.395L105.051 144.022 103.928 141.968C103.718 141.626 103.718 141.194 103.928 140.851L105.748 138.209 106.461 136.382C106.551 136.145 106.716 135.943 106.931 135.809L109.343 134.299C109.589 134.15 109.877 134.086 110.162 134.118L112.453 134.435C112.745 134.479 113.043 134.396 113.272 134.208L114.197 133.484C114.365 133.36 114.565 133.288 114.773 133.272L117.337 133.091C117.546 133.081 117.755 133.121 117.943 133.212L119.324 133.846C119.595 133.979 119.765 134.255 119.763 134.556L119.763 135.779C119.763 136.179 120.09 136.503 120.492 136.503L120.901 136.503C121.429 136.497 121.851 136.065 121.844 135.54 121.844 135.519 121.843 135.498 121.841 135.477L121.72 134.42 121.477 132.276C121.426 131.858 121.644 131.453 122.023 131.265L124.481 130.042 127.696 126.524 129.88 123.248 133.915 121.995C134.262 121.889 134.502 121.572 134.507 121.21L134.507 119.247C134.504 118.889 134.749 118.577 135.098 118.492L137.768 117.843C138.006 117.786 138.215 117.647 138.359 117.451L139.467 115.82C139.606 115.623 139.559 115.349 139.36 115.21 139.327 115.188 139.292 115.17 139.254 115.156L134.385 113.375 130.821 111.654C130.507 111.504 130.137 111.533 129.85 111.729L125.3 114.884C124.977 115.102 124.563 115.135 124.208 114.975L120.916 113.465 118.444 112.333C118.306 112.272 118.242 112.112 118.303 111.975 118.33 111.912 118.38 111.862 118.444 111.835L120.947 111.004C121.059 110.97 121.162 110.914 121.25 110.838L124.647 108C116.17 108.444 107.892 110.71 100.379 114.643 97.3633 122.289 95.2261 130.25 94.0085 138.375 93.963 138.759 94.1039 139.139 94.3877 139.402L103.701 148.279C103.867 148.434 104.08 148.531 104.307 148.551L107.766 148.928C107.939 148.942 108.105 148.999 108.251 149.094L121.599 157.081C121.926 157.266 122.111 157.629 122.069 158.001L120.78 171.423C120.721 171.925 120.839 172.431 121.113 172.857L127.636 183.168C127.722 183.301 127.83 183.419 127.954 183.515L132.96 187.35C133.204 187.539 133.327 187.845 133.278 188.15L131.488 199.05 128.075 215.884C128.409 218.148 131.367 216.759 135.659 213.589L139.921 206.614 143.668 205.104 153.254 198.296 159.852 190.853 163.401 183.032C163.464 182.909 163.539 182.791 163.629 182.685L167.239 178.564 169.65 176.073C169.869 175.845 169.995 175.543 169.999 175.227L169.999 171.634C170.01 171.492 169.904 171.37 169.761 171.359 169.74 171.358 169.717 171.358 169.696 171.362Z" fill="#000000" fill-rule="evenodd" fill-opacity="0.2"/><path d="M155.001 122.001 154 122.001 154 122.001C154.1 121.667 154.1 121.334 154 121Z" fill="#FFFFFF" fill-rule="evenodd"/></g></svg>