<svg width="756" height="756" xmlns="http://www.w3.org/2000/svg" xmlns:xlink="http://www.w3.org/1999/xlink" overflow="hidden"><defs><clipPath id="clip0"><rect x="0" y="0" width="756" height="756"/></clipPath></defs><g clip-path="url(#clip0)"><rect x="0" y="0" width="756" height="756" fill="#181D2A" fill-opacity="0"/><path d="M488.859 158.692C489.191 156.76 488.933 154.771 488.119 152.992 487.39 151.22 486.13 149.725 484.522 148.716 482.767 147.701 480.683 147.449 478.742 148.017 477.604 148.369 476.567 148.996 475.718 149.843 475.49 148.768 475.028 147.759 474.366 146.889 473.124 145.265 471.279 144.23 469.263 144.026 467.38 143.882 465.498 144.335 463.879 145.322 462.213 146.293 460.877 147.758 460.052 149.519 459.02 151.786 458.738 154.332 459.248 156.775 459.929 159.312 461.202 161.645 462.961 163.576 465.754 166.841 469.48 171 469.48 171 469.48 171 474.29 169.329 478.41 168.409 480.945 167.877 483.321 166.74 485.338 165.092 487.155 163.395 488.388 161.153 488.859 158.692Z" fill="#B9D0E9" fill-rule="evenodd"/><path d="M461.696 192.839C461.387 192.015 460.821 191.306 460.075 190.813 459.374 190.297 458.523 190.012 457.644 190 456.115 189.993 454.773 190.99 454.377 192.427 453.371 191.371 451.782 191.063 450.437 191.662 449.648 192.048 449.003 192.663 448.591 193.422 448.137 194.176 447.936 195.05 448.018 195.921 448.127 197.029 448.605 198.072 449.377 198.894 450.238 199.712 451.291 200.316 452.444 200.653 454.327 201.26 456.796 202 456.796 202 456.796 202 458.329 200.265 459.763 198.93 460.659 198.142 461.347 197.155 461.771 196.055 462.1 195.003 462.074 193.875 461.696 192.839Z" fill="#B9D0E9" fill-rule="evenodd"/><path d="M285.912 381.301C286.091 380.378 285.996 379.42 285.636 378.556 285.312 377.697 284.743 376.962 284.006 376.451 282.691 375.61 280.998 375.786 279.868 376.883 279.578 375.368 278.392 374.215 276.921 374.02 276.049 373.932 275.171 374.134 274.414 374.595 273.614 375.036 272.962 375.719 272.545 376.556 272.036 377.633 271.878 378.854 272.094 380.033 272.384 381.262 272.952 382.4 273.749 383.353 275.003 384.948 276.721 387 276.721 387 276.721 387 278.99 386.255 280.934 385.824 282.129 385.603 283.255 385.088 284.219 384.32 285.075 383.526 285.667 382.468 285.912 381.301Z" fill="#B9D0E9" fill-rule="evenodd"/><path d="M531.812 382.832C531.594 382.31 531.231 381.861 530.766 381.542 530.31 381.205 529.763 381.016 529.198 381 529.259 381.895 528.592 382.672 527.705 382.734 527.166 382.773 526.643 382.533 526.315 382.097 525.758 381.852 525.125 381.852 524.567 382.097 524.062 382.35 523.648 382.756 523.381 383.258 523.089 383.765 522.959 384.351 523.011 384.936 523.087 385.676 523.395 386.373 523.891 386.923 524.448 387.468 525.126 387.871 525.869 388.097L528.662 389C528.662 389 529.644 387.826 530.562 386.936 531.134 386.413 531.571 385.757 531.838 385.026 532.062 384.311 532.054 383.542 531.812 382.832Z" fill="#B9D0E9" fill-rule="evenodd"/><path d="M298.842 339.9C298.664 339.348 298.338 338.874 297.912 338.543 297.51 338.194 297.021 338.004 296.515 338 295.976 338.001 295.461 338.258 295.096 338.711 294.883 338.976 294.728 339.295 294.642 339.641 294.445 339.402 294.204 339.212 293.939 339.086 293.445 338.848 292.889 338.848 292.395 339.086 291.942 339.34 291.573 339.752 291.339 340.262 291.079 340.764 290.964 341.347 291.01 341.929 291.075 342.672 291.349 343.37 291.793 343.919 292.286 344.47 292.89 344.874 293.553 345.095 294.62 345.509 296.039 346 296.039 346 296.039 346 296.913 344.837 297.73 343.945 298.239 343.415 298.627 342.755 298.865 342.019 299.052 341.328 299.044 340.586 298.842 339.9Z" fill="#B9D0E9" fill-rule="evenodd"/><path d="M516.801 178.835C516.585 178.309 516.221 177.859 515.753 177.543 515.295 177.205 514.747 177.016 514.181 177 513.575 177.01 513 177.266 512.583 177.711 512.344 177.975 512.173 178.295 512.085 178.641 511.86 178.407 511.59 178.223 511.292 178.099 510.732 177.859 510.101 177.859 509.541 178.099 508.526 178.657 507.927 179.763 508.007 180.929 508.083 181.671 508.392 182.369 508.889 182.919 509.446 183.466 510.126 183.87 510.87 184.095L513.669 185C513.669 185 514.654 183.824 515.574 182.932 516.146 182.409 516.585 181.752 516.852 181.019 517.065 180.304 517.048 179.539 516.801 178.835Z" fill="#B9D0E9" fill-rule="evenodd"/><path d="M513.985 352.521C514.083 350.841 513.689 349.171 512.857 347.735 512.088 346.3 510.914 345.154 509.498 344.458 507.001 343.318 504.091 344.072 502.378 346.301 502.084 345.412 501.613 344.6 500.995 343.921 499.821 342.668 498.214 341.974 496.544 342.001 494.986 342.07 493.486 342.656 492.263 343.677 490.967 344.665 489.993 346.05 489.473 347.645 488.842 349.683 488.842 351.879 489.473 353.916 490.263 356 491.509 357.855 493.112 359.33 495.719 361.89 499.176 365 499.176 365 499.176 365 502.96 363.093 506.271 361.839 508.303 361.129 510.144 359.918 511.644 358.306 512.993 356.694 513.814 354.665 513.985 352.521Z" fill="#B9D0E9" fill-rule="evenodd"/></g></svg>