<svg width="756" height="756" xmlns="http://www.w3.org/2000/svg" xmlns:xlink="http://www.w3.org/1999/xlink" overflow="hidden"><defs><clipPath id="clip0"><rect x="0" y="0" width="756" height="756"/></clipPath></defs><g clip-path="url(#clip0)"><rect x="0" y="0" width="756" height="756" fill="#181D2A" fill-opacity="0"/><path d="M116.615 218.926 460.447 166.182 512.092 502.848 168.26 555.592Z" fill="#B9D0E9" fill-rule="evenodd"/><path d="M116.615 218.926 460.447 166.182 512.092 502.848 168.26 555.592Z" fill="#000000" fill-rule="evenodd" fill-opacity="0.701961"/><path d="M127.12 228.333 453.276 178.3 503.27 504.201 177.114 554.234Z" fill="#FFFFFF" fill-rule="evenodd"/><path d="M511.364 498.102 512.092 502.848 338.814 529.429 370.529 486.26 414.178 426.753 511.364 498.102Z" fill="#B9D0E9" fill-rule="evenodd"/><path d="M511.364 498.102 512.092 502.848 338.814 529.429 370.529 486.26 414.178 426.753 511.364 498.102Z" fill="#000000" fill-rule="evenodd" fill-opacity="0.701961"/><path d="M168.26 555.592 163.296 523.233 253.49 400.353 413.693 517.942 168.26 555.592Z" fill="#B9D0E9" fill-rule="evenodd"/><path d="M168.26 555.592 163.296 523.233 253.49 400.353 413.693 517.942 168.26 555.592Z" fill="#000000" fill-rule="evenodd" fill-opacity="0.701961"/><path d="M362.28 238.661C391.695 238.917 415.333 262.97 415.077 292.385 414.821 321.801 390.768 345.439 361.352 345.183 331.937 344.927 308.299 320.873 308.555 291.458 308.811 262.043 332.864 238.405 362.28 238.661Z" fill="#B9D0E9" fill-rule="evenodd"/><path d="M362.28 238.661C391.695 238.917 415.333 262.97 415.077 292.385 414.821 321.801 390.768 345.439 361.352 345.183 331.937 344.927 308.299 320.873 308.555 291.458 308.811 262.043 332.864 238.405 362.28 238.661Z" fill="#000000" fill-rule="evenodd" fill-opacity="0.701961"/></g></svg>