<svg width="756" height="756" xmlns="http://www.w3.org/2000/svg" xmlns:xlink="http://www.w3.org/1999/xlink" overflow="hidden"><defs><clipPath id="clip0"><rect x="0" y="0" width="756" height="756"/></clipPath></defs><g clip-path="url(#clip0)"><rect x="0" y="0" width="756" height="756" fill="#181D2A" fill-opacity="0"/><path d="M163.133 111.289C225.616 59.4677 294.657 92.1782 343.969 141.1 405.551 202.342 438.18 247.247 531.76 251.48 611.269 255.082 648.042 247.571 663.572 339.956 676.49 416.743 663.753 502.41 590.315 541.911 523.797 577.684 416.668 569.722 358.833 520.098 286.531 457.991 327.087 370.379 282.441 299.14 240.119 231.612 202.374 278.462 154.845 251.029 103.587 221.453 113.947 152.087 163.133 111.289Z" fill="#B9D0E9" fill-rule="evenodd" fill-opacity="0.2"/></g></svg>