<svg width="756" height="756" xmlns="http://www.w3.org/2000/svg" xmlns:xlink="http://www.w3.org/1999/xlink" overflow="hidden"><defs><clipPath id="clip0"><rect x="0" y="0" width="756" height="756"/></clipPath></defs><g clip-path="url(#clip0)"><rect x="0" y="0" width="756" height="756" fill="#8FAADC" fill-opacity="0"/><path d="M116.891 248.298 442.652 227.004 463.502 545.975 137.742 567.269Z" fill="#B9D0E9" fill-rule="evenodd"/><path d="M125.93 257.944 434.943 237.744 455.127 546.516 146.114 566.715Z" fill="#FFFFFF" fill-rule="evenodd"/><path d="M116.891 248.298 442.652 227.004 463.502 545.975 137.742 567.269Z" fill="#FFFFFF" fill-rule="evenodd" fill-opacity="0.501961"/><path d="M462.713 541.763 463 546.261 299 557 332.126 519.164 377.745 467 462.713 541.763Z" fill="#B9D0E9" fill-rule="evenodd"/><path d="M462.713 541.763 463 546.261 299 557 332.126 519.164 377.745 467 462.713 541.763Z" fill="#FFFFFF" fill-rule="evenodd" fill-opacity="0.501961"/><path d="M137.991 567 136 536.392 230.137 429 370 551.839 137.991 567Z" fill="#B9D0E9" fill-rule="evenodd"/><path d="M137.991 567 136 536.392 230.137 429 370 551.839 137.991 567Z" fill="#FFFFFF" fill-rule="evenodd" fill-opacity="0.501961"/><path d="M390 337C390 364.614 367.614 387 340 387 312.386 387 290 364.614 290 337 290 309.386 312.386 287 340 287 367.614 287 390 309.386 390 337Z" fill="#B9D0E9" fill-rule="evenodd"/><path d="M390 337C390 364.614 367.614 387 340 387 312.386 387 290 364.614 290 337 290 309.386 312.386 287 340 287 367.614 287 390 309.386 390 337Z" fill="#FFFFFF" fill-rule="evenodd" fill-opacity="0.501961"/></g></svg>