<svg width="756" height="756" xmlns="http://www.w3.org/2000/svg" xmlns:xlink="http://www.w3.org/1999/xlink" overflow="hidden"><defs><clipPath id="clip0"><rect x="0" y="0" width="756" height="756"/></clipPath></defs><g clip-path="url(#clip0)"><rect x="0" y="0" width="756" height="756" fill="#181D2A" fill-opacity="0"/><path d="M242.603 249.859 589.568 274.715 565.23 614.448 218.265 589.592Z" fill="#B9D0E9" fill-rule="evenodd"/><path d="M250.743 261.354 579.87 284.932 556.31 613.802 227.183 590.224Z" fill="#FFFFFF" fill-rule="evenodd"/><path d="M242.603 249.859 589.568 274.715 565.23 614.448 218.265 589.592Z" fill="#FFFFFF" fill-rule="evenodd" fill-opacity="0.501961"/><path d="M565.529 609.685 565.18 614.467 390.339 601.93 430.828 566.879 486.595 518.545 565.529 609.685Z" fill="#B9D0E9" fill-rule="evenodd"/><path d="M565.529 609.685 565.18 614.467 390.339 601.93 430.828 566.879 486.595 518.545 565.529 609.685Z" fill="#FFFFFF" fill-rule="evenodd" fill-opacity="0.501961"/><path d="M218.218 589.589 220.565 556.947 335.784 457.144 465.882 607.352 218.218 589.589Z" fill="#B9D0E9" fill-rule="evenodd"/><path d="M218.218 589.589 220.565 556.947 335.784 457.144 465.882 607.352 218.218 589.589Z" fill="#FFFFFF" fill-rule="evenodd" fill-opacity="0.501961"/><path d="M518.238 382.714C514.227 411.856 487.351 432.228 458.209 428.216 429.068 424.205 408.696 397.329 412.707 368.187 416.718 339.046 443.594 318.674 472.736 322.685 501.878 326.696 522.25 353.572 518.238 382.714Z" fill="#B9D0E9" fill-rule="evenodd"/><path d="M518.238 382.714C514.227 411.856 487.351 432.228 458.209 428.216 429.068 424.205 408.696 397.329 412.707 368.187 416.718 339.046 443.594 318.674 472.736 322.685 501.878 326.696 522.25 353.572 518.238 382.714Z" fill="#FFFFFF" fill-rule="evenodd" fill-opacity="0.501961"/></g></svg>