<svg width="756" height="756" xmlns="http://www.w3.org/2000/svg" xmlns:xlink="http://www.w3.org/1999/xlink" overflow="hidden"><defs><clipPath id="clip0"><rect x="0" y="0" width="756" height="756"/></clipPath></defs><g clip-path="url(#clip0)"><rect x="0" y="0" width="756" height="756" fill="#181D2A" fill-opacity="0"/><path d="M209.877 617.06 290.591 663.906C293.441 665.365 296.817 665.365 299.667 663.906L538.117 526.186C540.628 524.67 540.628 522.396 538.117 520.941L457.388 474.094C454.538 472.635 451.162 472.635 448.312 474.094L209.877 611.829C207.382 613.269 207.367 615.635 209.877 617.06Z" fill="#121620" fill-rule="evenodd"/><path d="M533 512.485C532.893 511.338 532.176 510.338 531.125 509.867L455.314 466.092C452.465 464.636 449.089 464.636 446.24 466.092L214.86 599.944C213.817 600.421 213.107 601.42 213 602.562L213 610.521C213.103 611.667 213.823 612.664 214.875 613.124L290.656 656.914C293.508 658.362 296.878 658.362 299.73 656.914L531.11 523.258C532.159 522.794 532.876 521.798 532.985 520.656Z" fill="#B9D0E9" fill-rule="evenodd"/><path d="M533 512.485C532.893 511.338 532.176 510.338 531.125 509.867L455.314 466.092C452.465 464.636 449.089 464.636 446.24 466.092L214.86 599.944C213.817 600.421 213.107 601.42 213 602.562L213 610.521C213.103 611.667 213.823 612.664 214.875 613.124L290.656 656.914C293.508 658.362 296.878 658.362 299.73 656.914L531.11 523.258C532.159 522.794 532.876 521.798 532.985 520.656Z" fill="#000000" fill-rule="evenodd" fill-opacity="0.501961"/><path d="M290.655 648.898 214.877 605.271C212.382 603.833 212.367 601.501 214.877 600.047L446.248 466.093C449.097 464.636 452.472 464.636 455.321 466.093L531.129 509.916C533.624 511.431 533.624 513.702 531.129 515.156L299.758 648.913C296.896 650.367 293.511 650.363 290.655 648.898Z" fill="#B9D0E9" fill-rule="evenodd"/><path d="M290.655 648.898 214.877 605.271C212.382 603.833 212.367 601.501 214.877 600.047L446.248 466.093C449.097 464.636 452.472 464.636 455.321 466.093L531.129 509.916C533.624 511.431 533.624 513.702 531.129 515.156L299.758 648.913C296.896 650.367 293.511 650.363 290.655 648.898Z" fill="#000000" fill-rule="evenodd" fill-opacity="0.301961"/><path d="M295 649.922 295 658C293.521 657.983 292.064 657.629 290.745 656.964L214.893 613.51C213.834 613.048 213.111 612.054 213 610.913L213 603C213.12 604.138 213.84 605.128 214.893 605.598L290.745 648.871C292.058 649.554 293.518 649.914 295 649.922Z" fill="#B9D0E9" fill-rule="evenodd"/><path d="M295 649.922 295 658C293.521 657.983 292.064 657.629 290.745 656.964L214.893 613.51C213.834 613.048 213.111 612.054 213 610.913L213 603C213.12 604.138 213.84 605.128 214.893 605.598L290.745 648.871C292.058 649.554 293.518 649.914 295 649.922Z" fill="#000000" fill-rule="evenodd" fill-opacity="0.701961"/><path d="M392 522.695 400.56 527.859C400.731 527.953 400.921 528.002 401.115 528L409 523.415 399.795 518Z" fill="#37474F" fill-rule="evenodd"/><path d="M402 516.693 411.111 521.889C411.279 521.969 411.465 522.007 411.651 521.999L411.984 521.999 420 517.415 410.254 512Z" fill="#37474F" fill-rule="evenodd"/><path d="M374 532.68 383.033 537.889C383.2 537.968 383.384 538.006 383.569 537.999L397 530.43 387.321 525Z" fill="#37474F" fill-rule="evenodd"/><path d="M364 538.702 372.575 543.875C372.738 543.959 372.918 544.002 373.1 544L381 539.408 371.795 534Z" fill="#37474F" fill-rule="evenodd"/><path d="M316.635 617 325 612.867 315.254 608 307 612.232 316.095 616.915C316.268 616.973 316.451 617.001 316.635 617Z" fill="#37474F" fill-rule="evenodd"/><path d="M354 544.695 362.56 549.859C362.729 549.957 362.921 550.006 363.115 550L371 545.414 361.795 540Z" fill="#37474F" fill-rule="evenodd"/><path d="M411.795 525 404 529.232 412.575 533.886C412.735 533.968 412.917 534.008 413.1 533.999L421 529.866Z" fill="#37474F" fill-rule="evenodd"/><path d="M382.642 564.999 391 560.866 381.247 556 373 560.232 382.087 564.9C382.26 564.972 382.45 565.006 382.642 564.999Z" fill="#37474F" fill-rule="evenodd"/><path d="M423.115 528 431 523.873 421.795 519 414 523.225 422.605 527.887C422.762 527.965 422.938 528.003 423.115 528Z" fill="#37474F" fill-rule="evenodd"/><path d="M372.115 571.999 380 567.414 370.795 562 363 566.695 371.56 571.859C371.729 571.957 371.921 572.006 372.115 571.999Z" fill="#37474F" fill-rule="evenodd"/><path d="M362.115 578 370 573.415 360.795 568 353 572.695 361.59 577.875C361.753 577.959 361.933 578.002 362.115 578Z" fill="#37474F" fill-rule="evenodd"/><path d="M403.249 554 420 544.293 398.929 532 390 537.295 401.021 543.782C401.201 543.865 401.324 544.044 401.339 544.246 401.328 544.426 401.225 544.585 401.066 544.664L394.108 548.767 402.749 553.861C402.902 553.947 403.073 553.995 403.249 554Z" fill="#37474F" fill-rule="evenodd"/><path d="M333 556.702 341.59 561.889C341.749 561.969 341.924 562.007 342.1 561.999L350 557.407 340.78 552Z" fill="#37474F" fill-rule="evenodd"/><path d="M393.1 560 401 555.407 391.795 550 384 554.702 392.53 559.843C392.702 559.948 392.9 560.003 393.1 560Z" fill="#37474F" fill-rule="evenodd"/><path d="M274.642 614 283 609.873 273.247 605 265 609.225 274.056 613.859C274.235 613.949 274.436 613.997 274.642 614Z" fill="#37474F" fill-rule="evenodd"/><path d="M250 604.678 258.605 609.89C258.761 609.961 258.929 609.998 259.1 610L259.414 610 267 605.416 257.78 600Z" fill="#37474F" fill-rule="evenodd"/><path d="M289.19 619.996 289.504 619.996 297 615.414 287.795 610 280 614.708 288.605 619.902C288.791 619.98 288.99 620.012 289.19 619.996Z" fill="#37474F" fill-rule="evenodd"/><path d="M296.107 628.999 304 624.866 294.789 620 287 624.232 295.552 628.872C295.72 628.964 295.913 629.007 296.107 628.999Z" fill="#37474F" fill-rule="evenodd"/><path d="M260 598.687 268.59 603.89C268.752 603.959 268.924 603.997 269.1 604L277 599.408 267.78 594Z" fill="#37474F" fill-rule="evenodd"/><path d="M306.108 623 314 618.859 304.787 614 297 618.225 305.598 622.887C305.755 622.962 305.931 623.001 306.108 623Z" fill="#37474F" fill-rule="evenodd"/><path d="M291 580.702 299.575 585.89C299.74 585.968 299.918 586.006 300.1 585.999L308 581.423 298.78 576Z" fill="#37474F" fill-rule="evenodd"/><path d="M302 574.695 310.56 579.859C310.725 579.955 310.911 580.003 311.1 580L319 575.415 309.795 570Z" fill="#37474F" fill-rule="evenodd"/><path d="M312 568.687 320.545 573.859C320.716 573.954 320.906 574.003 321.1 574L329 569.408 319.795 564Z" fill="#37474F" fill-rule="evenodd"/><path d="M281 586.695 289.552 591.844C289.716 591.944 289.901 591.997 290.092 592L298 587.399 288.774 582Z" fill="#37474F" fill-rule="evenodd"/><path d="M323 562.702 331.59 567.89C331.75 567.964 331.924 568.002 332.1 568L340 563.408 330.78 558Z" fill="#37474F" fill-rule="evenodd"/><path d="M271 592.702 279.59 597.875C279.753 597.959 279.933 598.002 280.115 598L288 593.408 278.795 588Z" fill="#37474F" fill-rule="evenodd"/><path d="M343 550.695 351.605 555.891C351.761 555.961 351.929 555.999 352.1 556L360 551.415 350.795 546Z" fill="#37474F" fill-rule="evenodd"/><path d="M369 549.224 377.56 553.873C377.729 553.96 377.921 554.004 378.115 554L378.429 554 386 549.874 376.795 545Z" fill="#37474F" fill-rule="evenodd"/><path d="M425 503.232 433.56 507.873C433.727 507.958 433.911 508.001 434.1 508L442 503.867 432.781 499Z" fill="#37474F" fill-rule="evenodd"/><path d="M436 497.232 444.56 501.873C444.725 501.959 444.911 502.003 445.1 502L453 497.867 443.795 493Z" fill="#37474F" fill-rule="evenodd"/><path d="M359 555.225 367.56 559.873C367.726 559.958 367.911 560.001 368.1 560L376 555.873 366.795 551Z" fill="#37474F" fill-rule="evenodd"/><path d="M446 491.225 454.56 495.873C454.726 495.956 454.911 496 455.1 496L463 491.859 453.795 487Z" fill="#37474F" fill-rule="evenodd"/><path d="M389.115 547.999 389.429 547.999 397 543.874 387.795 539 380 543.238 388.56 547.886C388.732 547.967 388.923 548.006 389.115 547.999Z" fill="#37474F" fill-rule="evenodd"/><path d="M437 510.225 445.545 514.859C445.72 514.949 445.915 514.997 446.115 515L454 510.873 444.795 506Z" fill="#37474F" fill-rule="evenodd"/><path d="M458 498.218 466.545 502.859C466.713 502.952 466.905 503 467.1 503L475 498.867 465.765 494Z" fill="#37474F" fill-rule="evenodd"/><path d="M456.642 509 465 504.873 455.247 500 447 504.225 456.087 508.887C456.26 508.963 456.45 509.001 456.642 509Z" fill="#37474F" fill-rule="evenodd"/><path d="M488.517 503.897C488.67 503.962 488.836 503.997 489.003 504L489.337 504 497 499.709 475.891 488 468 492.424Z" fill="#37474F" fill-rule="evenodd"/><path d="M348 561.21 357.071 565.872C357.246 565.96 357.442 566.004 357.642 566L357.975 566 366 561.888 356.247 557Z" fill="#37474F" fill-rule="evenodd"/><path d="M468.115 515.999 468.429 515.999 476 511.415 466.795 506 459 510.709 467.56 515.873C467.732 515.963 467.923 516.007 468.115 515.999Z" fill="#37474F" fill-rule="evenodd"/><path d="M479.107 510 487 505.407 477.789 500 470 504.702 478.537 509.859C478.713 509.954 478.909 510.003 479.107 510Z" fill="#37474F" fill-rule="evenodd"/><path d="M297 591.225 305.56 595.859C305.729 595.949 305.92 595.999 306.115 596L314 591.873 304.795 587Z" fill="#37474F" fill-rule="evenodd"/><path d="M276 603.232 284.545 607.873C284.714 607.96 284.906 608.004 285.1 608L285.414 608 293 603.881 283.78 599Z" fill="#37474F" fill-rule="evenodd"/><path d="M310.107 608 318 603.415 308.774 598 301 602.695 309.597 607.874C309.753 607.962 309.93 608.004 310.107 608Z" fill="#37474F" fill-rule="evenodd"/><path d="M299.107 613.999 307 609.407 297.789 604 290 608.702 298.597 613.889C298.756 613.969 298.931 614.007 299.107 613.999Z" fill="#37474F" fill-rule="evenodd"/><path d="M320.1 601.999 320.429 601.999 328 597.431 318.795 592 311 596.709 319.545 601.873C319.716 601.966 319.908 602.008 320.1 601.999Z" fill="#37474F" fill-rule="evenodd"/><path d="M338 567.224 346.575 571.887C346.743 571.964 346.927 572.004 347.115 572L347.429 572 355 567.874 345.795 563Z" fill="#37474F" fill-rule="evenodd"/><path d="M341.107 590 349 585.408 339.789 580 332 584.702 340.552 589.859C340.723 589.953 340.913 590.002 341.107 590Z" fill="#37474F" fill-rule="evenodd"/><path d="M330.651 595.981 339 591.44 329.254 586 321 590.73 330.111 595.965C330.289 596.005 330.471 596.011 330.651 595.981Z" fill="#37474F" fill-rule="evenodd"/><path d="M317 579.232 325.545 583.873C325.714 583.96 325.906 584.004 326.1 584L334 579.867 324.795 575Z" fill="#37474F" fill-rule="evenodd"/><path d="M286 597.232 294.545 601.873C294.72 601.96 294.917 602.004 295.115 602L303 597.867 293.795 593Z" fill="#37474F" fill-rule="evenodd"/><path d="M328 573.232 336.56 577.873C336.729 577.96 336.921 578.004 337.115 578L345 573.867 335.795 569Z" fill="#37474F" fill-rule="evenodd"/><path d="M307 585.21 315.545 589.873C315.714 589.96 315.906 590.004 316.1 590L316.414 590 324 585.888 314.78 581Z" fill="#37474F" fill-rule="evenodd"/><path d="M351.1 583.999 359 579.407 349.78 574 342 578.702 350.575 583.873C350.735 583.964 350.917 584.008 351.1 583.999Z" fill="#37474F" fill-rule="evenodd"/><path d="M413 510.702 421.59 515.89C421.75 515.967 421.924 516.004 422.1 516L430 511.407 420.78 506Z" fill="#37474F" fill-rule="evenodd"/><path d="M247.247 606 239 610.702 248.103 615.889C248.271 615.969 248.457 616.007 248.642 615.999L248.975 615.999 257 611.423Z" fill="#37474F" fill-rule="evenodd"/><path d="M262.704 611 251 617.818 259.691 622.893C259.848 622.962 260.018 622.999 260.19 623L260.523 623 272 616.305Z" fill="#37474F" fill-rule="evenodd"/><path d="M234.615 597 225 602.696 233.743 607.859C233.912 607.956 234.101 608.004 234.294 608L244 602.429Z" fill="#37474F" fill-rule="evenodd"/><path d="M284.102 626 275 631.178 283.261 635.872C283.426 635.957 283.61 636.001 283.797 636L293 630.921Z" fill="#37474F" fill-rule="evenodd"/><path d="M277.587 616 263 624.052 271.77 628.897C271.934 628.969 272.112 629.004 272.291 629L272.612 629 287 621.065Z" fill="#37474F" fill-rule="evenodd"/><path d="M251.142 597.994 259 593.404 249.768 588 242 592.7 250.53 597.869C250.718 597.973 250.93 598.016 251.142 597.994Z" fill="#37474F" fill-rule="evenodd"/><path d="M286 637.827 294.645 642.878C294.815 642.959 295.003 643.002 295.19 643L307 636.281 297.704 631Z" fill="#37474F" fill-rule="evenodd"/><path d="M261.1 592 269 587.407 259.78 582 252 586.702 260.59 591.89C260.75 591.967 260.924 592.004 261.1 592Z" fill="#37474F" fill-rule="evenodd"/><path d="M307.1 564.997 307.414 564.997 315 560.873 305.78 556 298 560.237 306.56 564.899C306.728 564.975 306.914 565.01 307.1 564.997Z" fill="#37474F" fill-rule="evenodd"/><path d="M318.1 559 326 554.873 316.795 550 309 554.225 317.575 558.873C317.735 558.959 317.915 559.003 318.1 559Z" fill="#37474F" fill-rule="evenodd"/><path d="M297.19 570.999 297.504 570.999 305 566.874 295.795 562 288 566.238 296.59 570.871C296.774 570.965 296.981 571.009 297.19 570.999Z" fill="#37474F" fill-rule="evenodd"/><path d="M282.1 579.997 282.429 579.997 290 575.43 280.795 570 273 574.708 281.575 579.887C281.737 579.974 281.918 580.012 282.1 579.997Z" fill="#37474F" fill-rule="evenodd"/><path d="M271.635 586 280 581.415 270.254 576 262 580.695 271.095 585.875C271.262 585.961 271.448 586.003 271.635 586Z" fill="#37474F" fill-rule="evenodd"/><path d="M493 518.694 501.651 523.906C501.809 523.972 501.978 524.003 502.148 524L502.465 524 510 519.416 500.746 514Z" fill="#37474F" fill-rule="evenodd"/><path d="M439 549.695 447.545 554.843C447.711 554.95 447.905 555.005 448.1 555L456 550.415 446.795 545Z" fill="#37474F" fill-rule="evenodd"/><path d="M472 530.77 480.78 535.861C480.95 535.954 481.14 536.001 481.333 536L481.656 536 500 525.338 490.559 520Z" fill="#37474F" fill-rule="evenodd"/><path d="M449 543.702 457.537 548.843C457.71 548.95 457.906 549.005 458.107 549L466 544.407 456.789 539Z" fill="#37474F" fill-rule="evenodd"/><path d="M460 537.702 468.515 542.827C468.687 542.947 468.893 543.009 469.1 542.999L477 538.407 467.78 533Z" fill="#37474F" fill-rule="evenodd"/><path d="M328.1 553 328.429 553 336 548.881 326.795 544 319 548.232 327.545 552.873C327.716 552.959 327.906 553.003 328.1 553Z" fill="#37474F" fill-rule="evenodd"/><path d="M499.895 501 492 505.692 512.513 517.891C512.671 517.961 512.841 517.998 513.014 518L513.332 518 521 513.433Z" fill="#37474F" fill-rule="evenodd"/><path d="M313 622.696 321.261 627.859C321.426 627.953 321.61 628.002 321.797 628L331 622.414 322.043 617Z" fill="#37474F" fill-rule="evenodd"/><path d="M325 615.793 333.547 620.846C333.721 620.948 333.917 621 334.117 621L334.432 621 393 586.315 383.778 581Z" fill="#37474F" fill-rule="evenodd"/><path d="M327.1 611 335 606.867 325.795 602 318 606.232 326.59 610.887C326.749 610.961 326.923 611 327.1 611Z" fill="#37474F" fill-rule="evenodd"/><path d="M301 629.688 309.261 634.843C309.425 634.942 309.609 634.997 309.797 635L319 629.422 310.101 624Z" fill="#37474F" fill-rule="evenodd"/><path d="M386 580.143 394.735 584.871C394.906 584.953 395.095 584.997 395.286 585L395.622 585 405 579.928 395.607 575Z" fill="#37474F" fill-rule="evenodd"/><path d="M411 566.157 419.298 570.885C419.454 570.964 419.628 571.004 419.804 571L420.109 571 429 565.943 420.109 561Z" fill="#37474F" fill-rule="evenodd"/><path d="M398 573.178 406.774 577.9C406.938 577.97 407.115 578.004 407.294 578L417 572.921 407.615 568Z" fill="#37474F" fill-rule="evenodd"/><path d="M423 558.82 431.645 563.862C431.816 563.957 432.01 564.004 432.206 564L432.523 564 444 557.287 434.704 552Z" fill="#37474F" fill-rule="evenodd"/><path d="M434.072 522 434.388 522 442 517.901 432.823 513 425 517.225 433.62 521.887C433.76 521.954 433.915 521.993 434.072 522Z" fill="#37474F" fill-rule="evenodd"/><path d="M447.1 541.997 447.414 541.997 455 537.415 445.795 532 438 536.708 446.575 541.903C446.74 541.978 446.92 542.01 447.1 541.997Z" fill="#37474F" fill-rule="evenodd"/><path d="M410.244 563 432 551.052 422.65 546 401 558.036 409.727 562.883C409.886 562.963 410.064 563.004 410.244 563Z" fill="#37474F" fill-rule="evenodd"/><path d="M470.1 528.999 470.429 528.999 478 524.415 468.795 519 461 523.709 469.59 528.904C469.75 528.975 469.926 529.008 470.1 528.999Z" fill="#37474F" fill-rule="evenodd"/><path d="M480.115 522.997 480.429 522.997 488 518.43 478.795 513 471 517.708 479.575 522.903C479.746 522.979 479.93 523.01 480.115 522.997Z" fill="#37474F" fill-rule="evenodd"/><path d="M400.1 569 408 564.873 398.795 560 391 564.225 399.56 568.873C399.726 568.955 399.912 568.999 400.1 569Z" fill="#37474F" fill-rule="evenodd"/><path d="M458.142 521.996 458.456 521.996 466 517.421 456.768 512 449 516.7 457.515 521.839C457.702 521.961 457.923 522.016 458.142 521.996Z" fill="#37474F" fill-rule="evenodd"/><path d="M348.1 598.999 356 594.866 346.78 590 339 594.232 347.59 598.9C347.749 598.972 347.924 599.006 348.1 598.999Z" fill="#37474F" fill-rule="evenodd"/><path d="M389.1 575 397 570.422 387.78 565 380 569.688 388.605 574.875C388.761 574.948 388.929 574.991 389.1 575Z" fill="#37474F" fill-rule="evenodd"/><path d="M337.19 604.992 337.504 604.992 345 600.87 335.795 596 328 600.235 336.605 604.907C336.788 604.986 336.99 605.016 337.19 604.992Z" fill="#37474F" fill-rule="evenodd"/><path d="M358.114 592.999 366 588.873 356.782 584 349 588.225 357.605 592.901C357.763 592.972 357.938 593.006 358.114 592.999Z" fill="#37474F" fill-rule="evenodd"/><path d="M368.634 586.987 368.998 586.987 377 582.848 367.239 578 359 582.253 368.047 586.931C368.234 586.996 368.436 587.016 368.634 586.987Z" fill="#37474F" fill-rule="evenodd"/><path d="M379.107 581 379.421 581 387 576.874 377.789 572 370 576.238 378.597 580.915C378.759 580.976 378.933 581.004 379.107 581Z" fill="#37474F" fill-rule="evenodd"/><path d="M353.137 538.998 361 534.414 351.789 529 344 533.694 352.552 538.842C352.726 538.956 352.931 539.011 353.137 538.998Z" fill="#37474F" fill-rule="evenodd"/><path d="M490.642 516.998 490.975 516.998 499 512.431 489.247 507 481 511.709 490.103 516.92C490.276 516.981 490.458 517.008 490.642 516.998Z" fill="#37474F" fill-rule="evenodd"/><path d="M374.115 527 382 522.415 372.796 517 365 521.695 373.545 526.843C373.719 526.947 373.915 527 374.115 527Z" fill="#37474F" fill-rule="evenodd"/><path d="M397.1 513 405 508.873 395.78 504 388 508.225 396.56 512.873C396.725 512.96 396.911 513.004 397.1 513Z" fill="#37474F" fill-rule="evenodd"/><path d="M387.122 519 395 514.873 385.789 510 378 514.225 386.552 518.873C386.728 518.962 386.924 519.005 387.122 519Z" fill="#37474F" fill-rule="evenodd"/><path d="M343.1 545 351 540.399 341.78 535 334 539.695 342.56 544.859C342.728 544.949 342.912 544.997 343.1 545Z" fill="#37474F" fill-rule="evenodd"/><path d="M364.14 532.998 364.471 532.998 372 528.408 362.83 523 355 527.716 363.583 532.888C363.758 532.973 363.949 533.01 364.14 532.998Z" fill="#37474F" fill-rule="evenodd"/><path d="M408.1 507 416 502.867 406.795 498 399 502.232 407.56 506.873C407.725 506.96 407.911 507.004 408.1 507Z" fill="#37474F" fill-rule="evenodd"/><path d="M447.993 480 456 475.682 450.916 473 443 477.421 447.445 479.853C447.614 479.941 447.801 479.991 447.993 480Z" fill="#37474F" fill-rule="evenodd"/><path d="M466.107 489.993 474 485.844 464.789 481 457 485.249 465.552 489.923C465.728 489.988 465.918 490.013 466.107 489.993Z" fill="#37474F" fill-rule="evenodd"/><path d="M416.993 498 417.313 498 425 493.669 419.916 491 412 495.449 416.43 497.896C416.608 497.968 416.8 498.004 416.993 498Z" fill="#37474F" fill-rule="evenodd"/><path d="M428.013 491.994 428.335 491.994 436 487.654 430.972 485 423 489.474 427.492 491.934C427.659 491.992 427.837 492.012 428.013 491.994Z" fill="#37474F" fill-rule="evenodd"/><path d="M437.978 486 446 481.655 440.916 479 433 483.449 437.475 485.911C437.635 485.973 437.806 486.003 437.978 486Z" fill="#37474F" fill-rule="evenodd"/></g></svg>