<svg width="756" height="756" xmlns="http://www.w3.org/2000/svg" xmlns:xlink="http://www.w3.org/1999/xlink" overflow="hidden"><defs><clipPath id="clip0"><rect x="0" y="0" width="756" height="756"/></clipPath></defs><g clip-path="url(#clip0)"><rect x="0" y="0" width="756" height="756" fill="#000000" fill-opacity="0"/><path d="M643.761 446.43 643.761 446.43C642.175 445.721 640.325 445.897 638.906 446.896 634.871 449.484 632.319 453.806 632.027 458.547 631.843 460.258 632.602 461.935 634.017 462.941L634.017 462.941 719.36 516.201 719.36 516.201C721.046 517.366 723.591 517.3 726.373 515.718 732.043 512.095 735.621 506.015 736 499.358 736 496.195 734.82 494.015 732.932 493.099L732.932 493.099Z" fill="#B9D0E9" fill-rule="evenodd"/><path d="M632 458.271C632 462.481 635.113 464.204 638.983 462.107 643.099 459.58 645.703 455.358 646 450.729 646 446.519 642.887 444.796 639.017 446.893 634.902 449.42 632.298 453.642 632 458.271Z" fill="#000000" fill-rule="evenodd" fill-opacity="0.14902"/><path d="M613.169 434.604C610.719 436.216 609.176 438.917 609.016 441.875 608.907 442.932 609.362 443.966 610.21 444.589L610.21 444.589 635.902 459.728 635.902 459.728C636.852 460.177 637.965 460.064 638.811 459.438 641.287 457.827 642.841 455.097 642.98 452.116 643.103 451.052 642.646 450.006 641.787 449.385L616.095 434.246 616.095 434.246C615.128 433.818 614.008 433.956 613.169 434.604Z" fill="#263238" fill-rule="evenodd"/><path d="M642.07 460 730 512.986C728.958 514.046 727.778 514.965 726.488 515.718 723.703 517.291 721.204 517.374 719.448 516.199L719.448 516.199 634 463.212C635.582 463.929 637.436 463.752 638.846 462.749 640.073 462.02 641.164 461.091 642.07 460Z" fill="#000000" fill-rule="evenodd" fill-opacity="0.101961"/><path d="M656.916 382.518C656.916 381.793 656.916 381.102 656.815 380.394 656.714 379.686 656.731 378.994 656.647 378.303 656.563 377.611 656.563 377.392 656.513 376.937 656.395 375.723 656.21 374.542 656.025 373.413 655.924 372.907 655.84 372.367 655.739 371.861 655.638 371.355 655.538 370.9 655.437 370.411 655.134 369.112 654.832 367.831 654.462 366.617 654.26 366.044 654.092 365.453 653.89 364.93 653.857 364.843 653.828 364.752 653.806 364.661 653.588 364.087 653.403 363.548 653.185 362.974 652.958 362.355 652.699 361.747 652.411 361.153 652.228 360.71 652.02 360.276 651.789 359.855 651.668 359.536 651.517 359.231 651.335 358.944 651.167 358.573 650.966 358.202 650.764 357.848L650.613 357.595C650.445 357.275 650.243 356.971 650.058 356.651 649.873 356.33 649.789 356.246 649.672 356.044 648.766 354.621 647.753 353.268 646.646 351.997 646.444 351.794 646.259 351.575 646.074 351.373 645.889 351.17 645.755 351.036 645.604 350.867L644.982 350.26C644.409 349.658 643.797 349.095 643.15 348.574 642.855 348.314 642.548 348.071 642.225 347.848 641.906 347.595 641.586 347.359 641.25 347.14 640.749 346.766 640.228 346.424 639.687 346.112L639.267 345.842 639.183 345.842 639.183 345.842 620.693 335.066 620.693 335.066 620.559 334.982C615.773 332.304 610.373 330.933 604.893 331.002 596.724 331.002 587.513 333.701 577.747 339.35 544.129 358.776 517 406.025 517 444.911 517 464.286 523.723 477.911 534.683 484.302L534.784 484.302 534.784 484.302 553.273 495.061 553.273 495.061 553.374 495.061 553.374 495.061 553.677 495.23C554.164 495.499 554.635 495.752 555.122 495.988 555.61 496.224 556.332 496.545 556.954 496.798 557.576 497.051 558.064 497.236 558.635 497.405 558.931 497.518 559.234 497.609 559.543 497.675 559.852 497.801 560.173 497.897 560.501 497.961L561.493 498.214C561.73 498.282 561.972 498.332 562.216 498.366L563.527 498.602 563.829 498.602 565.409 498.805C574.469 499.766 584.991 497.203 596.253 490.693 629.871 471.251 657 423.984 657 385.132 656.966 384.323 656.95 383.446 656.916 382.518ZM616.222 355.032C617.536 359.867 618.182 364.86 618.138 369.871 618.138 404.153 593.127 447.592 563.543 464.725 559.225 467.305 554.561 469.252 549.693 470.509 548.377 465.669 547.731 460.669 547.777 455.652 547.777 421.37 572.771 377.932 602.372 360.799 606.69 358.221 611.354 356.28 616.222 355.032Z" fill="#B9D0E9" fill-rule="evenodd"/><path d="M552 495 534.434 484.598C523.662 478.161 517 464.456 517 445.024 517 427.609 522.336 408.534 531.169 391L549.398 401.825C540.549 419.342 535.213 438.435 535.213 455.85 535.279 474.891 541.56 488.393 552 495Z" fill="#000000" fill-rule="evenodd" fill-opacity="0.101961"/><path d="M656.933 382.86C656.933 382.137 656.933 381.448 656.831 380.742 656.73 380.037 656.747 379.348 656.663 378.659 656.578 377.97 656.578 377.751 656.528 377.298 656.41 376.088 656.224 374.911 656.038 373.786 655.937 373.281 655.853 372.744 655.751 372.24 655.65 371.735 655.549 371.282 655.448 370.794 655.144 369.501 654.84 368.224 654.469 367.014 654.266 366.442 654.098 365.854 653.895 365.333 653.862 365.246 653.833 365.155 653.811 365.064 653.591 364.493 653.406 363.955 653.187 363.384 652.959 362.767 652.699 362.161 652.41 361.569 652.227 361.127 652.017 360.695 651.786 360.275 651.665 359.958 651.513 359.654 651.33 359.368 651.162 358.998 650.959 358.629 650.757 358.276L650.605 358.024C650.436 357.704 650.234 357.402 650.048 357.083 649.862 356.763 649.778 356.68 649.66 356.478 648.75 355.059 647.735 353.712 646.623 352.445 646.42 352.243 646.234 352.025 646.049 351.823 645.863 351.621 645.728 351.487 645.576 351.319L644.952 350.714C644.377 350.114 643.762 349.553 643.113 349.034 642.817 348.775 642.509 348.533 642.185 348.311 641.864 348.059 641.544 347.824 641.206 347.605 640.703 347.232 640.18 346.891 639.637 346.58 628.567 339.859 612.638 340.027 596 350.496 562.573 371.467 535.17 417.963 535.001 455.687 534.916 475.314 541.987 489.009 553.275 495.243 553.765 495.512 554.237 495.764 554.727 495.999 555.216 496.234 555.942 496.553 556.566 496.806 557.19 497.058 557.68 497.243 558.253 497.41 558.55 497.523 558.854 497.614 559.164 497.679 559.475 497.805 559.797 497.901 560.126 497.965L561.122 498.217C561.36 498.284 561.603 498.335 561.847 498.368L563.164 498.604 563.467 498.604 565.053 498.805C574.149 499.763 584.712 497.209 596.017 490.723 629.765 471.348 657 424.247 657 385.531 656.983 384.658 656.966 383.784 656.933 382.86ZM589.808 480.153C582.248 484.505 574.975 486.791 568.749 486.791 557.072 486.791 551.706 478.859 549.293 470.541 547.972 465.719 547.324 460.736 547.369 455.737 547.369 421.575 572.461 378.289 602.176 361.216 606.511 358.647 611.194 356.713 616.08 355.47 618.423 354.898 620.824 354.599 623.235 354.579 642.539 354.579 644.598 376.289 644.598 385.632 644.598 419.794 619.523 463.081 589.808 480.153Z" fill="#FFFFFF" fill-rule="evenodd" fill-opacity="0.4"/><path d="M644 386C644 420.087 619.001 463.316 589.375 480.36 581.839 484.704 574.588 486.986 568.397 486.986 562.914 487.206 557.635 484.897 554.081 480.729L554.081 480.729C553.778 480.376 553.492 480.007 553.206 479.638 552.92 479.269 552.651 478.883 552.415 478.481 552.225 478.206 552.052 477.921 551.894 477.625 551.776 477.441 551.658 477.256 551.557 477.072 551.456 476.887 551.322 476.602 551.187 476.367 551.052 476.132 550.968 475.931 550.867 475.713 550.766 475.495 550.649 475.277 550.548 475.042L550.043 473.834C549.841 473.331 549.656 472.828 549.488 472.308 549.32 471.787 549.135 471.284 549 470.764 553.872 469.515 558.54 467.577 562.862 465.01 592.471 447.967 617.504 404.755 617.504 370.651 617.548 365.666 616.901 360.698 615.586 355.889 617.921 355.319 620.315 355.02 622.719 355 623.658 355.003 624.596 355.059 625.528 355.168L626.403 355.302 626.403 355.302C642.2 357.919 644 377.311 644 386Z" fill="#000000" fill-rule="evenodd" fill-opacity="0.101961"/><path d="M634 379.955C634 414.05 608.819 457.252 578.977 474.291 571.385 478.635 564.082 481 557.829 481 556.585 481.005 555.343 480.904 554.118 480.698 553.813 480.346 553.525 479.977 553.237 479.608 552.948 479.239 552.677 478.853 552.44 478.451 552.248 478.176 552.074 477.891 551.915 477.595 551.796 477.411 551.677 477.226 551.576 477.042 551.474 476.858 551.339 476.572 551.203 476.338 551.068 476.103 550.983 475.901 550.881 475.684 550.779 475.466 550.661 475.248 550.559 475.013L550.051 473.805C549.847 473.302 549.661 472.799 549.491 472.279 549.322 471.759 549.136 471.256 549 470.736 553.907 469.487 558.61 467.55 562.963 464.984 592.788 447.945 618.003 404.743 618.003 370.647 618.047 365.663 617.397 360.697 616.071 355.889 618.423 355.319 620.835 355.02 623.257 355 624.202 355.003 625.148 355.059 626.086 355.168L626.968 355.302C633.102 362.413 634 373.867 634 379.955Z" fill="#FFFFFF" fill-rule="evenodd" fill-opacity="0.701961"/></g></svg>