<svg width="756" height="756" xmlns="http://www.w3.org/2000/svg" xmlns:xlink="http://www.w3.org/1999/xlink" overflow="hidden"><defs><clipPath id="clip0"><rect x="0" y="0" width="756" height="756"/></clipPath></defs><g clip-path="url(#clip0)"><rect x="0" y="0" width="756" height="756" fill="#181D2A" fill-opacity="0"/><path d="M132 636.5C132 636.211 242.37 636 378.494 636 514.618 636 625 636.211 625 636.5 625 636.788 514.654 637 378.494 637 242.335 637 132 636.769 132 636.5Z" fill="#263238" fill-rule="evenodd"/><path d="M180.89 592C180.89 592 174.514 547.64 175.03 521.836 175.545 496.031 175.03 467 175.03 467L177.96 467C177.96 467 175.979 518.217 178.136 549.111 180.292 580.005 186 592 186 592L180.89 592" fill="#263238" fill-rule="evenodd"/><path d="M199.533 416.711C199.068 415.131 198.13 413.736 196.849 412.718 194.976 411.526 192.527 412.027 190.443 412.718 181.54 415.96 173.603 432.789 170 441.632L181.776 482C203.207 461.941 206.905 435.625 199.533 416.711Z" fill="#455A64" fill-rule="evenodd"/><path d="M197 414C196.958 414.184 196.895 414.364 196.814 414.535L196.208 415.995C195.663 417.266 194.896 419.107 193.98 421.388 192.148 425.961 189.808 432.339 187.791 439.537 185.773 446.735 184.275 453.362 183.397 458.185 182.951 460.56 182.617 462.555 182.406 463.91 182.295 464.539 182.208 465.097 182.146 465.466 182.127 465.648 182.081 465.829 182.01 466 181.997 465.818 181.997 465.635 182.01 465.454L182.184 463.874C182.332 462.52 182.617 460.548 183.013 458.125 184.071 451.815 185.492 445.566 187.271 439.406 189.052 433.245 191.192 427.186 193.683 421.257 194.636 418.989 195.453 417.159 196.059 415.924 196.344 415.342 196.579 414.867 196.752 414.487 196.816 414.316 196.899 414.153 197 414Z" fill="#263238" fill-rule="evenodd"/><path d="M176.748 491C165.381 484.892 158.648 473.414 158.045 460.811 157.61 451.995 160.398 443.354 163.559 435.077 163.745 434.322 164.198 433.654 164.838 433.19 165.887 432.82 167.056 432.997 167.939 433.659 176.205 438.231 181.213 446.942 183.867 455.805 185.778 461.688 186.415 467.891 185.738 474.024 184.698 480.467 181.545 486.414 176.748 490.977" fill="#455A64" fill-rule="evenodd"/><path d="M176.768 491C176.741 490.824 176.741 490.644 176.768 490.468 176.768 490.054 176.768 489.545 176.768 488.93 176.768 487.594 176.768 485.655 176.603 483.277 176.288 477.077 175.606 470.9 174.559 464.781 173.383 457.603 171.832 451.181 170.739 446.533 170.199 444.263 169.752 442.406 169.423 441.034 169.282 440.431 169.176 439.934 169.082 439.532 169.028 439.359 169 439.181 169 439 169.071 439.166 169.13 439.335 169.176 439.509L169.611 440.987C169.975 442.276 170.481 444.133 171.068 446.451 172.243 451.075 173.795 457.496 175.029 464.698 176.097 470.835 176.741 477.039 176.956 483.266 177.015 485.631 177.015 487.594 176.956 488.93 176.956 489.545 176.956 490.054 176.885 490.468 176.867 490.649 176.827 490.827 176.768 491Z" fill="#263238" fill-rule="evenodd"/><path d="M176.748 491C165.381 484.892 158.648 473.414 158.045 460.811 157.61 451.995 160.398 443.354 163.559 435.077 163.745 434.322 164.198 433.654 164.838 433.19 165.887 432.82 167.056 432.997 167.939 433.659 176.205 438.231 181.213 446.942 183.867 455.805 185.778 461.688 186.415 467.891 185.738 474.024 184.698 480.467 181.545 486.414 176.748 490.977" fill-rule="evenodd"/><path d="M189 558.957C200.161 561.413 209.347 569.496 220.123 573.402 227.251 575.981 235.305 576.903 241 582 239.628 578.487 236.389 576.153 233.246 574.139 224.38 568.492 214.917 563.886 205.037 560.406 199.968 558.613 194.478 557.126 189.313 558.6" fill="#455A64" fill-rule="evenodd"/><path d="M173 569C159.226 568.783 144.715 557.494 131 556.82 145.356 552.353 165.905 555.997 173 569" fill="#455A64" fill-rule="evenodd"/><path d="M179 535.67C186.064 533.169 193.835 533.051 201.258 534.184 208.681 535.316 215.865 537.723 223 540 222.281 535.281 218.371 531.671 214.689 528.509 212.001 526.038 209.077 523.826 205.959 521.903 202.824 519.977 199.197 518.971 195.501 519.001 191.017 519.29 186.844 521.359 183.941 524.734 181.132 527.756 179.397 531.594 179 535.67" fill="#455A64" fill-rule="evenodd"/><path d="M150.527 520.722C141.774 513.145 128.519 513.886 117 514.153 135.488 523.086 152.924 534.105 168.979 547 169.458 538.755 161.651 530.328 150.527 520.722Z" fill="#455A64" fill-rule="evenodd"/><path d="M150.527 520.722C141.774 513.145 128.519 513.886 117 514.153 135.488 523.086 152.924 534.105 168.979 547 169.458 538.755 161.651 530.328 150.527 520.722Z" fill-rule="evenodd"/><path d="M183.046 510.988C187.284 508.019 191.749 505.395 196.4 503.143 200.958 501.055 205.219 497.708 209.634 495.297 215.356 492.166 220.317 487.811 225.563 483.937 230.81 480.062 236.579 476.547 243 475.539 237.712 474.584 232.276 474.901 227.13 476.463 222.005 478.027 217.009 479.992 212.186 482.341 205.421 485.424 198.536 488.579 193.005 493.582 187.474 498.584 182.465 503.514 183.046 511" fill="#455A64" fill-rule="evenodd"/><path d="M220 569C219.844 568.961 219.695 568.9 219.559 568.818L218.366 568.228C217.316 567.694 215.825 566.911 213.94 566.013 212.998 565.536 211.972 565.048 210.839 564.548 209.706 564.049 208.525 563.504 207.26 562.981 204.5 561.814 201.639 560.875 198.708 560.176 195.809 559.412 192.757 559.338 189.821 559.96 188.538 560.224 187.277 560.581 186.052 561.028 185 561.416 183.987 561.891 183.022 562.447 181.617 563.292 180.33 564.303 179.193 565.457 178.394 566.274 178 566.774 178 566.74 178.069 566.604 178.153 566.474 178.25 566.354 178.429 566.116 178.704 565.763 179.086 565.332 180.183 564.112 181.456 563.046 182.867 562.164 183.836 561.553 184.862 561.028 185.932 560.596 187.17 560.118 188.446 559.739 189.749 559.461 192.751 558.793 195.88 558.852 198.851 559.631 201.804 560.347 204.683 561.316 207.451 562.527 208.74 563.072 209.944 563.606 211.03 564.14 212.115 564.673 213.189 565.173 214.107 565.661 215.98 566.604 217.447 567.433 218.473 568.012L219.666 568.682C219.788 568.779 219.899 568.884 220 569Z" fill="#263238" fill-rule="evenodd"/><path d="M163.001 562C163.301 562.041 163.593 562.129 163.869 562.26 164.637 562.549 165.387 562.888 166.115 563.275 170.977 565.837 174.992 569.853 177.645 574.807 178.043 575.552 178.4 576.321 178.715 577.109 178.853 577.389 178.949 577.689 179 578 178.917 578 178.406 576.824 177.348 574.993 174.568 570.224 170.638 566.295 165.949 563.596 164.154 562.594 162.965 562.099 163.001 562Z" fill="#263238" fill-rule="evenodd"/><path d="M133 520C133.198 520.043 133.391 520.104 133.579 520.179L135.221 520.764 137.82 521.731C138.836 522.112 139.934 522.673 141.175 523.222 147.609 526.237 153.616 530.106 159.036 534.727 161.973 537.299 164.735 540.066 167.306 543.01 169.403 545.427 171.375 547.953 173.212 550.577 174.784 552.82 175.965 554.682 176.756 555.971L177.701 557.463C177.914 557.797 178.02 557.988 177.997 558 177.855 557.854 177.728 557.695 177.619 557.523 177.371 557.2 177.028 556.711 176.603 556.079 175.74 554.825 174.512 552.987 172.905 550.78 171.299 548.572 169.302 546.006 166.94 543.308 164.356 540.399 161.594 537.657 158.67 535.097 153.269 530.507 147.315 526.626 140.95 523.545 139.769 522.972 138.588 522.351 137.631 521.993L135.079 520.943 133.461 520.274C133.299 520.197 133.145 520.105 133 520Z" fill="#263238" fill-rule="evenodd"/><path d="M200 528.039C199.624 528.026 199.251 527.976 198.884 527.892L197.586 527.647C197.077 527.549 196.494 527.549 195.851 527.475 190.618 526.998 185.448 528.92 181.767 532.713 180.696 533.783 179.748 534.973 178.941 536.258 178.201 537.455 177.552 538.705 177 540 177.042 539.617 177.136 539.241 177.279 538.884 177.642 537.905 178.097 536.965 178.638 536.074 179.416 534.734 180.357 533.497 181.44 532.394 182.74 531.003 184.262 529.843 185.94 528.959 188.999 527.352 192.464 526.712 195.888 527.119 196.531 527.217 197.101 527.242 197.635 527.365L198.92 527.696C199.294 527.762 199.657 527.877 200 528.039Z" fill="#263238" fill-rule="evenodd"/><path d="M213 485C212.841 485.13 212.665 485.237 212.478 485.322L210.947 486.168C209.606 486.883 207.683 487.955 205.345 489.337 203.006 490.719 200.276 492.458 197.357 494.555 194.193 496.789 191.231 499.297 188.502 502.05 187.082 503.469 185.857 505.071 184.859 506.815 183.957 508.555 183.09 510.235 182.295 511.843 180.854 514.669 179.558 517.569 178.414 520.529 177.667 522.542 177.045 524.599 176.55 526.689 176.194 528.166 176.064 529 176.016 529 175.995 528.794 175.995 528.587 176.016 528.38 176.016 527.987 176.147 527.392 176.301 526.653 176.723 524.533 177.298 522.446 178.022 520.41 179.102 517.397 180.354 514.449 181.773 511.581 182.556 509.949 183.41 508.257 184.312 506.517 185.329 504.738 186.579 503.103 188.028 501.656 190.8 498.88 193.815 496.36 197.036 494.126 199.98 492.053 202.757 490.35 205.107 488.991 207.457 487.633 209.428 486.609 210.792 485.941L212.383 485.191C212.582 485.11 212.789 485.047 213 485Z" fill="#263238" fill-rule="evenodd"/><path d="M174.997 527C174.862 526.612 174.772 526.208 174.73 525.798 174.568 524.944 174.37 523.862 174.138 522.575 173.487 519.056 172.638 515.58 171.596 512.163 170.503 508.738 169.216 505.381 167.741 502.112L166.429 499.13C166.24 498.774 166.096 498.394 166 498 166.224 498.328 166.422 498.673 166.592 499.034 166.952 499.719 167.451 500.717 168.043 501.968 169.615 505.207 170.954 508.562 172.049 512.007 173.113 515.461 173.924 518.995 174.475 522.575 174.684 523.946 174.835 525.064 174.916 525.834 174.982 526.219 175.009 526.609 174.997 527Z" fill="#263238" fill-rule="evenodd"/><path d="M173.913 495.603C173.479 490.399 171.942 485.343 169.404 480.768 162.504 468.019 150.275 458.952 136 456L167.018 501.819 171.026 510C173.627 505.56 174.259 500.801 173.913 495.603Z" fill="#455A64" fill-rule="evenodd"/><path d="M146 586 218 586 218 599 146 599Z" fill="#B9D0E9" fill-rule="evenodd"/><path d="M152 597 158.105 636 205.72 636 213 597 152 597Z" fill="#B9D0E9" fill-rule="evenodd"/><path d="M218 599.5C218 599.786 201.882 600 182 600 162.118 600 146 599.786 146 599.5 146 599.214 162.106 599 182 599 201.894 599 218 599.214 218 599.5Z" fill="#263238" fill-rule="evenodd"/><path d="M529.004 540.508 240.829 555.99C236.751 556.2 233.271 553.069 233.047 548.988L213.011 175.281C212.794 171.197 215.927 167.71 220.007 167.492L508.17 152.011C512.25 151.794 515.734 154.929 515.952 159.013L535.988 532.72C536.217 536.791 533.105 540.277 529.037 540.506 529.026 540.507 529.015 540.508 529.004 540.508Z" fill="#B9D0E9" fill-rule="evenodd"/><path d="M523.784 540.491 253.799 554.99C250.206 555.185 247.134 552.431 246.938 548.836 246.938 548.834 246.938 548.831 246.938 548.829L227.01 177.375C226.815 173.78 229.569 170.708 233.162 170.512 233.164 170.512 233.167 170.512 233.169 170.512L503.165 156.012C506.765 155.796 509.856 158.54 510.072 162.14 510.073 162.151 510.073 162.162 510.074 162.173L529.99 533.639C530.184 537.228 527.434 540.293 523.847 540.487 523.826 540.488 523.805 540.489 523.784 540.491Z" fill="#E0E0E0" fill-rule="evenodd"/><path d="M514.84 540.537 244.803 554.99C241.217 555.191 238.145 552.453 237.943 548.874 237.943 548.863 237.942 548.854 237.942 548.843L218.011 178.308C217.802 174.716 220.551 171.636 224.151 171.427 224.157 171.427 224.164 171.426 224.171 171.426L494.196 157.009C497.777 156.82 500.84 159.548 501.058 163.12L520.988 533.656C521.203 537.24 518.466 540.32 514.873 540.535 514.863 540.536 514.851 540.536 514.84 540.537Z" fill="#FFFFFF" fill-rule="evenodd"/><path d="M514.814 541.237 515.028 541.237C515.17 541.237 515.384 541.237 515.657 541.154 516.508 541.001 517.317 540.672 518.033 540.189 519.203 539.408 520.093 538.273 520.575 536.949 521.216 535.365 520.824 533.376 520.765 531.173 520.278 522.348 519.577 509.319 518.639 492.562 516.821 459.012 514.184 410.479 510.942 350.513 509.314 320.525 507.544 287.677 505.644 252.412 504.702 234.786 503.723 216.572 502.71 197.77 502.203 188.37 501.692 178.842 501.177 169.187 501.035 166.805 500.94 164.328 500.75 161.946 500.408 159.577 498.748 157.612 496.474 156.884 495.312 156.576 494.1 156.503 492.91 156.67L489.228 156.86 481.839 157.265 224.517 171.093C221.709 171.249 219.351 173.267 218.756 176.023 218.618 176.701 218.583 177.395 218.649 178.084L218.768 180.215 218.993 184.479C219.302 190.172 219.608 195.841 219.908 201.486 220.51 212.785 221.108 224.008 221.702 235.155 222.905 257.435 224.093 279.376 225.265 300.981 227.57 344.13 229.791 385.755 231.917 425.414 234.043 465.074 236.027 502.744 237.856 538.009 237.963 540.213 238.082 542.404 238.201 544.595L238.379 547.859C238.371 548.928 238.486 549.995 238.724 551.039 239.335 553.066 240.926 554.646 242.952 555.243 243.958 555.513 245.008 555.582 246.041 555.445L249.236 555.278 274.181 553.945 321.196 551.432 462.87 543.917 501.391 541.892 511.405 541.392C513.662 541.273 514.826 541.237 514.826 541.237L511.405 541.451 501.391 542.023 462.881 544.155 321.196 551.86 274.252 554.409 249.307 555.755 246.124 555.934C245.031 556.069 243.923 555.997 242.857 555.719 240.667 555.074 238.95 553.362 238.296 551.17 238.036 550.093 237.909 548.99 237.916 547.883L237.738 544.607C237.619 542.428 237.5 540.225 237.381 538.021 235.493 502.756 233.461 465.086 231.335 425.426 229.209 385.766 226.976 344.154 224.66 300.993 223.495 279.42 222.308 257.482 221.096 235.179 220.487 224.064 219.884 212.84 219.29 201.51 218.982 195.857 218.676 190.188 218.376 184.503L218.15 180.275 218.031 178.131C217.965 177.395 218.004 176.653 218.15 175.928 218.796 172.888 221.398 170.66 224.493 170.497L481.78 156.682 489.18 156.289 492.851 156.086C494.102 155.915 495.375 156 496.592 156.336 499.075 157.13 500.888 159.276 501.261 161.862 501.451 164.34 501.534 166.722 501.676 169.151 502.199 178.814 502.71 188.342 503.209 197.735 504.207 216.528 505.177 234.747 506.119 252.389 507.984 287.654 509.682 320.501 511.322 350.49 514.493 410.455 517.059 459 518.829 492.538 519.708 509.307 520.385 522.312 520.836 531.173 520.896 533.353 521.276 535.365 520.623 536.985 520.131 538.324 519.217 539.465 518.021 540.236 517.306 540.716 516.495 541.038 515.646 541.177 515.37 541.217 515.092 541.237 514.814 541.237Z" fill="#263238" fill-rule="evenodd"/><path d="M240 200.5C240 203.538 237.314 206 234 206 230.686 206 228 203.538 228 200.5 228 197.463 230.686 195 234 195 237.314 195 240 197.463 240 200.5Z" fill="#263238" fill-rule="evenodd"/><path d="M235.148 196.24C235.647 196.213 236.051 196.192 236.051 196.192L236.216 199.279C236.216 199.279 235.812 199.3 235.314 199.327L203.317 201.043C202.818 201.07 202.414 201.092 202.414 201.092L202.249 198.005C202.249 198.005 202.653 197.983 203.151 197.956Z" fill="#E0E0E0" fill-rule="evenodd"/><path d="M235.117 199.143C235.34 199.087 235.542 198.969 235.695 198.805 235.864 198.588 235.92 198.31 235.849 198.048 235.849 197.721 235.849 197.315 235.754 196.92 235.637 196.498 235.184 196.247 234.743 196.359 234.734 196.362 234.725 196.364 234.715 196.367L232.92 196.48 228.538 196.751 203.228 198.139C203.025 198.15 202.842 198.261 202.744 198.432 202.698 198.52 202.674 198.616 202.673 198.714L202.673 199.154 202.673 200.001C202.698 200.195 202.828 200.362 203.016 200.441 203.114 200.459 203.213 200.459 203.311 200.441L203.76 200.441 204.657 200.441 206.429 200.351 213.161 200.023 224.57 199.504 232.258 199.2 234.361 199.143C234.604 199.12 234.85 199.12 235.093 199.143 234.854 199.204 234.608 199.238 234.361 199.245L232.27 199.403 224.594 199.888 213.196 200.543 206.453 200.904 204.693 200.994 203.795 200.994 203.346 200.994C203.148 201.014 202.948 200.983 202.768 200.904 202.383 200.747 202.113 200.408 202.059 200.012L202 199.109 202 198.669C202.001 198.469 202.05 198.273 202.142 198.094 202.337 197.733 202.72 197.5 203.146 197.484L228.515 196.265 232.896 196.085 234.691 196.017C234.984 195.97 235.284 196.022 235.542 196.164 235.776 196.311 235.939 196.543 235.991 196.807 235.991 197.27 235.991 197.631 235.991 197.936 236.031 198.238 235.941 198.544 235.743 198.782 235.424 199.234 235.117 199.143 235.117 199.143Z" fill="#263238" fill-rule="evenodd"/><path d="M235.272 201.897C235.771 201.87 236.175 201.849 236.175 201.849L236.34 204.936C236.34 204.936 235.936 204.957 235.438 204.984L203.441 206.7C202.942 206.727 202.538 206.749 202.538 206.749L202.373 203.662C202.373 203.662 202.777 203.64 203.275 203.613Z" fill="#E0E0E0" fill-rule="evenodd"/><path d="M235.11 205.081C235.331 205.019 235.532 204.901 235.689 204.74 235.858 204.523 235.913 204.243 235.842 203.98 235.842 203.651 235.842 203.231 235.748 202.846 235.631 202.421 235.177 202.169 234.737 202.282 234.727 202.284 234.718 202.287 234.708 202.29L232.913 202.414 228.531 202.687 203.171 204.071C202.962 204.086 202.775 204.2 202.675 204.377 202.625 204.464 202.605 204.563 202.616 204.661L202.616 205.092 202.616 205.943C202.641 206.138 202.771 206.306 202.958 206.386 203.054 206.414 203.158 206.414 203.254 206.386L203.702 206.386 204.6 206.386 206.372 206.295 213.105 205.966 224.515 205.444 232.204 205.138 234.307 205.138C234.55 205.106 234.796 205.106 235.039 205.138 234.799 205.192 234.554 205.223 234.307 205.228L232.216 205.398 224.538 205.886 213.14 206.533 206.396 206.896 204.636 206.998 203.738 206.998 203.289 206.998C203.091 207.008 202.892 206.973 202.71 206.896 202.325 206.739 202.056 206.398 202.002 206L202.002 205.103 202.002 204.661C201.991 204.46 202.036 204.26 202.131 204.082 202.332 203.723 202.711 203.488 203.135 203.458L228.507 202.267 232.889 202.085 234.685 202.017C234.978 201.97 235.278 202.022 235.535 202.165 235.769 202.309 235.931 202.538 235.984 202.8 235.984 203.265 235.984 203.64 235.984 203.935 236.04 204.237 235.949 204.546 235.736 204.774 235.417 205.172 235.086 205.081 235.11 205.081Z" fill="#263238" fill-rule="evenodd"/><path d="M240.989 222.634C241.19 225.942 238.673 228.787 235.365 228.989 232.058 229.191 229.213 226.674 229.011 223.365 228.809 220.058 231.326 217.213 234.635 217.011 234.665 217.01 234.695 217.008 234.725 217.006 237.999 216.856 240.788 219.362 240.989 222.634Z" fill="#263238" fill-rule="evenodd"/><path d="M235.976 218.826C236.474 218.799 236.878 218.777 236.878 218.777L237.044 221.864C237.044 221.864 236.64 221.886 236.141 221.913L204.144 223.629C203.646 223.656 203.242 223.677 203.242 223.677L203.076 220.59C203.076 220.59 203.48 220.569 203.979 220.542Z" fill="#E0E0E0" fill-rule="evenodd"/><path d="M236.114 222.089C236.337 222.027 236.538 221.905 236.692 221.739 236.86 221.527 236.917 221.251 236.846 220.994 236.846 220.666 236.846 220.248 236.752 219.864 236.635 219.442 236.181 219.191 235.741 219.303 235.731 219.305 235.722 219.309 235.712 219.311L233.917 219.435 229.536 219.695 204.169 221.084C203.963 221.095 203.777 221.212 203.685 221.389 203.637 221.476 203.612 221.573 203.614 221.671L203.614 222.101 203.614 222.948C203.639 223.142 203.769 223.309 203.957 223.388 204.053 223.412 204.155 223.412 204.252 223.388L204.701 223.388 205.598 223.388 207.37 223.298 214.101 222.97 225.509 222.451 233.197 222.146 235.299 222.146C235.542 222.115 235.788 222.115 236.031 222.146 235.789 222.191 235.545 222.222 235.299 222.236L233.209 222.406 225.533 222.891 214.136 223.535 207.393 223.897 205.634 223.998 204.736 223.998 204.287 223.998C204.089 224.009 203.89 223.973 203.709 223.897 203.324 223.74 203.054 223.401 203 223.004L203 222.112 203 221.66C202.999 221.464 203.047 221.271 203.142 221.095 203.334 220.729 203.718 220.492 204.146 220.474L229.512 219.266 233.894 219.085 235.689 219.017C235.982 218.97 236.282 219.022 236.539 219.164 236.773 219.307 236.935 219.536 236.988 219.796 236.988 220.26 236.988 220.621 236.988 220.926 237.035 221.225 236.945 221.53 236.74 221.762 236.468 222.18 236.09 222.089 236.114 222.089Z" fill="#263238" fill-rule="evenodd"/><path d="M236.087 224.459C236.586 224.432 236.99 224.411 236.99 224.411L237.155 227.498C237.155 227.498 236.751 227.519 236.253 227.546L204.256 229.262C203.757 229.289 203.353 229.31 203.353 229.31L203.188 226.224C203.188 226.224 203.592 226.202 204.09 226.175Z" fill="#E0E0E0" fill-rule="evenodd"/><path d="M236.11 227.683C236.334 227.615 236.536 227.473 236.69 227.273 236.86 227.011 236.917 226.673 236.844 226.358 236.844 225.961 236.844 225.469 236.749 224.991 236.632 224.48 236.177 224.176 235.736 224.312 235.727 224.315 235.717 224.319 235.708 224.321L233.909 224.458 229.519 224.786 204.114 226.467C203.902 226.477 203.712 226.617 203.617 226.836 203.587 226.943 203.587 227.057 203.617 227.164L203.617 227.697 203.617 228.722C203.642 228.957 203.772 229.159 203.96 229.255 204.058 229.277 204.158 229.277 204.256 229.255L204.705 229.255 205.605 229.255 207.38 229.145 214.124 228.749 225.555 228.121 233.258 227.752 235.365 227.752C235.608 227.723 235.854 227.723 236.098 227.752 235.859 227.827 235.613 227.868 235.365 227.875L233.282 228.066 225.579 228.654 214.16 229.446 207.415 229.883 205.64 229.993 204.741 229.993 204.291 229.993C204.093 230.017 203.893 229.979 203.712 229.883 203.326 229.693 203.056 229.284 203.002 228.804L203.002 227.711 203.002 227.178C202.991 226.936 203.036 226.695 203.132 226.481 203.327 226.043 203.712 225.762 204.137 225.743L229.495 224.321 233.885 224.103 235.684 224.021C235.977 223.963 236.278 224.026 236.536 224.198 236.77 224.377 236.934 224.658 236.986 224.977 236.986 225.538 236.986 225.975 236.986 226.344 237.038 226.712 236.948 227.086 236.737 227.369 236.586 227.586 236.351 227.704 236.11 227.683Z" fill="#263238" fill-rule="evenodd"/><path d="M242 247C242 250.314 239.538 253 236.5 253 233.462 253 231 250.314 231 247 231 243.686 233.462 241 236.5 241 239.538 241 242 243.686 242 247Z" fill="#263238" fill-rule="evenodd"/><path d="M237.258 242.788C237.756 242.761 238.16 242.739 238.16 242.739L238.326 245.826C238.326 245.826 237.922 245.848 237.423 245.875L205.426 247.591C204.928 247.617 204.524 247.639 204.524 247.639L204.358 244.552C204.358 244.552 204.762 244.53 205.261 244.504Z" fill="#E0E0E0" fill-rule="evenodd"/><path d="M237.052 246.035C237.275 245.973 237.476 245.851 237.63 245.686 237.798 245.469 237.858 245.193 237.796 244.93 237.796 244.614 237.796 244.196 237.689 243.802 237.572 243.38 237.119 243.129 236.678 243.241 236.669 243.243 236.659 243.247 236.65 243.249L234.854 243.373 230.472 243.632 205.111 245.043C204.9 245.05 204.71 245.167 204.615 245.347 204.586 245.435 204.586 245.53 204.615 245.618L204.615 246.058 204.615 246.904C204.64 247.098 204.77 247.265 204.958 247.344 205.055 247.368 205.156 247.368 205.253 247.344L205.702 247.344 206.6 247.344 208.372 247.254 215.104 246.927 226.515 246.408 234.205 246.103 236.307 246.103C236.551 246.071 236.796 246.071 237.04 246.103 236.799 246.15 236.553 246.18 236.307 246.193L234.228 246.351 226.539 246.848 215.14 247.491 208.407 247.852 206.635 247.942 205.737 247.998 205.289 247.998C205.09 248.009 204.892 247.974 204.71 247.897 204.325 247.74 204.055 247.402 204.001 247.006L204.001 246.114 204.001 245.663C203.993 245.468 204.038 245.273 204.131 245.099 204.323 244.733 204.707 244.497 205.135 244.478L230.508 243.271 234.89 243.08 236.685 243.012C236.979 242.974 237.278 243.029 237.536 243.17 237.772 243.31 237.936 243.54 237.985 243.802 237.985 244.264 237.985 244.625 237.985 244.93 238.039 245.23 237.947 245.537 237.737 245.765 237.311 246.171 237.028 246.035 237.052 246.035Z" fill="#263238" fill-rule="evenodd"/><path d="M237.393 248.432C237.891 248.405 238.295 248.384 238.295 248.384L238.461 251.471C238.461 251.471 238.057 251.492 237.559 251.519L205.561 253.235C205.063 253.262 204.659 253.284 204.659 253.284L204.494 250.197C204.494 250.197 204.898 250.175 205.396 250.148Z" fill="#E0E0E0" fill-rule="evenodd"/><path d="M237.113 251.105C237.341 251.049 237.547 250.928 237.705 250.759 237.862 250.533 237.918 250.254 237.859 249.987 237.859 249.653 237.859 249.238 237.752 248.835 237.635 248.404 237.18 248.148 236.739 248.262 236.729 248.265 236.72 248.268 236.71 248.27L234.911 248.385 230.519 248.662 205.101 250.079C204.894 250.09 204.706 250.202 204.604 250.379 204.581 250.473 204.581 250.572 204.604 250.667L204.604 251.116 204.604 251.98C204.633 252.177 204.762 252.345 204.947 252.429 205.049 252.449 205.153 252.449 205.255 252.429L205.705 252.429 206.593 252.429 208.368 252.337 215.117 252.003 226.553 251.473 234.271 251.162 236.367 251.105C236.611 251.08 236.857 251.08 237.101 251.105 236.862 251.168 236.616 251.202 236.367 251.208L234.283 251.369 226.576 251.865 215.152 252.533 208.404 252.902 206.628 252.994 205.728 252.994 205.279 252.994C205.08 253.015 204.88 252.983 204.698 252.902 204.317 252.739 204.052 252.394 204 251.992L204 251.07 204 250.621C204 249.985 204.53 249.469 205.184 249.469L230.613 248.224 234.887 248.086 236.698 248.017C236.988 247.97 237.286 248.023 237.539 248.167 237.773 248.317 237.937 248.554 237.989 248.823 237.989 249.296 237.989 249.664 237.989 249.975 238.033 250.283 237.947 250.594 237.752 250.84 237.596 251.024 237.358 251.122 237.113 251.105Z" fill="#263238" fill-rule="evenodd"/><path d="M243.988 270.623C244.197 273.93 241.684 276.78 238.377 276.988 235.07 277.197 232.22 274.684 232.012 271.377 231.803 268.071 234.316 265.221 237.623 265.012 237.652 265.011 237.682 265.008 237.712 265.007 240.987 264.85 243.782 267.351 243.988 270.623Z" fill="#263238" fill-rule="evenodd"/><path d="M238.552 266.761C239.05 266.734 239.454 266.712 239.454 266.712L239.619 269.799C239.619 269.799 239.216 269.821 238.717 269.848L206.72 271.564C206.222 271.591 205.818 271.612 205.818 271.612L205.652 268.525C205.652 268.525 206.056 268.504 206.554 268.477Z" fill="#E0E0E0" fill-rule="evenodd"/><path d="M239.134 270.092C239.369 270.043 239.582 269.923 239.741 269.754 239.911 269.535 239.968 269.26 239.9 268.998 239.9 268.671 239.839 268.265 239.79 267.871 239.678 267.453 239.222 267.2 238.772 267.304 238.755 267.308 238.737 267.312 238.72 267.318L236.872 267.431 232.361 267.702 206.254 269.089C205.925 269.101 205.669 269.358 205.682 269.663 205.682 269.663 205.682 269.664 205.682 269.664L205.682 270.104 205.682 270.95C205.712 271.142 205.845 271.307 206.035 271.389 206.138 271.414 206.247 271.414 206.351 271.389L206.813 271.389 207.725 271.389 209.549 271.299 216.48 270.972 228.226 270.453 236.154 270.149 238.307 270.149C238.557 270.13 238.81 270.13 239.061 270.149 238.815 270.211 238.562 270.245 238.307 270.25L236.167 270.408 228.251 270.904 216.516 271.547 209.585 271.908 207.761 271.998 206.837 271.998 206.375 271.998C206.171 272.009 205.966 271.974 205.779 271.897 205.388 271.738 205.115 271.4 205.062 271.006L205.001 270.115 205.001 269.664C204.993 269.469 205.039 269.274 205.135 269.1 205.333 268.735 205.728 268.498 206.168 268.48L232.288 267.262 236.799 267.081 238.659 267.014C238.958 266.972 239.264 267.027 239.523 267.171 239.766 267.311 239.935 267.541 239.985 267.803 239.985 268.265 239.985 268.626 239.985 268.931 240.038 269.232 239.951 269.54 239.741 269.777 239.45 270.228 239.109 270.092 239.134 270.092Z" fill="#263238" fill-rule="evenodd"/><path d="M238.675 272.394C239.173 272.367 239.577 272.346 239.577 272.346L239.743 275.432C239.743 275.432 239.339 275.454 238.84 275.481L206.843 277.197C206.345 277.224 205.941 277.245 205.941 277.245L205.775 274.158C205.775 274.158 206.179 274.137 206.678 274.11Z" fill="#E0E0E0" fill-rule="evenodd"/><path d="M239.051 275.079C239.28 275.029 239.486 274.908 239.641 274.737 239.802 274.516 239.859 274.237 239.794 273.972 239.794 273.641 239.794 273.23 239.688 272.831 239.579 272.408 239.137 272.152 238.7 272.258 238.684 272.261 238.666 272.266 238.65 272.272L236.857 272.386 232.481 272.66 207.156 274.064C206.952 274.073 206.768 274.186 206.672 274.36 206.62 274.446 206.596 274.546 206.601 274.646L206.601 275.079 206.601 275.947C206.628 276.14 206.758 276.305 206.944 276.381 207.039 276.424 207.145 276.445 207.25 276.438L207.698 276.438 208.595 276.438 210.352 276.346 217.076 276.015 228.47 275.479 236.161 275.182 238.249 275.125C238.492 275.1 238.737 275.1 238.98 275.125 238.745 275.188 238.504 275.222 238.26 275.228L236.173 275.388 228.494 275.878 217.111 276.54 210.388 276.906 208.619 276.997 207.734 276.997 207.274 276.997C207.077 277.011 206.879 276.979 206.696 276.906 206.316 276.745 206.052 276.402 206 276.004L206 275.091 206 274.646C206 274.016 206.528 273.504 207.18 273.504L232.516 272.272 236.904 272.089 238.697 272.02C238.986 271.967 239.284 272.02 239.534 272.169 239.766 272.316 239.927 272.545 239.983 272.808 239.983 273.287 239.983 273.653 239.983 273.949 240.04 274.254 239.953 274.568 239.747 274.805 239.583 275.012 239.317 275.117 239.051 275.079Z" fill="#263238" fill-rule="evenodd"/><path d="M245 295C245 298.314 242.314 301 239 301 235.686 301 233 298.314 233 295 233 291.686 235.686 289 239 289 242.314 289 245 291.686 245 295Z" fill="#263238" fill-rule="evenodd"/><path d="M239.833 290.734C240.332 290.708 240.736 290.686 240.736 290.686L240.901 293.773C240.901 293.773 240.497 293.795 239.999 293.821L208.002 295.538C207.504 295.564 207.1 295.586 207.1 295.586L206.934 292.499C206.934 292.499 207.338 292.477 207.836 292.451Z" fill="#E0E0E0" fill-rule="evenodd"/><path d="M240.002 294.126C240.231 294.076 240.438 293.955 240.593 293.784 240.757 293.563 240.812 293.285 240.746 293.02 240.746 292.69 240.746 292.28 240.64 291.881 240.531 291.459 240.089 291.203 239.651 291.309 239.635 291.312 239.617 291.317 239.601 291.322L237.805 291.436 233.423 291.71 208.065 293.111C207.857 293.121 207.671 293.239 207.58 293.419 207.528 293.501 207.504 293.597 207.509 293.693L207.509 294.137 207.509 294.992C207.539 295.187 207.668 295.353 207.852 295.436 207.952 295.461 208.059 295.461 208.159 295.436L208.608 295.436 209.506 295.436 211.265 295.345 218.01 295.015 229.408 294.49 237.108 294.183 239.199 294.126C239.442 294.109 239.688 294.109 239.931 294.126 239.696 294.188 239.454 294.223 239.211 294.228L237.12 294.388 229.431 294.878 218.033 295.539 211.301 295.903 209.529 295.995 208.643 295.995 208.194 295.995C207.992 296.014 207.789 295.982 207.604 295.903 207.273 295.728 207.049 295.41 207.002 295.049L207.002 294.148 207.002 293.693C206.991 293.491 207.036 293.29 207.131 293.111 207.326 292.747 207.71 292.512 208.135 292.496L233.506 291.265 237.9 291.083 239.695 291.015C239.986 290.97 240.282 291.027 240.534 291.174 240.77 291.316 240.934 291.548 240.983 291.812 240.983 292.28 240.983 292.644 240.983 292.952 241.04 293.256 240.953 293.57 240.746 293.807 240.309 294.217 239.99 294.137 240.002 294.126Z" fill="#263238" fill-rule="evenodd"/><path d="M239.957 296.368C240.455 296.341 240.859 296.319 240.859 296.319L241.025 299.406C241.025 299.406 240.621 299.428 240.122 299.455L208.125 301.171C207.627 301.197 207.223 301.219 207.223 301.219L207.057 298.132C207.057 298.132 207.461 298.111 207.96 298.084Z" fill="#E0E0E0" fill-rule="evenodd"/><path d="M240.049 299.145C240.278 299.095 240.485 298.975 240.639 298.806 240.801 298.587 240.858 298.311 240.793 298.049 240.793 297.722 240.793 297.315 240.687 296.92 240.572 296.504 240.126 296.256 239.691 296.365 239.676 296.369 239.662 296.373 239.647 296.378L237.852 296.491 233.482 296.762 208.158 298.14C207.953 298.146 207.768 298.259 207.674 298.433 207.627 298.52 207.603 298.617 207.603 298.716L207.603 299.145 207.603 300.003C207.634 300.193 207.763 300.354 207.946 300.432 208.046 300.462 208.152 300.462 208.253 300.432L208.701 300.432 209.599 300.432 211.359 300.353 218.103 300.026 229.513 299.495 237.202 299.201 239.293 299.145C239.536 299.12 239.782 299.12 240.025 299.145 239.79 299.207 239.548 299.241 239.305 299.246L237.214 299.405 229.537 299.89 218.127 300.534 211.394 300.907 209.623 300.997 208.737 300.997 208.288 300.997C208.086 301.011 207.884 300.979 207.698 300.907 207.317 300.747 207.053 300.409 207.001 300.014L207.001 299.111 207.001 298.67C206.994 298.469 207.042 298.271 207.142 298.095 207.336 297.736 207.714 297.504 208.135 297.485L233.517 296.265 237.899 296.084 239.695 296.016C239.988 295.97 240.288 296.022 240.545 296.163 240.771 296.312 240.927 296.539 240.982 296.796 240.982 297.27 240.982 297.631 240.982 297.925 241.041 298.223 240.954 298.532 240.746 298.761 240.403 299.213 240.049 299.145 240.049 299.145Z" fill="#263238" fill-rule="evenodd"/><path d="M245.989 318.634C246.19 321.942 243.673 324.787 240.365 324.989 237.058 325.191 234.213 322.674 234.011 319.365 233.809 316.058 236.326 313.213 239.635 313.011 239.665 313.01 239.695 313.008 239.725 313.006 242.999 312.856 245.788 315.362 245.989 318.634Z" fill="#263238" fill-rule="evenodd"/><path d="M241.115 314.696C241.613 314.67 242.017 314.648 242.017 314.648L242.183 317.735C242.183 317.735 241.779 317.757 241.28 317.783L209.283 319.499C208.785 319.526 208.381 319.548 208.381 319.548L208.215 316.461C208.215 316.461 208.619 316.439 209.118 316.412Z" fill="#E0E0E0" fill-rule="evenodd"/><path d="M241 318.087C241.229 318.037 241.435 317.918 241.59 317.748 241.754 317.529 241.809 317.254 241.743 316.992 241.743 316.665 241.743 316.258 241.637 315.863 241.528 315.445 241.086 315.191 240.65 315.296 240.633 315.3 240.616 315.304 240.599 315.31L238.806 315.423 234.443 315.694 209.156 317.082C208.95 317.094 208.765 317.21 208.673 317.387 208.626 317.471 208.602 317.563 208.602 317.658L208.602 318.098 208.602 318.945C208.632 319.138 208.76 319.303 208.944 319.385 209.046 319.402 209.149 319.402 209.251 319.385L209.699 319.385 210.595 319.385 212.353 319.295 219.087 318.967 230.48 318.448 238.158 318.143 240.245 318.143C240.488 318.119 240.733 318.119 240.976 318.143 240.742 318.205 240.5 318.239 240.257 318.245L238.17 318.403 230.503 318.888 219.111 319.543 212.388 319.904 210.619 319.995 209.734 319.995 209.286 319.995C209.085 320.014 208.882 319.982 208.697 319.904 208.317 319.745 208.053 319.407 208.001 319.013L208.001 318.109 208.001 317.669C207.994 317.468 208.042 317.27 208.142 317.094 208.336 316.736 208.713 316.503 209.133 316.484L234.478 315.265 238.854 315.084 240.646 315.017C240.939 314.97 241.238 315.022 241.495 315.163 241.723 315.315 241.88 315.546 241.932 315.807 241.932 316.27 241.932 316.631 241.991 316.936 242.031 317.238 241.941 317.544 241.743 317.782 241.58 318.015 241.289 318.134 241 318.087Z" fill="#263238" fill-rule="evenodd"/><path d="M241.239 320.341C241.737 320.315 242.141 320.293 242.141 320.293L242.307 323.38C242.307 323.38 241.903 323.402 241.404 323.428L209.407 325.144C208.909 325.171 208.505 325.193 208.505 325.193L208.339 322.106C208.339 322.106 208.743 322.084 209.242 322.057Z" fill="#E0E0E0" fill-rule="evenodd"/><path d="M241.101 323.077C241.33 323.027 241.537 322.908 241.692 322.738 241.861 322.521 241.916 322.242 241.845 321.982 241.845 321.654 241.845 321.236 241.751 320.852 241.629 320.431 241.175 320.185 240.734 320.3 240.722 320.303 240.711 320.307 240.7 320.31L238.904 320.423 234.533 320.694 209.158 322.072C208.953 322.088 208.771 322.203 208.674 322.377 208.627 322.464 208.603 322.561 208.603 322.659L208.603 323.088 208.603 323.947C208.64 324.136 208.773 324.297 208.958 324.376 209.053 324.404 209.157 324.404 209.253 324.376L209.702 324.376 210.6 324.376 212.372 324.297 219.105 323.958 230.517 323.438 238.207 323.145 240.298 323.145C240.541 323.113 240.787 323.113 241.03 323.145 240.795 323.206 240.553 323.236 240.31 323.235L238.219 323.405 230.54 323.89 219.129 324.534 212.395 324.895 210.635 324.997 209.737 324.997 209.288 324.997C209.091 325.011 208.893 324.98 208.709 324.907 208.324 324.75 208.055 324.411 208.001 324.014L208.001 323.111 208.001 322.67C207.994 322.469 208.042 322.271 208.142 322.095 208.335 321.729 208.719 321.491 209.146 321.473L234.521 320.265 238.904 320.084 240.7 320.016C240.993 319.97 241.293 320.022 241.55 320.163 241.782 320.307 241.94 320.536 241.987 320.796 241.987 321.259 241.987 321.632 241.987 321.925 242.036 322.225 241.946 322.53 241.739 322.761 241.408 323.167 241.089 323.077 241.101 323.077Z" fill="#263238" fill-rule="evenodd"/><path d="M247.989 342.634C248.19 345.942 245.673 348.787 242.365 348.989 239.058 349.191 236.213 346.674 236.011 343.365 235.809 340.058 238.326 337.213 241.635 337.011 241.665 337.009 241.695 337.008 241.725 337.006 244.999 336.856 247.788 339.362 247.989 342.634Z" fill="#263238" fill-rule="evenodd"/><path d="M242.397 338.658C242.895 338.631 243.299 338.61 243.299 338.61L243.464 341.697C243.464 341.697 243.061 341.718 242.562 341.745L210.565 343.461C210.067 343.488 209.663 343.51 209.663 343.51L209.497 340.423C209.497 340.423 209.901 340.401 210.4 340.374Z" fill="#E0E0E0" fill-rule="evenodd"/><path d="M242.116 341.718C242.346 341.658 242.552 341.515 242.707 341.311 242.876 341.051 242.932 340.717 242.861 340.404 242.861 340.011 242.861 339.524 242.766 339.05 242.642 338.538 242.18 338.238 241.734 338.379 241.728 338.382 241.721 338.383 241.715 338.386L239.919 338.522 235.548 338.847 210.17 340.512C209.967 340.526 209.784 340.659 209.686 340.864 209.64 340.97 209.616 341.085 209.615 341.203L209.615 341.731 209.615 342.747C209.636 342.978 209.769 343.176 209.958 343.262 210.054 343.29 210.156 343.29 210.253 343.262L210.702 343.262 211.6 343.262 213.372 343.153 220.106 342.76 231.519 342.124 239.21 341.772 241.301 341.772C241.545 341.742 241.79 341.742 242.034 341.772 241.799 341.848 241.556 341.888 241.313 341.894L239.222 342.083 231.543 342.666 220.13 343.451 213.396 343.884 211.635 343.993 210.737 343.993 210.288 343.993C210.09 344.017 209.89 343.979 209.71 343.884 209.324 343.696 209.055 343.29 209.001 342.815L209.001 341.731 209.001 341.203C208.994 340.962 209.042 340.724 209.142 340.512 209.337 340.079 209.721 339.8 210.147 339.781L235.524 338.318 239.907 338.102 241.703 338.02C241.996 337.964 242.296 338.026 242.554 338.196 242.783 338.371 242.941 338.645 242.991 338.955 242.991 339.524 242.991 339.957 242.991 340.309 243.031 340.672 242.941 341.039 242.743 341.325 242.606 341.57 242.37 341.718 242.116 341.718Z" fill="#263238" fill-rule="evenodd"/><path d="M242.521 344.303C243.019 344.276 243.423 344.255 243.423 344.255L243.588 347.342C243.588 347.342 243.184 347.363 242.686 347.39L210.689 349.106C210.191 349.133 209.787 349.155 209.787 349.155L209.621 346.068C209.621 346.068 210.025 346.046 210.523 346.019Z" fill="#E0E0E0" fill-rule="evenodd"/><path d="M243.024 347.089C243.254 347.027 243.46 346.905 243.62 346.739 243.795 346.527 243.853 346.251 243.778 345.994 243.778 345.666 243.778 345.248 243.681 344.864 243.56 344.442 243.093 344.191 242.64 344.303 242.63 344.305 242.62 344.309 242.611 344.311L240.763 344.435 236.253 344.695 210.143 346.084C209.931 346.1 209.744 346.215 209.644 346.389 209.596 346.476 209.571 346.573 209.571 346.672L209.571 347.101 209.632 347.948C209.658 348.142 209.791 348.309 209.985 348.388 210.084 348.412 210.189 348.412 210.289 348.388L210.75 348.388 211.674 348.388 213.498 348.298 220.427 347.97 232.169 347.451 240.082 347.146 242.246 347.146C242.496 347.115 242.749 347.115 243 347.146 242.753 347.2 242.5 347.231 242.246 347.236L240.095 347.406 232.193 347.891 220.463 348.535 213.522 348.897 211.711 348.998 210.787 348.998 210.325 348.998C210.121 349.008 209.917 348.973 209.729 348.897 209.333 348.74 209.056 348.401 209 348.004L209 347.112 209 346.672C208.998 346.472 209.049 346.274 209.146 346.095 209.344 345.729 209.739 345.492 210.179 345.474L236.29 344.266 240.8 344.085 242.647 344.017C242.949 343.97 243.257 344.022 243.523 344.164 243.763 344.307 243.93 344.536 243.984 344.797 243.984 345.26 243.984 345.632 243.984 345.926 244.04 346.226 243.945 346.534 243.729 346.762 243.34 347.18 243 347.089 243.024 347.089Z" fill="#263238" fill-rule="evenodd"/><path d="M248.989 366.634C249.19 369.942 246.673 372.787 243.365 372.989 240.058 373.191 237.213 370.674 237.011 367.365 236.809 364.058 239.326 361.213 242.635 361.011 242.665 361.009 242.695 361.008 242.725 361.006 245.999 360.856 248.788 363.362 248.989 366.634Z" fill="#263238" fill-rule="evenodd"/><path d="M243.69 362.632C244.189 362.605 244.593 362.583 244.593 362.583L244.758 365.67C244.758 365.67 244.354 365.692 243.856 365.719L211.859 367.435C211.361 367.462 210.956 367.483 210.956 367.483L210.791 364.396C210.791 364.396 211.195 364.375 211.693 364.348Z" fill="#E0E0E0" fill-rule="evenodd"/><path d="M244.112 365.706C244.335 365.639 244.537 365.498 244.69 365.3 244.859 365.04 244.915 364.705 244.844 364.392 244.844 363.999 244.844 363.511 244.75 363.037 244.627 362.533 244.17 362.239 243.73 362.38 243.723 362.382 243.717 362.384 243.71 362.386L241.915 362.522 237.534 362.847 212.181 364.514C211.974 364.526 211.786 364.659 211.685 364.866 211.638 364.971 211.614 365.087 211.614 365.205L211.614 365.72 211.614 366.75C211.635 366.981 211.768 367.179 211.956 367.265 212.052 367.298 212.156 367.298 212.252 367.265L212.701 367.265 213.598 367.265 215.369 367.156 222.1 366.763 233.508 366.126 241.195 365.774 243.297 365.774C243.54 365.746 243.786 365.746 244.029 365.774 243.791 365.849 243.545 365.889 243.297 365.896L241.207 366.086 233.531 366.668 222.136 367.454 215.393 367.888 213.633 367.996 212.736 367.996 212.287 367.996C212.09 368.013 211.892 367.976 211.709 367.888 211.324 367.699 211.054 367.293 211 366.817L211 365.733 211 365.205C210.999 364.965 211.048 364.728 211.142 364.514 211.337 364.08 211.72 363.801 212.145 363.782L237.511 362.319 241.892 362.102 243.687 362.021C243.98 361.964 244.28 362.026 244.537 362.197 244.768 362.371 244.93 362.644 244.986 362.956 244.986 363.525 244.986 363.958 244.986 364.311 245.038 364.675 244.948 365.046 244.738 365.327 244.6 365.568 244.363 365.712 244.112 365.706Z" fill="#263238" fill-rule="evenodd"/><path d="M243.814 368.276C244.313 368.25 244.717 368.228 244.717 368.228L244.882 371.315C244.882 371.315 244.478 371.337 243.98 371.363L211.983 373.079C211.485 373.106 211.081 373.128 211.081 373.128L210.915 370.041C210.915 370.041 211.319 370.019 211.817 369.992Z" fill="#E0E0E0" fill-rule="evenodd"/><path d="M243.993 371.044C244.217 370.982 244.418 370.86 244.572 370.694 244.74 370.481 244.8 370.208 244.738 369.949 244.738 369.621 244.738 369.203 244.631 368.819 244.491 368.433 244.066 368.212 243.651 368.311L241.855 368.435 237.473 368.695 212.111 370.084C211.9 370.092 211.71 370.208 211.615 370.389 211.586 370.481 211.586 370.58 211.615 370.671L211.615 371.101 211.615 371.948C211.64 372.142 211.77 372.309 211.958 372.388 212.055 372.412 212.156 372.412 212.253 372.388L212.702 372.388 213.6 372.388 215.372 372.298 222.105 371.97 233.516 371.451 241.218 371.146 243.308 371.146C243.552 371.114 243.797 371.114 244.041 371.146 243.8 371.192 243.554 371.223 243.308 371.236L241.229 371.406 233.539 371.891 222.14 372.535 215.407 372.897 213.635 372.998 212.737 372.998 212.289 372.998C212.09 373.009 211.892 372.973 211.71 372.897 211.325 372.74 211.055 372.401 211.001 372.004L211.001 371.112 211.001 370.66C210.993 370.465 211.038 370.269 211.131 370.095 211.323 369.729 211.707 369.492 212.135 369.474L237.508 368.266 241.891 368.085 243.686 368.017C243.979 367.97 244.279 368.022 244.537 368.164 244.771 368.307 244.933 368.536 244.986 368.796 244.986 369.26 244.986 369.621 244.986 369.926 245.037 370.224 244.95 370.529 244.75 370.762 244.301 371.135 243.97 371.044 243.993 371.044Z" fill="#263238" fill-rule="evenodd"/><path d="M249.989 390.634C250.19 393.942 247.673 396.787 244.365 396.989 241.058 397.191 238.213 394.674 238.011 391.365 237.809 388.058 240.326 385.213 243.635 385.011 243.665 385.009 243.695 385.008 243.725 385.006 246.999 384.856 249.79 387.362 249.989 390.634Z" fill="#263238" fill-rule="evenodd"/><path d="M244.984 386.605C245.483 386.578 245.886 386.557 245.886 386.557L246.052 389.644C246.052 389.644 245.648 389.665 245.15 389.692L213.153 391.408C212.654 391.435 212.25 391.456 212.25 391.456L212.085 388.37C212.085 388.37 212.489 388.348 212.987 388.321Z" fill="#E0E0E0" fill-rule="evenodd"/><path d="M245.051 389.76C245.279 389.695 245.484 389.552 245.642 389.353 245.799 389.088 245.854 388.76 245.795 388.445 245.795 388.052 245.736 387.565 245.689 387.09 245.574 386.592 245.128 386.293 244.693 386.425 244.678 386.429 244.664 386.434 244.649 386.44L242.854 386.575 238.472 386.901 213.112 388.567C212.903 388.574 212.714 388.708 212.616 388.92 212.592 389.031 212.592 389.147 212.616 389.258L212.616 389.773 212.616 390.803C212.642 391.032 212.773 391.229 212.958 391.318 213.054 391.352 213.158 391.352 213.254 391.318L213.714 391.318 214.6 391.318 216.372 391.223 223.105 390.83 234.515 390.194 242.216 389.841 244.307 389.773C244.55 389.745 244.796 389.745 245.039 389.773 244.801 389.847 244.554 389.883 244.307 389.882L242.228 390.085 234.538 390.668 223.14 391.44 216.407 391.887 214.636 391.996 213.738 391.996 213.289 391.996C213.092 392.013 212.893 391.975 212.71 391.887 212.325 391.699 212.056 391.292 212.002 390.817L212.002 389.733 212.002 389.204C211.991 388.964 212.036 388.726 212.131 388.513 212.326 388.08 212.71 387.8 213.135 387.781L238.507 386.318 242.89 386.101 244.697 386.02C244.986 385.964 245.283 386.027 245.535 386.196 245.767 386.371 245.929 386.643 245.984 386.955 245.984 387.524 245.984 387.958 245.984 388.31 246.039 388.668 245.951 389.035 245.748 389.313 245.358 389.868 245.027 389.76 245.051 389.76Z" fill="#263238" fill-rule="evenodd"/><path d="M245.096 392.25C245.595 392.223 245.999 392.202 245.999 392.202L246.164 395.289C246.164 395.289 245.76 395.31 245.262 395.337L213.265 397.053C212.766 397.08 212.362 397.101 212.362 397.101L212.197 394.015C212.197 394.015 212.601 393.993 213.099 393.966Z" fill="#E0E0E0" fill-rule="evenodd"/><path d="M245.1 395.057C245.329 395 245.534 394.878 245.69 394.708 245.855 394.489 245.91 394.213 245.844 393.952 245.844 393.636 245.785 393.218 245.738 392.823 245.629 392.406 245.186 392.152 244.749 392.257 244.732 392.26 244.715 392.265 244.698 392.27L242.903 392.394 238.52 392.654 213.159 394.042C212.84 394.054 212.59 394.312 212.603 394.616 212.603 394.616 212.603 394.617 212.603 394.617L212.603 395.057 212.603 395.904C212.633 396.097 212.762 396.262 212.946 396.344 213.046 396.369 213.153 396.369 213.253 396.344L213.702 396.344 214.588 396.344 216.36 396.254 223.093 395.926 234.504 395.407 242.206 395.103 244.296 395.103C244.54 395.071 244.786 395.071 245.029 395.103 244.788 395.149 244.542 395.179 244.296 395.193L242.217 395.351 234.528 395.847 223.128 396.491 216.395 396.852 214.623 396.942 213.726 396.998 213.277 396.998C213.078 397.009 212.88 396.974 212.698 396.897 212.318 396.738 212.053 396.399 212.001 396.005L212.001 395.114 212.001 394.663C211.993 394.467 212.038 394.272 212.131 394.098 212.323 393.733 212.707 393.496 213.135 393.478L238.508 392.27 242.891 392.078 244.698 392.011C244.989 391.975 245.283 392.03 245.537 392.169 245.773 392.309 245.937 392.539 245.986 392.801 245.986 393.263 245.986 393.624 245.986 393.929 246.036 394.227 245.95 394.532 245.749 394.764 245.407 395.148 245.076 395.057 245.1 395.057Z" fill="#263238" fill-rule="evenodd"/><path d="M250.99 414.634C251.174 417.942 248.867 420.787 245.835 420.989 242.803 421.191 240.195 418.674 240.01 415.365 239.825 412.058 242.132 409.213 245.165 409.011 245.193 409.009 245.22 409.008 245.248 409.006 248.25 408.856 250.806 411.362 250.99 414.634Z" fill="#263238" fill-rule="evenodd"/><path d="M246.266 410.567C246.764 410.54 247.168 410.518 247.168 410.518L247.334 413.605C247.334 413.605 246.93 413.627 246.432 413.654L214.434 415.37C213.936 415.397 213.532 415.418 213.532 415.418L213.367 412.331C213.367 412.331 213.771 412.31 214.269 412.283Z" fill="#E0E0E0" fill-rule="evenodd"/><path d="M245.98 413.775C246.209 413.715 246.416 413.572 246.571 413.369 246.751 413.099 246.816 412.751 246.748 412.421 246.748 412.028 246.748 411.527 246.642 411.067 246.533 410.566 246.09 410.261 245.653 410.387 245.636 410.391 245.619 410.396 245.602 410.403L243.807 410.552 239.425 410.877 214.065 412.529C213.746 412.544 213.496 412.852 213.508 413.218 213.509 413.222 213.509 413.228 213.509 413.233L213.509 413.748 213.509 414.764C213.539 414.995 213.668 415.193 213.852 415.292 213.952 415.327 214.059 415.327 214.159 415.292L214.608 415.292 215.494 415.292 217.266 415.183 223.998 414.791 235.409 414.168 243.204 413.775 245.295 413.775C245.538 413.737 245.784 413.737 246.027 413.775 245.791 413.839 245.55 413.875 245.307 413.883L243.216 414.086 235.527 414.669 224.128 415.441 217.396 415.874 215.624 415.996 214.726 415.996 214.277 415.996C214.08 416.013 213.882 415.975 213.698 415.887 213.315 415.694 213.05 415.281 213.002 414.804L213.002 413.734 213.002 413.206C212.991 412.967 213.036 412.728 213.131 412.516 213.332 412.086 213.712 411.806 214.135 411.771L239.507 410.322 243.89 410.105 245.697 410.024C245.986 409.96 246.285 410.024 246.535 410.2 246.769 410.372 246.931 410.646 246.984 410.958 246.984 411.514 246.984 411.961 246.984 412.313 247.039 412.67 246.951 413.037 246.748 413.315 246.287 413.87 245.957 413.775 245.98 413.775Z" fill="#263238" fill-rule="evenodd"/><path d="M246.39 416.224C246.888 416.197 247.292 416.175 247.292 416.175L247.458 419.262C247.458 419.262 247.054 419.284 246.556 419.311L214.558 421.027C214.06 421.054 213.656 421.075 213.656 421.075L213.491 417.988C213.491 417.988 213.895 417.967 214.393 417.94Z" fill="#E0E0E0" fill-rule="evenodd"/><path d="M246.096 419.093C246.325 419.043 246.532 418.924 246.687 418.754 246.851 418.536 246.906 418.261 246.84 417.999 246.84 417.672 246.84 417.266 246.734 416.871 246.625 416.454 246.182 416.201 245.745 416.305 245.729 416.309 245.711 416.313 245.694 416.319L243.899 416.432 239.517 416.702 214.158 418.089C213.951 418.098 213.765 418.216 213.674 418.394 213.622 418.475 213.597 418.57 213.603 418.664L213.603 419.104 213.603 419.95C213.633 420.142 213.762 420.307 213.946 420.389 214.046 420.414 214.153 420.414 214.253 420.389L214.702 420.389 215.599 420.389 217.359 420.299 224.104 419.972 235.501 419.454 243.202 419.149 245.293 419.149C245.536 419.129 245.782 419.129 246.025 419.149 245.79 419.211 245.548 419.245 245.305 419.251L243.214 419.408 235.525 419.905 224.127 420.547 217.395 420.908 215.623 420.998 214.737 420.998 214.288 420.998C214.086 421.008 213.883 420.974 213.698 420.897 213.318 420.738 213.053 420.4 213.001 420.006L213.001 419.115 213.001 418.664C212.993 418.469 213.038 418.274 213.131 418.1 213.323 417.735 213.707 417.498 214.135 417.48L239.505 416.263 243.899 416.082 245.694 416.014C245.985 415.971 246.281 416.027 246.533 416.172 246.769 416.312 246.933 416.542 246.982 416.804 246.982 417.266 246.982 417.627 246.982 417.931 247.041 418.232 246.955 418.544 246.746 418.777 246.403 419.194 246.084 419.104 246.096 419.093Z" fill="#263238" fill-rule="evenodd"/><path d="M252.989 438.634C253.19 441.942 250.673 444.787 247.365 444.989 244.058 445.191 241.213 442.674 241.011 439.365 240.809 436.058 243.326 433.213 246.635 433.011 246.665 433.009 246.695 433.008 246.725 433.006 250 432.856 252.788 435.362 252.989 438.634Z" fill="#263238" fill-rule="evenodd"/><path d="M247.548 434.541C248.046 434.514 248.45 434.492 248.45 434.492L248.616 437.579C248.616 437.579 248.212 437.601 247.713 437.627L215.716 439.344C215.218 439.37 214.814 439.392 214.814 439.392L214.648 436.305C214.648 436.305 215.053 436.283 215.551 436.257Z" fill="#E0E0E0" fill-rule="evenodd"/><path d="M248.071 437.709C248.306 437.64 248.518 437.493 248.678 437.289 248.846 437.031 248.905 436.704 248.837 436.395 248.837 436.002 248.837 435.501 248.727 435.04 248.615 434.539 248.159 434.234 247.709 434.36 247.692 434.364 247.674 434.37 247.657 434.376L245.809 434.525 241.298 434.837 215.193 436.503C214.982 436.519 214.792 436.658 214.695 436.869 214.641 436.97 214.616 437.09 214.622 437.208L214.622 437.722 214.622 438.738C214.652 438.97 214.785 439.168 214.974 439.266 215.078 439.296 215.187 439.296 215.29 439.266L215.752 439.266 216.677 439.266 218.488 439.158 225.431 438.765 237.164 438.142 245.092 437.776 247.244 437.776C247.494 437.738 247.747 437.738 247.998 437.776 247.754 437.84 247.506 437.877 247.256 437.885L245.104 438.088 237.188 438.67 225.455 439.443 218.525 439.876 216.701 439.998 215.789 439.998 215.327 439.998C215.119 440.01 214.91 439.968 214.719 439.876 214.327 439.685 214.055 439.279 214.002 438.806L214.002 437.736 214.002 437.208C213.991 436.968 214.037 436.729 214.135 436.517 214.334 436.078 214.729 435.793 215.169 435.772L241.286 434.322 245.809 434.105 247.657 434.024C247.955 433.96 248.263 434.024 248.52 434.2 248.761 434.372 248.928 434.646 248.982 434.959 248.982 435.514 248.982 435.948 248.982 436.313 249.041 436.671 248.952 437.04 248.739 437.316 248.387 437.817 248.058 437.709 248.071 437.709Z" fill="#263238" fill-rule="evenodd"/><path d="M247.672 440.186C248.17 440.159 248.574 440.137 248.574 440.137L248.74 443.224C248.74 443.224 248.336 443.246 247.837 443.273L215.84 444.989C215.342 445.015 214.938 445.037 214.938 445.037L214.772 441.95C214.772 441.95 215.177 441.928 215.675 441.902Z" fill="#E0E0E0" fill-rule="evenodd"/><path d="M248.059 443.118C248.287 443.067 248.494 442.946 248.649 442.775 248.813 442.553 248.868 442.273 248.802 442.008 248.802 441.676 248.802 441.264 248.696 440.864 248.587 440.44 248.145 440.183 247.708 440.289 247.692 440.292 247.674 440.297 247.657 440.303L245.864 440.417 241.499 440.692 216.157 442.099C215.95 442.111 215.765 442.229 215.673 442.408 215.626 442.493 215.602 442.587 215.602 442.683L215.602 443.129 215.602 443.988C215.632 444.183 215.76 444.35 215.945 444.434 216.046 444.457 216.15 444.457 216.251 444.434L216.7 444.434 217.596 444.434 219.354 444.342 226.091 444.01 237.488 443.484 245.168 443.175 247.256 443.118C247.499 443.101 247.745 443.101 247.988 443.118 247.753 443.181 247.511 443.215 247.268 443.221L245.18 443.381 237.511 443.873 226.114 444.537 219.39 444.903 217.632 444.995 216.735 444.995 216.287 444.995C216.085 445.014 215.882 444.982 215.697 444.903 215.317 444.742 215.053 444.398 215.001 443.999L215.001 443.095 215.001 442.637C214.994 442.433 215.042 442.232 215.142 442.054 215.336 441.691 215.713 441.455 216.133 441.436L241.534 440.268 245.911 440.085 247.705 440.017C247.997 439.97 248.297 440.022 248.554 440.165 248.782 440.319 248.939 440.553 248.991 440.818 248.991 441.287 248.991 441.653 248.991 441.962 249.031 442.269 248.941 442.579 248.743 442.82 248.365 443.244 248.047 443.129 248.059 443.118Z" fill="#263238" fill-rule="evenodd"/><path d="M253.989 462.634C254.19 465.942 251.673 468.787 248.366 468.989 245.058 469.191 242.213 466.674 242.011 463.365 241.809 460.058 244.326 457.213 247.635 457.011 247.665 457.009 247.695 457.008 247.725 457.006 251 456.856 253.79 459.362 253.989 462.634Z" fill="#263238" fill-rule="evenodd"/><path d="M248.83 458.514C249.328 458.488 249.732 458.466 249.732 458.466L249.898 461.553C249.898 461.553 249.494 461.575 248.995 461.601L216.998 463.317C216.5 463.344 216.096 463.366 216.096 463.366L215.93 460.279C215.93 460.279 216.334 460.257 216.833 460.23Z" fill="#E0E0E0" fill-rule="evenodd"/><path d="M248.997 461.707C249.226 461.638 249.431 461.492 249.587 461.287 249.751 461.024 249.806 460.693 249.74 460.379 249.74 459.999 249.74 459.497 249.634 459.023 249.525 458.521 249.083 458.216 248.647 458.342 248.63 458.346 248.613 458.352 248.596 458.359L246.804 458.508 242.44 458.82 217.109 460.487C216.902 460.501 216.717 460.64 216.625 460.853 216.577 460.957 216.552 461.074 216.555 461.192L216.555 461.707 216.555 462.724C216.588 462.953 216.715 463.151 216.897 463.253 216.998 463.28 217.102 463.28 217.203 463.253L217.651 463.253 218.548 463.253 220.305 463.144 227.039 462.751 238.431 462.128 246.108 461.762 248.195 461.762C248.438 461.723 248.683 461.723 248.926 461.762 248.689 461.817 248.449 461.854 248.207 461.87L246.12 462.073 238.454 462.656 227.062 463.429 220.34 463.863 218.583 463.971 217.734 463.998 217.286 463.998C217.084 464.009 216.882 463.969 216.696 463.876 216.316 463.685 216.052 463.278 216 462.805L216 461.734 216 461.192C215.996 460.956 216.044 460.722 216.142 460.514 216.332 460.079 216.71 459.794 217.132 459.769L242.476 458.318 246.851 458.101 248.643 458.02C248.936 457.964 249.235 458.027 249.492 458.196 249.719 458.372 249.876 458.646 249.929 458.955 249.929 459.511 249.929 459.945 249.988 460.311 250.035 460.67 249.945 461.036 249.74 461.314 249.304 461.816 248.985 461.707 248.997 461.707Z" fill="#263238" fill-rule="evenodd"/><path d="M248.953 464.147C249.452 464.121 249.855 464.099 249.855 464.099L250.021 467.186C250.021 467.186 249.617 467.208 249.119 467.234L217.122 468.951C216.623 468.977 216.219 468.999 216.219 468.999L216.054 465.912C216.054 465.912 216.458 465.89 216.956 465.864Z" fill="#E0E0E0" fill-rule="evenodd"/><path d="M249.092 467.154C249.322 467.103 249.529 466.98 249.683 466.807 249.854 466.584 249.91 466.299 249.837 466.031 249.837 465.696 249.837 465.279 249.742 464.874 249.625 464.441 249.172 464.184 248.731 464.299 248.721 464.301 248.712 464.305 248.702 464.307L246.894 464.423 242.521 464.7 217.135 466.124C216.932 466.135 216.749 466.249 216.651 466.425 216.605 466.515 216.581 466.613 216.58 466.714L216.58 467.165 216.58 468.033C216.605 468.232 216.735 468.404 216.922 468.485 217.021 468.503 217.12 468.503 217.218 468.485L217.667 468.485 218.565 468.485 220.338 468.392 227.075 468.056 238.491 467.524 246.185 467.212 248.372 467.096C248.615 467.07 248.861 467.07 249.104 467.096 248.869 467.161 248.627 467.195 248.383 467.2L246.291 467.362 238.609 467.86 227.193 468.531 220.456 468.901 218.695 468.994 217.797 468.994 217.348 468.994C217.149 469.015 216.95 468.982 216.769 468.901 216.384 468.74 216.114 468.393 216.06 467.987L216.001 467.061 216.001 466.61C215.994 466.404 216.042 466.2 216.142 466.02 216.337 465.649 216.722 465.411 217.147 465.395L242.462 464.272 246.847 464.087 248.643 464.018C248.936 463.969 249.237 464.022 249.494 464.168 249.726 464.32 249.884 464.558 249.932 464.828 249.932 465.302 249.932 465.673 249.991 465.985 250.031 466.295 249.941 466.609 249.742 466.853 249.592 467.055 249.348 467.169 249.092 467.154Z" fill="#263238" fill-rule="evenodd"/><path d="M254.989 486.634C255.19 489.942 252.673 492.787 249.366 492.989 246.058 493.191 243.213 490.674 243.011 487.365 242.809 484.058 245.326 481.213 248.635 481.011 248.665 481.01 248.695 481.008 248.725 481.006 252 480.856 254.79 483.362 254.989 486.634Z" fill="#263238" fill-rule="evenodd"/><path d="M250.112 482.476C250.61 482.449 251.014 482.428 251.014 482.428L251.18 485.515C251.18 485.515 250.776 485.536 250.277 485.563L218.28 487.279C217.782 487.306 217.378 487.328 217.378 487.328L217.212 484.241C217.212 484.241 217.616 484.219 218.115 484.192Z" fill="#E0E0E0" fill-rule="evenodd"/><path d="M250.112 485.706C250.342 485.636 250.547 485.488 250.704 485.281 250.874 485.017 250.931 484.678 250.858 484.361 250.858 483.977 250.858 483.469 250.763 482.989 250.646 482.475 250.191 482.171 249.75 482.307 249.74 482.309 249.731 482.314 249.721 482.316L247.911 482.454 243.532 482.783 218.112 484.471C217.905 484.485 217.719 484.626 217.627 484.841 217.58 484.943 217.556 485.056 217.556 485.171L217.556 485.706 217.615 486.735C217.64 486.971 217.77 487.175 217.959 487.271 218.056 487.299 218.157 487.299 218.254 487.271L218.704 487.271 219.604 487.271 221.379 487.161 228.124 486.763 239.556 486.132 247.26 485.761 249.355 485.761C249.598 485.723 249.845 485.723 250.088 485.761 249.85 485.819 249.609 485.856 249.366 485.871L247.272 486.063 239.58 486.667 228.16 487.449 221.402 487.888 219.639 487.998 218.74 487.998 218.29 487.998C218.091 488.01 217.892 487.968 217.71 487.874 217.324 487.684 217.054 487.272 217 486.79L217 485.706 217 485.157C216.999 484.918 217.047 484.684 217.142 484.471 217.335 484.026 217.719 483.738 218.148 483.716L243.497 482.316 247.887 482.097 249.686 482.014C249.981 481.968 250.28 482.035 250.538 482.207 250.771 482.382 250.933 482.659 250.988 482.975 250.988 483.538 250.988 483.977 250.988 484.347 251.035 484.711 250.945 485.082 250.739 485.363 250.42 485.816 250.1 485.706 250.112 485.706Z" fill="#263238" fill-rule="evenodd"/><path d="M250.235 488.121C250.733 488.095 251.137 488.073 251.137 488.073L251.303 491.16C251.303 491.16 250.899 491.181 250.401 491.208L218.403 492.924C217.905 492.951 217.501 492.973 217.501 492.973L217.336 489.886C217.336 489.886 217.74 489.864 218.238 489.837Z" fill="#E0E0E0" fill-rule="evenodd"/><path d="M250.007 491.154C250.229 491.098 250.431 490.981 250.585 490.816 250.753 490.599 250.809 490.32 250.738 490.06 250.738 489.733 250.738 489.326 250.644 488.931 250.527 488.509 250.074 488.259 249.634 488.37 249.624 488.373 249.615 488.376 249.605 488.378L247.812 488.491 243.436 488.762 218.11 490.15C217.904 490.16 217.716 490.271 217.615 490.443 217.585 490.535 217.585 490.634 217.615 490.726L217.615 491.166 217.615 492.012C217.636 492.205 217.768 492.37 217.957 492.441 218.054 492.465 218.155 492.465 218.252 492.441L218.7 492.441 219.597 492.441 221.366 492.351 228.09 492.024 239.485 491.493 247.164 491.2 249.263 491.143C249.506 491.119 249.752 491.119 249.995 491.143 249.757 491.205 249.511 491.24 249.263 491.245L247.176 491.403 239.508 491.888 228.125 492.543 221.39 492.904 219.632 492.994 218.736 492.994 218.287 492.994C218.089 493.014 217.89 492.983 217.709 492.904 217.325 492.747 217.056 492.408 217.002 492.012L217.002 491.109 217.002 490.669C216.969 490.046 217.47 489.517 218.121 489.485 218.141 489.484 218.161 489.484 218.181 489.484L243.519 488.265 247.895 488.085 249.688 488.017C249.981 487.97 250.28 488.022 250.537 488.164 250.769 488.309 250.93 488.536 250.986 488.796 250.986 489.27 250.986 489.631 250.986 489.924 251.038 490.228 250.948 490.537 250.738 490.771 250.602 491.033 250.31 491.185 250.007 491.154Z" fill="#263238" fill-rule="evenodd"/><path d="M256.988 510.622C257.197 513.929 254.685 516.779 251.378 516.988 248.071 517.197 245.221 514.684 245.012 511.377 244.803 508.07 247.315 505.22 250.622 505.012 250.656 505.01 250.69 505.008 250.724 505.007 253.994 504.856 256.781 507.355 256.988 510.622Z" fill="#263238" fill-rule="evenodd"/><path d="M251.394 506.45C251.892 506.423 252.296 506.402 252.296 506.402L252.461 509.488C252.461 509.488 252.058 509.51 251.559 509.537L219.562 511.253C219.064 511.28 218.66 511.301 218.66 511.301L218.494 508.214C218.494 508.214 218.898 508.193 219.396 508.166Z" fill="#E0E0E0" fill-rule="evenodd"/><path d="M252.024 509.711C252.253 509.644 252.461 509.503 252.619 509.305 252.794 509.046 252.853 508.711 252.777 508.399 252.777 508.006 252.777 507.519 252.68 507.046 252.56 506.54 252.093 506.239 251.639 506.373 251.63 506.376 251.62 506.38 251.61 506.383L249.762 506.518 245.251 506.843 219.144 508.507C218.926 508.517 218.731 508.656 218.633 508.872 218.603 508.978 218.603 509.092 218.633 509.197L218.633 509.725 218.633 510.74C218.659 510.972 218.793 511.173 218.986 511.267 219.086 511.296 219.19 511.296 219.29 511.267L219.752 511.267 220.676 511.267 222.5 511.159 229.431 510.767 241.177 510.144 249.093 509.779 251.257 509.779C251.508 509.759 251.761 509.759 252.011 509.779 251.766 509.853 251.513 509.895 251.257 509.901L249.117 510.09 241.202 510.685 229.467 511.457 222.524 511.89 220.713 511.998 219.788 511.998 219.326 511.998C219.122 512.01 218.918 511.968 218.731 511.876 218.334 511.688 218.057 511.282 218.001 510.807L218.001 509.738 218.001 509.197C217.992 508.963 218.039 508.729 218.135 508.521 218.333 508.082 218.728 507.798 219.168 507.776L245.287 506.315 249.798 506.099 251.647 506.017C251.949 505.965 252.259 506.032 252.522 506.207 252.765 506.375 252.934 506.651 252.984 506.965 252.984 507.519 252.984 507.952 252.984 508.318 253.04 508.682 252.946 509.054 252.729 509.332 252.34 509.833 251.999 509.725 252.024 509.711Z" fill="#263238" fill-rule="evenodd"/><path d="M251.529 512.082C252.027 512.056 252.431 512.034 252.431 512.034L252.597 515.121C252.597 515.121 252.193 515.143 251.694 515.169L219.697 516.885C219.199 516.912 218.795 516.934 218.795 516.934L218.629 513.847C218.629 513.847 219.033 513.825 219.532 513.799Z" fill="#E0E0E0" fill-rule="evenodd"/><path d="M252.064 515.156C252.299 515.102 252.511 514.983 252.672 514.817 252.834 514.596 252.891 514.322 252.83 514.06 252.83 513.733 252.83 513.326 252.721 512.931 252.594 512.511 252.124 512.266 251.672 512.383 251.664 512.386 251.658 512.387 251.651 512.389L249.802 512.502 245.291 512.773 219.181 514.162C218.968 514.172 218.775 514.283 218.67 514.456 218.646 514.548 218.646 514.645 218.67 514.738L218.67 515.167 218.67 516.025C218.697 516.216 218.832 516.38 219.023 516.454 219.122 516.483 219.229 516.483 219.327 516.454L219.801 516.454 220.713 516.454 222.538 516.375 229.469 516.048 241.217 515.517 249.146 515.224 251.298 515.224C251.549 515.2 251.802 515.2 252.052 515.224 251.806 515.286 251.553 515.321 251.298 515.325L249.158 515.483 241.241 515.969 229.506 516.624 222.574 516.985 220.713 516.997 219.789 516.997 219.327 516.997C219.124 517.011 218.92 516.98 218.731 516.906 218.335 516.749 218.058 516.41 218.002 516.014L218.002 515.111 218.002 514.67C217.991 514.47 218.037 514.272 218.135 514.094 218.336 513.733 218.731 513.5 219.169 513.485L245.291 512.265 249.802 512.084 251.663 512.016C251.961 511.97 252.266 512.022 252.526 512.163 252.765 512.309 252.931 512.536 252.989 512.796 252.989 513.27 252.989 513.631 252.989 513.925 253.034 514.226 252.946 514.531 252.745 514.772 252.612 515.007 252.35 515.154 252.064 515.156Z" fill="#263238" fill-rule="evenodd"/><path d="M257.989 531.634C258.19 534.942 255.673 537.787 252.365 537.989 249.058 538.191 246.213 535.674 246.011 532.365 245.809 529.058 248.326 526.213 251.635 526.011 251.665 526.009 251.695 526.008 251.725 526.006 254.999 525.856 257.789 528.362 257.989 531.634Z" fill="#263238" fill-rule="evenodd"/><path d="M252.526 527.404C253.024 527.378 253.428 527.356 253.428 527.356L253.594 530.443C253.594 530.443 253.19 530.465 252.691 530.491L220.694 532.207C220.196 532.234 219.792 532.256 219.792 532.256L219.626 529.169C219.626 529.169 220.031 529.147 220.529 529.12Z" fill="#E0E0E0" fill-rule="evenodd"/><path d="M253.13 530.68C253.366 530.611 253.578 530.465 253.739 530.262 253.908 530 253.965 529.671 253.897 529.358 253.897 528.981 253.897 528.482 253.788 528.01 253.676 527.512 253.219 527.208 252.768 527.334 252.751 527.338 252.733 527.343 252.716 527.35L250.864 527.485 246.358 527.808 220.194 529.466C219.98 529.477 219.788 529.617 219.695 529.83 219.646 529.93 219.622 530.041 219.622 530.154L219.622 530.68 219.622 531.691C219.652 531.921 219.785 532.118 219.975 532.216 220.078 532.245 220.188 532.245 220.291 532.216L220.754 532.216 221.68 532.216 223.495 532.109 230.45 531.718 242.216 531.097 250.146 530.734 252.302 530.734C252.552 530.696 252.806 530.696 253.057 530.734 252.812 530.789 252.563 530.825 252.314 530.841L250.158 531.03 242.241 531.623 230.474 532.392 223.531 532.823 221.704 532.931 220.791 532.998 220.328 532.998C220.12 533.009 219.911 532.969 219.719 532.877 219.327 532.687 219.054 532.283 219 531.812L219 530.747 219 530.208C218.995 529.973 219.045 529.74 219.146 529.534 219.343 529.101 219.734 528.818 220.17 528.792L246.284 527.309 250.803 527.094 252.655 527.013C252.958 526.97 253.265 527.036 253.532 527.202 253.769 527.374 253.933 527.646 253.982 527.956 253.982 528.509 253.982 528.941 253.982 529.305 254.041 529.66 253.952 530.027 253.739 530.302 253.447 530.787 253.118 530.68 253.13 530.68Z" fill="#263238" fill-rule="evenodd"/><path d="M252.649 533.038C253.148 533.011 253.551 532.989 253.551 532.989L253.717 536.076C253.717 536.076 253.313 536.098 252.815 536.124L220.818 537.841C220.319 537.867 219.915 537.889 219.915 537.889L219.75 534.802C219.75 534.802 220.154 534.78 220.652 534.754Z" fill="#E0E0E0" fill-rule="evenodd"/><path d="M253.139 536.041C253.375 535.992 253.588 535.872 253.747 535.703 253.921 535.486 253.978 535.208 253.905 534.947 253.905 534.619 253.905 534.213 253.808 533.818 253.68 533.391 253.205 533.142 252.745 533.259 252.739 533.261 252.732 533.263 252.726 533.265L250.877 533.378 246.377 533.649 220.253 535.037C220.044 535.048 219.856 535.159 219.755 535.33 219.706 535.417 219.682 535.514 219.682 535.612L219.682 536.053 219.682 536.899C219.713 537.092 219.852 537.255 220.047 537.328 220.141 537.371 220.246 537.39 220.351 537.385L220.813 537.385 221.737 537.385 223.549 537.294 230.494 536.967 242.242 536.436 250.159 536.143 252.312 536.143C252.563 536.118 252.816 536.118 253.066 536.143 252.824 536.205 252.575 536.239 252.324 536.245L250.172 536.403 242.266 536.888 230.518 537.543 223.586 537.904 221.774 537.994 220.849 537.994 220.387 537.994C220.183 538.014 219.977 537.983 219.791 537.904 219.395 537.747 219.117 537.408 219.062 537.012L219.001 536.109 219.001 535.669C218.993 535.468 219.043 535.269 219.147 535.093 219.346 534.735 219.735 534.503 220.168 534.484L246.304 533.265 250.816 533.084 252.665 533.016C252.966 532.97 253.275 533.022 253.54 533.163 253.776 533.309 253.939 533.537 253.99 533.795 253.99 534.269 253.99 534.631 253.99 534.924 254.032 535.227 253.939 535.532 253.735 535.77 253.592 535.94 253.371 536.04 253.139 536.041Z" fill="#263238" fill-rule="evenodd"/><path d="M503 195.003C503 195.168 439.658 198.666 361.5 202.798 283.342 206.93 220 210.158 220 209.994 220 209.83 283.342 206.331 361.5 202.188 439.658 198.044 502.988 194.886 503 195.003Z" fill="#E0E0E0" fill-rule="evenodd"/><path d="M504 217.007C504 217.183 440.658 220.901 362.5 225.32 284.342 229.739 221 233.169 221 232.994 221 232.818 284.33 229.088 362.5 224.669 440.67 220.25 503.988 216.82 504 217.007Z" fill="#E0E0E0" fill-rule="evenodd"/><path d="M505 240.006C505 240.182 441.658 243.665 363.5 247.805 285.342 251.945 222 255.158 222 254.994 222 254.83 285.33 251.335 363.5 247.195 441.67 243.055 504.988 239.842 505 240.006Z" fill="#E0E0E0" fill-rule="evenodd"/><path d="M506 262.006C506 262.182 442.646 265.665 364.5 269.805 286.354 273.945 223 277.158 223 276.994 223 276.83 286.33 273.335 364.5 269.195 442.67 265.055 505.988 261.842 506 262.006Z" fill="#E0E0E0" fill-rule="evenodd"/><path d="M507 284.006C507 284.194 443.87 287.912 366 292.331 288.13 296.75 225 300.181 225 299.993 225 299.805 288.106 296.099 366 291.68 443.894 287.261 506.988 283.831 507 284.006Z" fill="#E0E0E0" fill-rule="evenodd"/><path d="M509 307.003C509 307.179 445.658 310.665 367.5 314.809 289.342 318.953 226 322.169 226 321.993 226 321.817 289.33 318.342 367.5 314.199 445.67 310.055 509 306.897 509 307.003Z" fill="#E0E0E0" fill-rule="evenodd"/><path d="M510 329.006C510 329.17 446.658 332.668 368.5 336.811 290.342 340.954 227 344.169 227 343.993 227 343.817 290.33 340.332 368.5 336.2 446.67 332.069 510 328.842 510 329.006Z" fill="#E0E0E0" fill-rule="evenodd"/><path d="M511 351.006C511 351.182 447.658 354.912 369.5 359.331 291.342 363.75 228 367.18 228 366.993 228 366.805 291.33 363.087 369.5 358.68 447.67 354.274 510.988 350.831 511 351.006Z" fill="#E0E0E0" fill-rule="evenodd"/><path d="M512 374.006C512 374.17 448.658 377.668 370.5 381.811 292.342 385.954 229 389.169 229 388.993 229 388.817 292.33 385.331 370.5 381.2 448.67 377.069 511.988 373.842 512 374.006Z" fill="#E0E0E0" fill-rule="evenodd"/><path d="M513 396.007C513 396.171 449.658 399.669 371.5 403.8 293.342 407.931 230 411.158 230 410.994 230 410.83 293.33 407.332 371.5 403.189 449.67 399.047 512.988 395.831 513 396.007Z" fill="#E0E0E0" fill-rule="evenodd"/><path d="M515 419.007C515 419.171 451.658 422.669 373.5 426.8 295.342 430.931 232 434.158 232 433.994 232 433.83 295.33 430.332 373.5 426.19 451.67 422.047 514.929 418.831 515 419.007Z" fill="#E0E0E0" fill-rule="evenodd"/><path d="M516 441.007C516 441.171 452.658 444.669 374.5 448.8 296.342 452.931 233 456.158 233 455.994 233 455.83 296.33 452.332 374.5 448.189 452.67 444.047 516 440.831 516 441.007Z" fill="#E0E0E0" fill-rule="evenodd"/><path d="M517 463.007C517 463.171 453.646 466.669 375.5 470.8 297.354 474.931 234 478.158 234 477.994 234 477.83 297.33 474.332 375.5 470.19 453.67 466.047 517 462.831 517 463.007Z" fill="#E0E0E0" fill-rule="evenodd"/><path d="M518 486.007C518 486.171 454.658 489.657 376.5 493.8 298.342 497.943 235 501.158 235 500.994 235 500.83 298.33 497.332 376.5 493.189 454.67 489.047 518 485.831 518 486.007Z" fill="#E0E0E0" fill-rule="evenodd"/><path d="M519 508.006C519 508.182 455.882 511.665 378 515.805 300.118 519.945 237 523.158 237 522.994 237 522.83 300.106 519.335 378 515.195 455.894 511.055 519 507.842 519 508.006Z" fill="#E0E0E0" fill-rule="evenodd"/><path d="M278.992 551C278.817 551 274.216 465.95 268.695 361.03 263.174 256.11 258.841 171.012 259.004 171 259.167 170.988 263.78 256.039 269.301 360.994 274.822 465.95 279.213 551 278.992 551Z" fill="#B9D0E9" fill-rule="evenodd"/><text fill="#263238" font-family="Arial,Arial_MSFontService,sans-serif" font-weight="400" font-size="20" transform="matrix(0.998565 -0.053556 0.053556 0.998565 298.395 234)">THIS YEAR I WILL</text><path d="M508.418 231C505.645 230.631 503.686 227.998 504.042 225.12 504.345 222.663 506.261 220.761 508.641 220.555 507.157 217.961 507.981 214.612 510.48 213.072 511.91 212.191 513.659 212.064 515.194 212.73 516.155 209.262 519.641 207.26 522.983 208.256 523.98 208.554 524.891 209.103 525.635 209.853 528.564 208.391 532.075 209.196 534.137 211.804 536.918 211.905 539.093 214.325 538.997 217.211 538.936 219.012 537.988 220.652 536.486 221.554" fill="#263238" fill-rule="evenodd"/><path d="M499.394 257.726C500.643 252.209 504.149 241.067 507.429 231.012 510.955 220.215 522.143 213.948 533.138 216.611L534.232 216.886C545.856 220.468 549.351 232.326 545.5 243.897L533.673 285 505.718 281.871 507.727 273.62C507.727 273.62 496.815 269.13 499.394 257.726Z" fill="#FFBF9D" fill-rule="evenodd"/><path d="M507.599 273.657C512.697 274.753 518.042 274.525 523 273 523 273 517.713 279.311 507 276.079Z" fill="#FF9A6C" fill-rule="evenodd"/><path d="M508.047 242.053C507.842 242.876 508.325 243.714 509.123 243.925 509.88 244.181 510.695 243.758 510.944 242.979 510.948 242.969 510.95 242.96 510.953 242.95 511.158 242.127 510.675 241.289 509.877 241.078 509.128 240.817 508.315 241.232 508.062 242.003 508.057 242.02 508.052 242.036 508.047 242.053Z" fill="#263238" fill-rule="evenodd"/><path d="M508.012 237.218C508.179 237.524 509.73 236.816 511.603 237.302 513.476 237.788 514.643 239.176 514.899 238.981 515.156 238.787 514.899 238.398 514.399 237.774 513.023 236.103 510.827 235.548 508.91 236.385 508.23 236.691 507.935 237.079 508.012 237.218Z" fill="#263238" fill-rule="evenodd"/><path d="M523.047 246.053C522.842 246.877 523.325 247.714 524.124 247.926 524.882 248.181 525.697 247.755 525.945 246.975 525.948 246.964 525.953 246.952 525.956 246.94 526.153 246.121 525.672 245.29 524.879 245.078 524.129 244.817 523.315 245.232 523.062 246.003 523.057 246.02 523.052 246.036 523.047 246.053Z" fill="#263238" fill-rule="evenodd"/><path d="M525.013 241.915C525.157 242.199 526.794 241.681 528.667 242.26 530.54 242.84 531.614 244.147 531.889 243.987 532.164 243.826 531.889 243.469 531.483 242.877 530.851 242.101 529.984 241.526 528.995 241.225 528.016 240.925 526.961 240.925 525.982 241.225 525.209 241.496 524.934 241.792 525.013 241.915Z" fill="#263238" fill-rule="evenodd"/><path d="M515.939 253C515.133 252.508 514.275 252.117 513.38 251.837 512.976 251.697 512.595 251.511 512.595 251.197 512.662 250.737 512.866 250.31 513.178 249.975L515.187 246.973C518.004 242.68 520.159 239.119 519.991 239.003 519.822 238.887 517.398 242.261 514.581 246.554 513.897 247.613 513.235 248.614 512.617 249.591 512.224 250.046 512.006 250.634 512 251.243 512.057 251.579 512.254 251.874 512.539 252.046 512.758 252.172 512.991 252.266 513.235 252.325 514.105 252.667 515.014 252.894 515.939 253Z" fill="#263238" fill-rule="evenodd"/><path d="M527 235.517C527 236.028 528.659 236.385 530.432 237.289 532.205 238.193 533.5 239.263 533.915 238.942 534.091 238.787 534.003 238.264 533.575 237.598 532.999 236.774 532.206 236.105 531.275 235.659 530.367 235.188 529.341 234.962 528.307 235.005 527.553 235.041 527.025 235.279 527 235.517Z" fill="#263238" fill-rule="evenodd"/><path d="M510.025 232.097C510.261 232.481 511.525 232.333 512.971 232.55 514.418 232.767 515.596 233.2 515.939 232.895 516.1 232.747 515.939 232.383 515.489 231.979 514.837 231.477 514.041 231.155 513.197 231.054 512.359 230.927 511.499 231.026 510.722 231.339 510.154 231.576 509.918 231.92 510.025 232.097Z" fill="#263238" fill-rule="evenodd"/><path d="M510 225.948C510 225.948 514.649 219.561 518.428 218.727 523.006 217.714 523.689 222.707 527.844 222.552 531.999 222.397 536.389 221.36 539.614 225.459 543.145 229.868 540.579 231.715 539.614 236.827 535.848 257.524 538.154 264.232 541.497 254.831 541.862 253.806 544.946 253.639 546.441 249.326 548.371 243.678 550.254 236.719 549.972 232.311 549.725 228.593 548.347 225.733 545.476 222.254 540.968 216.749 533.423 214.819 528.161 214.092 522.9 213.365 511.648 216.928 510 225.948Z" fill="#263238" fill-rule="evenodd"/><path d="M541.206 254.357C541.644 252.643 543.269 251.64 544.836 252.12 544.877 252.132 544.918 252.145 544.957 252.16 546.866 252.884 548.785 254.683 547.671 259.077 545.718 266.888 538.956 263.122 539 262.892 539.044 262.663 540.39 257.617 541.206 254.357Z" fill="#FFBF9D" fill-rule="evenodd"/><path d="M541.017 260.127C541.017 260.127 541.114 260.244 541.298 260.393 541.549 260.593 541.87 260.689 542.193 260.659 543.001 260.595 543.95 259.595 544.349 258.381 544.532 257.796 544.58 257.177 544.489 256.572 544.481 256.098 544.235 255.66 543.831 255.401 543.565 255.249 543.228 255.302 543.023 255.529 542.872 255.699 542.883 255.848 542.839 255.848 542.796 255.848 542.721 255.699 542.839 255.422 542.925 255.265 543.062 255.14 543.228 255.071 543.458 254.976 543.719 254.976 543.95 255.071 544.5 255.34 544.868 255.873 544.921 256.476 545.055 257.152 545.019 257.85 544.813 258.509 544.381 259.882 543.292 260.989 542.214 261 541.8 261.009 541.403 260.834 541.136 260.521 540.985 260.297 540.985 260.138 541.017 260.127Z" fill="#FF9A6C" fill-rule="evenodd"/><path d="M544.109 239.48C542.968 240.019 541.713 240.27 540.453 240.21 539.158 240.093 538.144 239.039 538.072 237.733 538.072 237.17 538.394 236.536 538.144 236.069 537.894 235.603 537.025 235.435 536.358 235.351 533.988 234.967 532.204 232.974 532.072 230.564 531.158 231.19 529.92 231.014 529.215 230.157 528.568 229.305 528.044 228.367 527.655 227.368 527.237 226.354 526.346 225.613 525.274 225.394 524.685 225.459 524.09 225.459 523.5 225.394 522.5 225.047 522.31 223.73 522.381 222.677 522.453 221.624 522.631 220.415 521.905 219.649 521.104 219.084 520.131 218.817 519.155 218.895 518.179 218.811 517.024 218.296 517 217.315 517.038 216.796 517.288 216.314 517.69 215.987 519.451 214.362 522.091 214.165 524.072 215.508 526.018 212.142 530.31 210.999 533.658 212.956 535.258 213.891 536.425 215.423 536.906 217.219 540.38 215.34 544.712 216.647 546.581 220.141 546.962 220.853 547.222 221.626 547.347 222.425 550.193 222.4 552.522 224.701 552.547 227.562 552.558 228.843 552.097 230.083 551.252 231.043 552.541 232.129 553.184 233.807 552.954 235.483 552.597 237.111 550.644 238.343 549.192 237.541 549.514 239.095 548.523 240.616 546.978 240.939 545.606 241.227 544.23 240.473 543.727 239.157" fill="#263238" fill-rule="evenodd"/><path d="M523.025 218C523.025 218 523.025 218 523.025 218.144 523.025 218.287 523.025 218.383 523.025 218.574 523.004 219.129 523.072 219.683 523.228 220.214 523.476 221.056 523.91 221.829 524.5 222.476 525.277 223.349 526.318 223.938 527.462 224.152L527.367 223.949C526.967 224.603 526.839 225.39 527.01 226.139 527.185 226.925 527.478 227.679 527.878 228.377 528.052 228.773 528.271 229.147 528.533 229.49 529.53 230.558 531.146 230.749 532.363 229.945L532.089 229.789C531.877 231.47 532.383 233.161 533.481 234.445 534.096 235.176 534.932 235.684 535.859 235.894 536.734 236.042 537.626 236.042 538.5 235.894L538.31 235.75C538.492 236.789 538.925 237.768 539.57 238.599 540.158 239.425 541.085 239.939 542.092 239.999 543.843 240.037 545.45 239.026 546.184 237.426L545.993 237.426C546.703 238.062 547.612 238.431 548.563 238.467 549.264 238.502 549.966 238.371 550.608 238.084 551.014 237.903 551.384 237.652 551.703 237.342 551.817 237.235 551.917 237.114 552 236.983 551.581 237.389 551.094 237.717 550.561 237.952 549.934 238.217 549.252 238.323 548.574 238.264 547.69 238.208 546.85 237.849 546.196 237.246L546.065 237.126 545.993 237.282C545.298 238.782 543.783 239.721 542.14 239.676 541.223 239.618 540.38 239.142 539.856 238.383 539.245 237.593 538.837 236.664 538.666 235.678L538.666 235.523 538.512 235.523C537.673 235.66 536.817 235.66 535.978 235.523 535.129 235.322 534.369 234.846 533.814 234.17 532.711 232.989 532.158 231.392 532.291 229.777L532.291 229.406 531.982 229.622C531.28 230.097 530.39 230.195 529.603 229.885 529.225 229.751 528.886 229.525 528.616 229.227 528.373 228.904 528.165 228.554 527.997 228.186 527.611 227.517 527.323 226.795 527.141 226.043 526.974 225.363 527.081 224.645 527.438 224.044L527.545 223.877 527.343 223.877C526.254 223.679 525.257 223.133 524.5 222.321 523.919 221.703 523.48 220.964 523.216 220.154 523.023 219.454 522.959 218.724 523.025 218Z" fill="#455A64" fill-rule="evenodd"/><path d="M520.865 257.036C518.581 256.929 516.289 257.06 514.042 257.427L514.042 257.427C513.931 258.766 513.968 260.264 515.06 261.214 515.907 261.921 517.134 262.175 518.263 261.878 519.367 261.629 520.272 260.955 520.718 260.053 521.035 259.07 521.086 258.039 520.865 257.036Z" fill="#FF9A6C" fill-rule="evenodd"/><path d="M516.234 261.533C516.914 261.733 517.639 261.708 518.305 261.462 519.001 261.185 519.574 260.663 519.919 259.99 520.335 259.144 520.518 258.2 520.445 257.259 520.441 257.023 520.412 256.788 520.363 256.558 520.363 256.558 520.363 256.558 520.363 256.558L520.013 256.558 518.609 256.629 516.211 256.712C515.474 256.784 514.731 256.76 514 256.641 514.714 256.439 515.448 256.328 516.187 256.309L518.527 256.107 519.942 256 520.34 256C520.579 256.007 520.788 256.163 520.866 256.392 520.93 256.673 520.968 256.959 520.983 257.247 521.065 258.293 520.845 259.341 520.352 260.263 519.932 261.031 519.237 261.606 518.41 261.866 517.866 262.045 517.281 262.045 516.737 261.866 516.375 261.723 516.223 261.569 516.234 261.533Z" fill="#263238" fill-rule="evenodd"/><path d="M467 583.359 448.968 610.832 441.074 636.622C440.521 638.398 438.61 639.396 436.807 638.851 436.74 638.83 436.674 638.809 436.609 638.785L436.609 638.785C435.563 638.424 434.777 637.564 434.523 636.501 433.108 629.976 428.179 599.944 429.118 598.55 430.668 596.23 444.844 573 444.844 573Z" fill="#263238" fill-rule="evenodd"/><path d="M437 637.977 430.536 597 429.775 598.169C429.122 599.16 428.87 600.339 429.063 601.489 429.575 604.576 431.185 619.33 434.779 635.732 435.048 636.798 435.889 637.656 437 638Z" fill="#455A64" fill-rule="evenodd"/><path d="M440.838 596.184C441.258 597.178 440.838 598.32 439.864 598.828 438.854 599.258 437.674 598.856 437.162 597.905 436.732 596.849 437.184 595.646 438.212 595.111 439.311 594.749 440.506 595.302 440.915 596.358" fill="#FFFFFF" fill-rule="evenodd"/><path d="M438.007 622.346C439.145 621.903 440.357 621.685 441.577 621.703 442.785 621.916 443.941 622.356 444.988 623 445.056 623 444.84 622.541 444.283 622.07 443.528 621.469 442.614 621.107 441.657 621.025 440.705 620.929 439.745 621.112 438.894 621.553 438.234 621.909 437.95 622.277 438.007 622.346Z" fill="#FFFFFF" fill-rule="evenodd"/><path d="M438.004 627.501C439.05 627.54 440.094 627.635 441.129 627.784 442.79 628.189 443.832 629.128 443.984 628.986 444.136 628.844 443.2 627.621 441.304 627.162 439.408 626.703 437.91 627.348 438.004 627.501Z" fill="#FFFFFF" fill-rule="evenodd"/><path d="M437.003 615.576C437.003 615.752 439.343 615.291 442.129 615.703 444.914 616.114 446.87 617.133 446.994 616.986 447.118 616.839 445.249 615.536 442.252 615.125 439.256 614.714 436.904 615.438 437.003 615.576Z" fill="#FFFFFF" fill-rule="evenodd"/><path d="M442 607.036C442 607.242 443.781 607.528 445.708 608.637 447.636 609.746 448.842 611.118 449 610.992 448.379 609.687 447.331 608.641 446.035 608.031 444.846 607.232 443.418 606.88 442 607.036Z" fill="#FFFFFF" fill-rule="evenodd"/><path d="M445 601.15C445 601.367 447.013 601.379 448.981 602.79 450.115 603.71 451.122 604.79 451.972 606 452.053 606 451.972 605.433 451.569 604.661 450.465 602.657 448.525 601.316 446.335 601.041 445.506 600.932 445 601.065 445 601.15Z" fill="#FFFFFF" fill-rule="evenodd"/><path d="M535 411.122C535 412.217 526.981 512.735 523.906 519.309 520.831 525.882 460.275 601 460.275 601L435 583.459 488.672 505.138 490.175 431.771 502.617 403Z" fill="#263238" fill-rule="evenodd"/><path d="M458.754 391C458.118 392.533 449.652 416.436 449.016 426.599 448.379 436.761 467.328 617 467.328 617L498.621 614.528 490.491 439.732 504 402.993Z" fill="#263238" fill-rule="evenodd"/><path d="M493.71 430C493.726 430.114 493.726 430.23 493.71 430.344 493.71 430.594 493.71 430.938 493.71 431.377 493.651 432.303 493.567 433.645 493.472 435.39 493.233 438.952 492.9 444.082 492.483 450.624 491.589 463.768 490.326 482.504 488.813 504.992L488.813 505.063 488.813 505.123 445.344 567.992 434.775 583.249 434.703 582.822 460.012 600.311 459.619 600.371 505.828 543.153C511.524 536.124 516.052 530.532 519.174 526.697 520.723 524.797 521.915 523.325 522.749 522.315L523.678 521.199 524 520.831C523.913 520.971 523.816 521.105 523.714 521.235L522.82 522.422 519.317 526.851 506.114 543.414 460.119 600.786 459.953 601 459.726 600.846 434.25 583.38 434 583.202 434.179 582.953 444.736 567.695 488.277 504.873 488.277 505.004C489.885 482.528 491.232 463.792 492.173 450.648 492.662 444.106 493.043 438.964 493.305 435.426 493.436 433.681 493.543 432.351 493.615 431.413 493.615 430.974 493.686 430.641 493.71 430.392 493.692 430.262 493.692 430.129 493.71 430Z" fill="#455A64" fill-rule="evenodd"/><path d="M491.715 600 491.075 622.993C491.075 622.993 514.704 631.35 515 635.616L469.498 636 469 600.14Z" fill="#263238" fill-rule="evenodd"/><path d="M477.113 621.064C476.341 621.389 475.874 622.439 476.03 623.502 476.247 624.549 477.039 625.186 477.831 624.952 478.649 624.606 479.14 623.489 478.965 622.364 478.657 621.279 477.753 620.729 476.941 621.132" fill="#E0E0E0" fill-rule="evenodd"/><path d="M470 636 470.094 633 513.191 633.81C513.191 633.81 515.195 634.514 514.984 635.682Z" fill="#455A64" fill-rule="evenodd"/><path d="M491.999 623.222C491.999 623.459 490.853 623.572 489.868 624.333 488.883 625.095 488.264 626.082 488.058 625.995 487.851 625.907 488.172 624.546 489.456 623.647 490.739 622.747 492.034 622.972 491.999 623.222Z" fill="#FFFFFF" fill-rule="evenodd"/><path d="M497 625.074C497 625.254 496.092 625.582 495.349 626.378 494.606 627.174 494.393 628 494.169 628 493.945 628 493.792 626.935 494.735 625.96 495.679 624.985 496.988 624.895 497 625.074Z" fill="#FFFFFF" fill-rule="evenodd"/><path d="M499.287 631C499.083 631 498.759 629.905 499.287 628.637 499.815 627.369 500.894 626.852 500.99 627.036 501.086 627.221 500.45 627.91 499.995 628.969 499.539 630.028 499.515 630.975 499.287 631Z" fill="#FFFFFF" fill-rule="evenodd"/><path d="M490.994 617.685C490.914 617.862 490.058 617.602 489.003 617.685 487.947 617.768 487.131 618.123 487.012 617.956 486.892 617.789 487.699 617.091 488.943 617.008 490.187 616.924 491.083 617.529 490.994 617.685Z" fill="#FFFFFF" fill-rule="evenodd"/><path d="M506.922 226.275C504.154 225.972 501.367 225.92 498.591 226.116 496.818 226.238 486.923 230.545 486.001 231.35 485.08 232.155 472 242.33 472 242.33L477.402 250.992C477.402 250.992 482.816 251.26 485.033 248.711 486.731 246.51 488.172 244.106 489.327 241.549L492.757 241.317C492.757 241.317 490.109 243.513 490.552 244.782 490.995 246.051 492.582 245.258 492.582 245.258L492.967 245.697C493.652 246.471 494.803 246.53 495.557 245.831 496.934 244.55 498.883 242.623 499.058 241.732 499.14 241.366 499.058 238.658 499.058 238.658 499.823 237.38 499.735 235.737 498.836 234.559 497.815 233.456 496.634 232.53 495.336 231.814L499.326 229.691C499.326 229.691 507.902 230.032 506.922 226.275Z" fill="#FFBF9D" fill-rule="evenodd"/><path d="M492.392 237.006C493.179 236.964 493.958 237.156 494.615 237.553 495.37 237.919 496.032 238.428 496.557 239.045 496.948 239.448 497.093 240.003 496.941 240.524 496.731 240.997 496.428 241.432 496.046 241.806 495.356 242.552 494.768 243.297 494.091 243.915 493.517 244.539 492.695 244.928 491.804 244.998 491.188 245.024 490.595 244.782 490.207 244.346 489.951 244.02 489.989 243.787 490.028 243.787 490.066 243.787 490.13 243.973 490.398 244.194 490.784 244.485 491.28 244.623 491.778 244.579 493.056 244.509 494.206 242.889 495.522 241.433 497.528 239.965 495.343 238.555 494.372 237.938 493.401 237.32 492.366 237.099 492.392 237.006Z" fill="#FF9A6C" fill-rule="evenodd"/><path d="M493 235C495.87 235.041 498.34 236.688 499 239 498.241 238.122 497.378 237.308 496.427 236.569 495.346 235.959 494.199 235.433 493 235Z" fill="#FF9A6C" fill-rule="evenodd"/><path d="M491 231.164C492.561 230.803 494.199 231.043 495.594 231.836 497.085 232.418 498.302 233.55 499 235 497.876 234.018 496.658 233.15 495.364 232.41 493.954 231.849 492.492 231.432 491 231.164Z" fill="#FF9A6C" fill-rule="evenodd"/><path d="M488 230.479C488.36 230.234 488.744 230.029 489.144 229.868 489.899 229.52 491.008 229.029 492.381 228.442 493.754 227.855 495.401 227.172 497.254 226.478 497.736 226.266 498.238 226.113 498.753 226.022 499.29 225.992 499.828 225.992 500.365 226.022 501.441 226.022 502.539 226.13 503.671 226.226 504.804 226.322 505.742 226.418 506.726 226.526L507 226.526 507 226.777C506.994 227.03 506.971 227.283 506.931 227.532 506.865 227.77 506.764 227.997 506.634 228.203 506.366 228.587 506.019 228.903 505.616 229.125 504.899 229.5 504.124 229.743 503.328 229.844 502.008 230.025 500.673 230.052 499.347 229.928L499.45 229.928 496.408 231.497C496.047 231.713 495.663 231.882 495.264 232 495.582 231.717 495.932 231.475 496.305 231.281L499.267 229.544 499.267 229.544 499.336 229.544C500.627 229.617 501.923 229.553 503.202 229.353 503.929 229.247 504.633 229.012 505.284 228.658 505.957 228.343 506.382 227.632 506.359 226.861L506.623 227.149 503.671 226.885C502.527 226.801 501.452 226.717 500.388 226.681 499.878 226.651 499.366 226.651 498.855 226.681 498.383 226.77 497.919 226.906 497.471 227.089 495.63 227.747 493.971 228.406 492.576 228.933L489.27 230.131C488.864 230.307 488.437 230.425 488 230.479Z" fill="#FF9A6C" fill-rule="evenodd"/><path d="M581.906 303C582.066 303.058 581.553 304.796 581.574 307.006 581.596 309.216 582.13 310.943 581.97 311 581.269 309.81 580.937 308.412 581.018 307.006 580.919 305.604 581.231 304.204 581.906 303Z" fill="#FF9A6C" fill-rule="evenodd"/><path d="M561.516 297.817 602.012 321.137C602.012 321.137 610.257 338.624 605.546 340.871 600.834 343.118 589.208 341.433 586.382 340.74 583.555 340.047 543 329.66 543 329.66L547.712 293 558.442 296.431C559.512 296.783 560.542 297.248 561.516 297.817Z" fill="#455A64" fill-rule="evenodd"/><path d="M456.461 380.885C458.988 371.404 464.544 349.782 464.544 349.782L476.015 282.649 501.723 282.828 503.854 278.332C504.32 277.389 505.351 276.86 506.393 277.032L533.633 281.862C534.872 282.098 535.715 283.25 535.561 284.498L535.058 288.076 555.797 295.744 558 325.882 541.296 394.361 540.279 404.01C540.02 406.304 538.819 408.389 536.962 409.77L534.052 412 458.76 394.683 456.904 389.603C455.875 386.809 455.72 383.769 456.461 380.885Z" fill="#455A64" fill-rule="evenodd"/><path d="M535 410.094 534.295 420 454 401.729 456.879 389 535 410.094Z" fill="#455A64" fill-rule="evenodd"/><path d="M464.912 395C465.066 396.343 465.018 397.701 464.772 399.029 464.726 400.384 464.473 401.722 464.023 403 463.911 400.304 464.211 397.606 464.912 395Z" fill="#263238" fill-rule="evenodd"/><path d="M476.995 398C477.024 399.369 476.923 400.738 476.696 402.064 476.596 403.421 476.364 404.748 476.006 406 475.973 404.634 476.074 403.268 476.305 401.948 476.399 400.585 476.633 399.254 476.995 398Z" fill="#263238" fill-rule="evenodd"/><path d="M491 402C490.921 404.725 490.256 407.424 489.025 410 488.927 408.637 489.115 407.272 489.582 405.951 489.771 404.59 490.251 403.256 491 402Z" fill="#263238" fill-rule="evenodd"/><path d="M507 406C506.917 408.722 506.58 411.414 506 414 506.083 411.278 506.42 408.586 507 406Z" fill="#263238" fill-rule="evenodd"/><path d="M523 409C522.932 410.392 522.685 411.767 522.267 413.082 522.019 414.45 521.592 415.77 521 417 521.307 414.237 521.981 411.541 523 409Z" fill="#263238" fill-rule="evenodd"/><path d="M476.773 282.357 472.643 282.417 450.549 277.476 481 255.964 469.761 239C469.761 239 427.507 264.321 422.152 269.667 411.345 280.452 415.956 292.417 426.859 298.143 430.101 299.857 473.399 316 473.399 316Z" fill="#455A64" fill-rule="evenodd"/><path d="M465.011 354C464.842 354 466.707 339.835 469.174 322.459 471.64 305.083 473.794 290.988 473.987 291 474.179 291.012 472.302 305.165 469.823 322.541 467.345 339.917 465.179 354.024 465.011 354Z" fill="#263238" fill-rule="evenodd"/><path d="M444 282C445.163 280.927 446.454 280.003 447.844 279.252 449.133 278.334 450.529 277.578 452 277 450.838 278.075 449.547 278.998 448.156 279.748 446.868 280.668 445.473 281.425 444 282Z" fill="#263238" fill-rule="evenodd"/><path d="M483 347C483 347 483.157 347.155 483.386 347.477L484.387 348.909C485.291 350.245 486.521 352.035 488.005 354.219 491.068 358.693 495.385 364.826 500.353 371.459 505.322 378.093 510.001 383.94 513.462 388.163L517.55 393.127 518.647 394.487C518.901 394.809 519.021 394.976 518.997 395 518.835 394.856 518.693 394.691 518.575 394.511 518.261 394.165 517.863 393.747 517.369 393.222 516.344 392.101 514.885 390.454 513.124 388.378 509.591 384.25 504.839 378.415 499.859 371.782 494.878 365.148 490.609 358.955 487.631 354.421 486.135 352.142 484.966 350.293 484.17 348.993L483.265 347.501C483.162 347.342 483.072 347.175 483 347Z" fill="#263238" fill-rule="evenodd"/><path d="M492 331C492.344 331.46 492.652 331.947 492.918 332.457 493.537 333.507 494.324 334.845 495.301 336.492 497.279 339.895 500.068 344.587 503.202 349.697 506.336 354.807 509.351 359.356 511.544 362.639L514.118 366.531C514.459 366.991 514.755 367.483 515 368 514.593 367.599 514.229 367.153 513.916 366.675 513.248 365.791 512.319 364.502 511.187 362.89 508.91 359.666 505.871 355.141 502.69 350.019 499.508 344.897 496.815 340.169 494.932 336.707 493.99 334.964 493.251 333.555 492.763 332.564 492.455 332.071 492.2 331.547 492 331Z" fill="#263238" fill-rule="evenodd"/><path d="M502 283.008C502 282.913 503.699 283.718 506.476 284.771 513.723 287.514 521.461 288.758 529.213 288.429 532.181 288.299 534 288.05 534 288.157 533.591 288.301 533.165 288.397 532.732 288.441 531.567 288.641 530.392 288.784 529.213 288.867 521.38 289.436 513.52 288.172 506.272 285.174 505.177 284.728 504.107 284.226 503.065 283.67 502.683 283.495 502.326 283.273 502 283.008Z" fill="#263238" fill-rule="evenodd"/><path d="M487 354C489.301 369.337 499.461 382.507 514 389Z" fill-rule="evenodd"/><path d="M559.99 312C560.162 312 558.073 321.025 555.32 332.072 552.566 343.119 550.182 352.048 550.01 352 549.838 351.952 551.94 342.975 554.693 331.928 557.446 320.881 559.83 311.952 559.99 312Z" fill="#263238" fill-rule="evenodd"/><path d="M612 454 615.047 454C617.23 454 619 452.172 619 449.919L619 324.229C619 320.237 615.866 317 612 317L612 317Z" fill="#B9D0E9" fill-rule="evenodd"/><path d="M608.988 620 574 620 574 620 574 320.709C574 310.928 581.835 303 591.5 303L591.5 303C601.165 303 609 310.928 609 320.709L609 620 609 620Z" fill="#E0E0E0" fill-rule="evenodd"/><path d="M574 448 609 484.366 609 500 574 464.513 574 448Z" fill="#FFFFFF" fill-rule="evenodd"/><path d="M574 474 609 510.504 609 518 574 482.367 574 474Z" fill="#FFFFFF" fill-rule="evenodd"/><path d="M612 419 572 419 572 419 572 320.583C572 309.777 580.856 301.013 591.79 301L592.15 301C603.094 301 611.964 309.767 611.964 320.583L611.964 419 611.964 419Z" fill="#B9D0E9" fill-rule="evenodd"/><path d="M611.5 453C611.211 453 611 423.446 611 387.006 611 350.566 611.211 321 611.5 321 611.789 321 612 350.543 612 387.006 612 423.469 611.769 453 611.5 453Z" fill="#263238" fill-rule="evenodd"/><path d="M599.517 637 583.424 637C578.22 637 574 632.715 574 627.429L574 620 574 620 609 620 609 620 609 627.429C609 632.715 604.78 637 599.576 637 599.556 637 599.537 637 599.517 637Z" fill="#B9D0E9" fill-rule="evenodd"/><path d="M603.5 420C603.789 420 604 465.006 604 520.5 604 575.994 603.789 621 603.5 621 603.211 621 603 576.006 603 520.5 603 464.994 603.231 420 603.5 420Z" fill="#263238" fill-rule="evenodd"/><path d="M591.5 420C591.789 420 592 465.006 592 520.5 592 575.994 591.789 621 591.5 621 591.212 621 591 576.006 591 520.5 591 464.994 591.231 420 591.5 420Z" fill="#263238" fill-rule="evenodd"/><path d="M580.5 420C580.769 420 581 465.006 581 520.5 581 575.994 580.769 621 580.5 621 580.231 621 580 576.006 580 520.5 580 464.994 580.269 420 580.5 420Z" fill="#263238" fill-rule="evenodd"/><path d="M601.265 297.085C600.253 296.062 598.68 295.725 597.296 296.234 594.391 297.676 591.842 299.679 589.817 302.111 589.817 302.111 586.596 300.591 585.631 301.612 584.666 302.633 584.521 304.199 587.284 306.07 587.284 306.07 586.548 310.608 589.226 310.676 591.904 310.744 592.411 309.031 592.411 309.031 592.411 309.031 592.037 312.696 597.127 311.198 597.423 312.141 598.122 312.926 599.057 313.365 599.87 313.701 600.787 313.738 601.627 313.467 601.627 313.467 602.544 315.351 604.269 314.942 607.608 314.012 610.839 312.773 613.919 311.244 615.592 310.174 616.362 308.226 615.837 306.388 615.161 304.766 612.508 303.994 612.508 303.994 612.204 302.077 610.479 300.641 608.418 300.591 607.916 297.983 605.261 296.251 602.489 296.723 602.066 296.795 601.655 296.916 601.265 297.085Z" fill="#FFBF9D" fill-rule="evenodd"/><path d="M610 308C608.797 309.209 607.459 310.242 606.018 311.074 604.846 311.849 603.874 312.559 603.171 313.115 602.469 313.67 602 314.058 602 313.993 602 313.928 602.246 313.412 602.914 312.701 603.784 311.857 604.721 311.101 605.713 310.441 607.047 309.44 608.487 308.62 610 308Z" fill="#FF9A6C" fill-rule="evenodd"/><path d="M606 305C604.718 306.243 603.285 307.348 601.731 308.294 600.295 309.388 598.703 310.298 597 311 598.375 309.87 599.841 308.835 601.382 307.902 602.811 306.795 604.359 305.823 606 305Z" fill="#FF9A6C" fill-rule="evenodd"/><path d="M600.976 301C601.071 301.144 598.708 302.584 596.084 304.69 594.952 305.564 593.897 306.52 592.925 307.548 592.581 308.004 592.288 308.49 592.047 309 591.975 309 591.892 308.258 592.569 307.316 594.848 304.67 597.727 302.528 601 301.044Z" fill="#FF9A6C" fill-rule="evenodd"/><path d="M594.995 297C595.129 297.175 592.786 298.937 590.432 301.612 589.443 302.761 588.542 303.986 587.735 305.275 587.457 305.823 587.245 306.401 587.101 307 587.028 307 586.82 306.188 587.357 305.05 588.077 303.651 588.958 302.346 589.98 301.162 591.371 299.454 593.074 298.04 594.995 297Z" fill="#FF9A6C" fill-rule="evenodd"/></g></svg>