<svg width="756" height="756" xmlns="http://www.w3.org/2000/svg" xmlns:xlink="http://www.w3.org/1999/xlink" overflow="hidden"><defs><clipPath id="clip0"><rect x="0" y="0" width="756" height="756"/></clipPath></defs><g clip-path="url(#clip0)"><rect x="0" y="0" width="756" height="756" fill="#000000" fill-opacity="0"/><path d="M239.016 610 119 540.256 322 423 239.016 610Z" fill="#121620" fill-rule="evenodd"/><path d="M66.3464 535.988 115.003 564.215C117.054 565.262 119.479 565.262 121.53 564.215L188.642 524.811C189.681 524.465 190.243 523.337 189.899 522.294 189.701 521.696 189.236 521.227 188.642 521.029L139.986 492.785C137.934 491.738 135.511 491.738 133.459 492.785L66.3464 532.189C65.3039 532.55 64.7503 533.695 65.1096 534.743 65.3097 535.328 65.7658 535.787 66.3464 535.988Z" fill="#121620" fill-rule="evenodd"/><path d="M71.3853 532C68.0614 526.581 57.8068 520.623 44.3449 517.677 30.8828 514.732 17.3545 511.13 20.4456 503.169 23.7696 494.637 36.301 494.216 48.5497 499.299 61.9285 504.853 71.8173 518.586 72.0002 527.237Z" fill="#B9D0E9" fill-rule="evenodd"/><path d="M71.3853 532C68.0614 526.581 57.8068 520.623 44.3449 517.677 30.8828 514.732 17.3545 511.13 20.4456 503.169 23.7696 494.637 36.301 494.216 48.5497 499.299 61.9285 504.853 71.8173 518.586 72.0002 527.237Z" fill="#E0E0E0" fill-rule="evenodd"/><path d="M72.905 528.999C72.5129 528.995 72.1581 528.77 71.9948 528.423 61.1583 506.528 36.03 502.989 28.1762 504.191 27.6187 504.27 27.1001 503.894 27.0134 503.351 26.9232 502.813 27.2965 502.304 27.8477 502.217 27.8505 502.217 27.8532 502.215 27.8562 502.215 36.1816 500.964 62.557 504.635 73.8994 527.567 74.1419 528.062 73.9316 528.656 73.4275 528.9 73.264 528.974 73.0847 529.007 72.905 528.999Z" fill="#FFFFFF" fill-rule="evenodd"/><path d="M71.617 532C71.617 532 65.0257 505.941 48.3178 491.934 43.3615 487.77 38.0988 482.551 34.3689 478.964 26.4322 471.247 29.7534 462.833 40.7388 463.003 57.0891 463.223 69.0452 476.958 74.2228 494.926 79.4004 512.894 71.617 532 71.617 532Z" fill="#B9D0E9" fill-rule="evenodd"/><path d="M74.005 522C73.485 522.004 73.0484 521.601 72.9973 521.074 70.0236 488.249 45.4409 471.752 38.7501 470.002 38.2163 469.862 37.8947 469.308 38.0315 468.764 38.1682 468.221 38.712 467.892 39.2457 468.032 47.3738 470.153 71.94 487.273 74.9962 520.889 75.0443 521.451 74.6384 521.946 74.0877 522Z" fill="#FFFFFF" fill-rule="evenodd"/><path d="M117 560 71.0168 533.481 71 435 117 461.519 117 560Z" fill="#263238" fill-rule="evenodd"/><path d="M117 461.78 182 424 182 522.22 117 560 117 461.78Z" fill="#37474F" fill-rule="evenodd"/><path d="M182 423.355 116.708 461 71 434.645 136.309 397 182 423.355Z" fill="#455A64" fill-rule="evenodd"/><path d="M145.081 460.142 153.919 455.333C155.068 454.706 156 454.988 156 455.975 155.829 457.191 155.058 458.259 153.919 458.858L145.081 463.667C143.932 464.294 143 464.012 143 463.025 143.171 461.809 143.942 460.741 145.081 460.142Z" fill="#263238" fill-rule="evenodd"/><path d="M122 511.537 174.783 481 176 481.694 174.783 517.752 176 518.464 123.217 549 122 548.289 122 511.537Z" fill="#263238" fill-rule="evenodd"/><path d="M123 512.398 176 482 176 518.602 123 549 123 512.398Z" fill="#455A64" fill-rule="evenodd"/><path d="M144.081 506.699 152.919 501.371C154.068 500.674 155 500.988 155 502.067 154.832 503.424 154.06 504.618 152.919 505.289L144.081 510.634C142.932 511.331 142 511 142 509.92 142.173 508.566 142.944 507.373 144.081 506.699Z" fill="#263238" fill-rule="evenodd"/><path d="M122 466.087 174.783 436 176 436.684 174.783 472.212 176 472.913 123.217 503 122 502.299 122 466.087Z" fill="#263238" fill-rule="evenodd"/><path d="M123 466.398 176 436 176 472.602 123 503 123 466.398Z" fill="#455A64" fill-rule="evenodd"/><path d="M144.081 461.129 152.919 456.334C154.068 455.707 155 455.989 155 456.961 154.832 458.181 154.06 459.256 152.919 459.86L144.081 464.671C142.932 465.298 142 465 142 464.028 142.173 462.809 142.944 461.736 144.081 461.129Z" fill="#263238" fill-rule="evenodd"/><path d="M117 457 71.0168 430.484 71 332 117 358.516 117 457Z" fill="#263238" fill-rule="evenodd"/><path d="M117 358.775 182 321 182 419.225 117 457 117 358.775Z" fill="#37474F" fill-rule="evenodd"/><path d="M182 320.767 116.708 359 71 332.233 136.309 294 182 320.767Z" fill="#455A64" fill-rule="evenodd"/><path d="M123 362.529 175.783 332 177 332.711 177 369.454 124.217 400 123 399.289 123 362.529Z" fill="#263238" fill-rule="evenodd"/><path d="M145.081 357.711 153.919 352.366C155.068 351.669 156 352 156 353.08 155.827 354.434 155.056 355.627 153.919 356.301L145.081 361.629C143.932 362.326 143 362.012 143 360.933 143.168 359.576 143.941 358.382 145.081 357.711Z" fill="#263238" fill-rule="evenodd"/><path d="M122 408.537 174.783 378 174.783 414.769 176 415.464 123.217 446 122 445.306 122 408.537Z" fill="#263238" fill-rule="evenodd"/><path d="M123 409.415 176 379 176 415.602 123 446 123 409.415Z" fill="#455A64" fill-rule="evenodd"/><path d="M144.081 403.714 152.919 398.37C154.068 397.674 155 397.987 155 399.084 154.829 400.434 154.058 401.621 152.919 402.286L144.081 407.63C142.932 408.326 142 408.013 142 406.916 142.171 405.566 142.942 404.379 144.081 403.714Z" fill="#263238" fill-rule="evenodd"/><path d="M123 362.398 176 332 176 368.602 123 399 123 362.398Z" fill="#263238" fill-rule="evenodd"/><path d="M202 350.326 173 334 173 365.658 202 382 202 350.326Z" fill="#263238" fill-rule="evenodd"/><path d="M143 404 143 358.672 154.277 352.17 156.145 354.902 189 336 189 377.557 143 404Z" fill="#B9D0E9" fill-rule="evenodd"/><path d="M143 404 143 358.672 154.277 352.17 156.145 354.902 189 336 189 377.557 143 404Z" fill-rule="evenodd"/><path d="M143 404 146.263 364.4 192 338 188.737 377.6 143 404Z" fill="#B9D0E9" fill-rule="evenodd"/><path d="M150 380.581 125 366 125 398.418 150 413 150 380.581Z" fill="#37474F" fill-rule="evenodd"/><path d="M150 377.398 202 347 202 383.585 150 414 150 377.398Z" fill="#455A64" fill-rule="evenodd"/><path d="M170.081 371.711 178.919 366.366C180.068 365.669 181 366 181 367.08 180.827 368.434 180.056 369.627 178.919 370.301L170.081 375.629C168.932 376.326 168 376.012 168 374.933 168.173 373.578 168.944 372.385 170.081 371.711Z" fill="#263238" fill-rule="evenodd"/><path d="M150 377.995 148 377 148 413.005 150 414 150 377.995Z" fill="#263238" fill-rule="evenodd"/><path d="M148 376.97 200.26 346 202 347.031 149.74 378 148 376.97Z" fill="#37474F" fill-rule="evenodd"/><path d="M589 113.972 582.159 110 233.027 311.292 233.027 602.845C232.837 604.683 233.648 606.48 235.151 607.557L235.151 607.557 241.992 611.529 241.992 611.529C243.682 612.305 245.659 612.112 247.165 611.024L581.653 418.098C585.958 415.29 588.67 410.603 588.95 405.475Z" fill="#E6E6E6" fill-rule="evenodd"/><path d="M240 606.799C240 611.443 243.251 613.328 247.295 611.006L581.705 418.097C586.01 415.29 588.72 410.603 589 405.475L589 114 240 315.29Z" fill="#FAFAFA" fill-rule="evenodd"/><path d="M587.316 116.911 587.316 405.531C587.034 410.059 584.647 414.193 580.864 416.704L246.502 609.543C245.773 610.004 244.937 610.27 244.076 610.318 241.954 610.318 241.735 607.861 241.735 606.801L241.735 316.279 587.316 116.911M589 114 240 315.32 240 606.801C240 610.166 241.684 612 244.026 612 245.183 611.955 246.308 611.613 247.294 611.007L581.656 418.117C585.96 415.311 588.67 410.624 588.95 405.497L588.95 114.051Z" fill="#E0E0E0" fill-rule="evenodd"/><path d="M240 315.425 240 347 589 145.575 589 114 240 315.425Z" fill="#B9D0E9" fill-rule="evenodd"/><path d="M459 201.71 459 208.444C459 209.825 459.99 210.397 461.18 209.707L568 147.785 568 136 461.18 197.989C459.917 198.823 459.111 200.197 459 201.71Z" fill="#FAFAFA" fill-rule="evenodd"/><path d="M579.761 129.308C581.001 128.59 582 129.171 582 130.589L582 137.424C581.917 138.987 581.086 140.416 579.761 141.268L568 148 568 136.04Z" fill="#455A64" fill-rule="evenodd"/><path d="M578.729 138.751 577.428 138.372C577.571 137.857 577.644 137.327 577.647 136.795 577.766 135.808 577.314 134.836 576.464 134.24 575.887 133.92 575.167 133.92 574.589 134.24 572.93 135.429 571.975 137.286 572.021 139.24 571.896 140.228 572.347 141.202 573.203 141.795 573.447 141.934 573.729 142.005 574.014 142 574.384 141.992 574.746 141.895 575.062 141.716 576.047 141.089 576.779 140.173 577.14 139.113L578.441 139.492 578.543 139.492C578.749 139.495 578.933 139.374 578.999 139.192 579.012 139.008 578.906 138.833 578.729 138.751ZM574.589 141.053C574.327 141.241 573.972 141.272 573.676 141.132 573.144 140.681 572.886 140.014 572.984 139.35 572.95 137.719 573.715 136.162 575.062 135.123 575.241 135.02 575.444 134.96 575.653 134.949 575.773 134.949 575.892 134.982 575.991 135.044 576.515 135.5 576.774 136.163 576.684 136.826 576.711 138.46 575.941 140.016 574.589 141.053Z" fill="#FAFAFA" fill-rule="evenodd"/><path d="M580.003 90.515C578.31 89.6861 576.296 89.8681 574.779 90.9867L240.296 284.094C235.984 286.897 233.273 291.594 233 296.728L233 312.008 239.841 316 588.967 114.453 588.967 99.1738C589.176 97.3401 588.369 95.5384 586.861 94.4737 585.597 93.7325 581.199 91.2393 580.003 90.515Z" fill="#263238" fill-rule="evenodd"/><path d="M240 300.719C240.266 295.583 242.98 290.884 247.295 288.084L581.705 94.9955C585.732 92.6705 589 94.5574 589 99.2073L589 114.488 240 316Z" fill="#37474F" fill-rule="evenodd"/><path d="M586 94.5039C584.305 93.6585 582.279 93.8335 580.754 94.9577L247.005 287.571C244.854 288.913 243.084 290.782 241.86 293L235 289.05C236.229 286.827 238.006 284.951 240.162 283.605L573.928 90.9742C575.444 89.8636 577.454 89.6889 579.14 90.5205 580.334 91.2431 584.705 93.7476 585.865 94.4534Z" fill="#455A64" fill-rule="evenodd"/><path d="M547.5 122.497C545.421 123.848 544.123 126.084 544 128.522 544 130.73 545.592 131.637 547.5 130.524 549.578 129.174 550.876 126.938 550.999 124.5 551.051 122.258 549.459 121.35 547.5 122.497Z" fill="#B9D0E9" fill-rule="evenodd"/><path d="M559.499 115.48C557.421 116.828 556.122 119.065 556 121.505 556 123.737 557.592 124.63 559.499 123.531 561.573 122.173 562.871 119.932 562.999 117.489 563.051 115.257 561.459 114.365 559.499 115.48Z" fill="#B9D0E9" fill-rule="evenodd"/><path d="M571.499 108.477C569.421 109.83 568.122 112.071 568 114.514 568 116.743 569.592 117.635 571.499 116.52 573.583 115.173 574.884 112.929 574.998 110.483 575.068 108.271 573.476 107.362 571.499 108.477Z" fill="#B9D0E9" fill-rule="evenodd"/><path d="M247.249 611.015 308 575.832 308 308 240 347.399 240 606.817C240 611.452 243.231 613.316 247.249 611.015Z" fill="#F5F5F5" fill-rule="evenodd"/><path d="M306.326 310.905 306.326 574.852 246.412 609.548C245.687 610.008 244.856 610.274 244.001 610.321 241.892 610.321 241.674 607.869 241.674 606.811L241.674 348.355 306.326 310.905M308 308 240 347.398 240 606.811C240 610.17 241.674 612 244.001 612 245.151 611.955 246.269 611.614 247.249 611.009L308 575.826 308 308Z" fill="#E0E0E0" fill-rule="evenodd"/><path d="M262.242 349.658 295.775 330.31C297 329.588 298 330.172 298 331.6L298 334.506C297.914 336.075 297.088 337.509 295.775 338.376L262.242 357.69C261.001 358.412 260 357.828 260 356.4L260 353.528C260.093 351.958 260.924 350.523 262.242 349.658Z" fill="#E0E0E0" fill-rule="evenodd"/><path d="M254 357.584 254 360.452C253.914 362.002 253.081 363.421 251.759 364.269L249.241 365.694C248 366.407 247 365.83 247 364.422L247 361.555C247.086 360.004 247.917 358.585 249.241 357.737L251.759 356.312C253 355.599 254 356.142 254 357.584Z" fill="#B9D0E9" fill-rule="evenodd"/><path d="M262.242 365.629 295.775 346.31C297 345.588 298 346.173 298 347.584L298 350.491C297.914 352.063 297.089 353.505 295.775 354.379L262.242 373.698C261.001 374.403 260 373.835 260 372.407L260 369.5C260.088 367.928 260.921 366.491 262.242 365.629Z" fill="#E0E0E0" fill-rule="evenodd"/><path d="M254 373.59 254 376.452C253.917 378.002 253.085 379.419 251.759 380.263L249.241 381.702C248 382.397 247 381.838 247 380.432L247 377.57C247.083 376.021 247.916 374.603 249.241 373.76L251.759 372.32C253 371.575 254 372.185 254 373.59Z" fill="#B9D0E9" fill-rule="evenodd"/><path d="M262.242 380.921 295.775 362.292C297 361.612 298 362.159 298 363.536L298 366.339C297.919 367.854 297.093 369.239 295.775 370.072L262.242 388.701C261.001 389.397 260 388.833 260 387.473L260 384.653C260.097 383.139 260.926 381.757 262.242 380.921Z" fill="#E0E0E0" fill-rule="evenodd"/><path d="M254 388.572 254 391.441C253.917 392.995 253.085 394.416 251.759 395.261L249.241 396.705C248 397.401 247 396.823 247 395.431L247 392.545C247.091 390.993 247.922 389.577 249.241 388.725L251.759 387.299C253 386.602 254 387.163 254 388.572Z" fill="#B9D0E9" fill-rule="evenodd"/><path d="M262.242 433.632 295.775 414.302C297 413.597 298 414.165 298 415.592L298 418.499C297.919 420.069 297.093 421.505 295.775 422.368L262.242 441.698C261.001 442.403 260 441.835 260 440.408L260 437.501C260.088 435.93 260.921 434.494 262.242 433.632Z" fill="#E0E0E0" fill-rule="evenodd"/><path d="M254 441.414 254 443.996C253.917 445.394 253.085 446.672 251.759 447.433L249.241 448.732C248 449.358 247 448.854 247 447.586L247 445.004C247.083 443.606 247.916 442.328 249.241 441.567L251.759 440.269C253 439.642 254 440.146 254 441.414Z" fill="#B9D0E9" fill-rule="evenodd"/><path d="M262.242 446.911 295.775 428.292C297 427.611 298 428.159 298 429.538L298 432.345C297.919 433.861 297.093 435.248 295.775 436.082L262.242 454.701C261.001 455.398 260 454.834 260 453.455L260 450.648C260.097 449.132 260.926 447.748 262.242 446.911Z" fill="#E0E0E0" fill-rule="evenodd"/><path d="M254 454.568 254 457.441C253.917 458.996 253.085 460.419 251.759 461.266L249.241 462.694C248 463.408 247 462.83 247 461.419L247 458.546C247.091 456.992 247.922 455.574 249.241 454.721L251.759 453.293C253 452.596 254 453.191 254 454.568Z" fill="#B9D0E9" fill-rule="evenodd"/><path d="M262.242 460.923 295.775 442.299C297 441.602 298 442.166 298 443.543L298 446.346C297.914 447.858 297.088 449.241 295.775 450.077L262.242 468.701C261.001 469.398 260 468.834 260 467.457L260 464.655C260.093 463.14 260.924 461.757 262.242 460.923Z" fill="#E0E0E0" fill-rule="evenodd"/><path d="M254 468.579 254 471.448C253.914 473 253.081 474.419 251.759 475.268L249.241 476.694C248 477.407 247 476.83 247 475.421L247 472.552C247.086 471 247.917 469.581 249.241 468.732L251.759 467.306C253 466.593 254 467.17 254 468.579Z" fill="#B9D0E9" fill-rule="evenodd"/><path d="M260 398 260 403 265 398 260 398Z" fill="#B9D0E9" fill-rule="evenodd"/><path d="M267 397.009C267 397.912 267.656 398.257 268.484 397.797L296.516 382.466C297.396 381.918 297.947 381.003 298 380.004 298 379.101 297.344 378.74 296.516 379.2L268.484 394.58C267.611 395.118 267.059 396.021 267 397.009Z" fill="#E0E0E0" fill-rule="evenodd"/><path d="M260 406 260 411 265 406 260 406Z" fill="#B9D0E9" fill-rule="evenodd"/><path d="M267 405.012C267 405.898 267.656 406.26 268.484 405.8L296.516 390.45C297.396 389.91 297.95 388.999 298 388.004 298 387.101 297.344 386.74 296.516 387.2L268.484 402.582C267.611 403.121 267.059 404.024 267 405.012Z" fill="#E0E0E0" fill-rule="evenodd"/><path d="M260 414 260 419 265 414 260 414Z" fill="#B9D0E9" fill-rule="evenodd"/><path d="M267 413.012C267 413.899 267.656 414.26 268.484 413.8L296.516 398.45C297.396 397.91 297.95 396.999 298 396.004 298 395.101 297.344 394.74 296.516 395.2L268.484 410.582C267.611 411.121 267.059 412.024 267 413.012Z" fill="#E0E0E0" fill-rule="evenodd"/><path d="M260 422 260 427 265 422 260 422Z" fill="#B9D0E9" fill-rule="evenodd"/><path d="M267 421.012C267 421.898 267.656 422.26 268.484 421.8L296.516 406.45C297.396 405.91 297.95 404.999 298 404.004 298 403.101 297.344 402.74 296.516 403.2L268.484 418.582C267.611 419.121 267.059 420.024 267 421.012Z" fill="#E0E0E0" fill-rule="evenodd"/><path d="M329 316.875 329 358.072C329 359.758 330.196 360.5 331.675 359.64L376.325 333.479C377.907 332.442 378.902 330.699 379 328.793L379 294.928C379 293.242 377.804 292.5 376.325 293.36L350.419 308.531C348.94 309.391 347.744 308.7 347.744 306.98L347.744 305.901C347.744 304.216 346.564 303.474 345.085 304.334L331.675 312.172C330.095 313.217 329.101 314.965 329 316.875Z" fill="#B9D0E9" fill-rule="evenodd"/><path d="M338 365.989 338 368.589C338 369.847 338.91 370.36 340.021 369.731L373.979 350.456C375.173 349.691 375.924 348.411 376 347.011L376 344.412C376 343.153 375.09 342.64 373.979 343.269L340.021 362.544C338.827 363.309 338.076 364.589 338 365.989Z" fill="#E0E0E0" fill-rule="evenodd"/><path d="M392 280.891 392 322.086C392 323.772 393.197 324.496 394.66 323.637L439.324 297.494C440.9 296.452 441.894 294.712 442 292.808L442 258.928C442 257.242 440.803 256.5 439.324 257.36L413.41 272.53C411.93 273.39 410.75 272.682 410.75 270.963L410.75 269.884C410.75 268.198 409.553 267.473 408.074 268.333L394.66 276.188C393.084 277.235 392.095 278.983 392 280.891Z" fill="#B9D0E9" fill-rule="evenodd"/><path d="M401 329.772 401 332.526C401 333.843 401.909 334.373 403.021 333.723L436.979 313.711C438.171 312.913 438.921 311.585 439 310.137L439 307.468C439 306.151 438.09 305.621 436.979 306.288L403.021 326.197C401.829 326.996 401.079 328.323 401 329.772Z" fill="#E0E0E0" fill-rule="evenodd"/><path d="M329 399.834 329 441.071C329 442.758 330.196 443.5 331.675 442.64L376.325 416.453C377.883 415.426 378.875 413.713 379 411.83L379 377.916C379 376.229 377.804 375.503 376.325 376.364L350.419 391.549C348.94 392.41 347.744 391.718 347.744 389.997L347.744 388.917C347.744 387.23 346.564 386.487 345.085 387.348L331.675 395.211C330.117 396.238 329.125 397.951 329 399.834Z" fill="#B9D0E9" fill-rule="evenodd"/><path d="M338 448.84 338 451.536C338 452.842 338.91 453.374 340.021 452.721L373.979 432.732C375.169 431.935 375.919 430.609 376 429.16L376 426.464C376 425.159 375.09 424.626 373.979 425.279L340.021 445.268C338.827 446.062 338.076 447.389 338 448.84Z" fill="#E0E0E0" fill-rule="evenodd"/><path d="M392 363.875 392 405.072C392 406.758 393.197 407.5 394.66 406.64L439.324 380.479C440.901 379.445 441.896 377.711 442 375.809L442 341.928C442 340.242 440.803 339.5 439.324 340.36L413.41 355.531C411.93 356.391 410.75 355.683 410.75 353.963L410.75 352.884C410.75 351.199 409.553 350.457 408.074 351.334L394.66 359.189C393.086 360.231 392.098 361.972 392 363.875Z" fill="#B9D0E9" fill-rule="evenodd"/><path d="M401 411.996 401 414.579C401 415.853 401.909 416.367 403.021 415.721L436.979 396.469C438.171 395.696 438.921 394.411 439 393.009L439 390.427C439 389.152 438.09 388.639 436.979 389.268L403.021 408.537C401.829 409.31 401.079 410.594 401 411.996Z" fill="#E0E0E0" fill-rule="evenodd"/><path d="M455 242.875 455 284.072C455 285.758 456.221 286.5 457.713 285.64L503.287 259.479C504.89 258.435 505.898 256.696 506 254.793L506 220.928C506 219.242 504.779 218.5 503.287 219.36L476.838 234.531C475.346 235.407 474.125 234.7 474.125 232.98L474.125 231.901C474.125 230.216 472.904 229.474 471.395 230.334L457.713 238.206C456.112 239.244 455.105 240.979 455 242.875Z" fill="#B9D0E9" fill-rule="evenodd"/><path d="M463 293.84 463 296.536C463 297.841 463.908 298.374 465.035 297.721L498.965 277.732C500.166 276.943 500.923 275.616 501 274.16L501 271.481C501 270.158 500.092 269.626 498.965 270.278L465.069 290.268C463.855 291.048 463.084 292.379 463 293.84Z" fill="#E0E0E0" fill-rule="evenodd"/><path d="M517 208.891 517 250.086C517 251.772 518.221 252.496 519.73 251.637L565.287 225.494C566.89 224.45 567.898 222.711 568 220.808L568 186.928C568 185.242 566.796 184.5 565.287 185.36L538.855 200.53C537.346 201.39 536.125 200.682 536.125 198.963L536.125 197.884C536.125 196.198 534.921 195.473 533.412 196.333L519.73 204.188C518.112 205.228 517.095 206.978 517 208.891Z" fill="#B9D0E9" fill-rule="evenodd"/><path d="M526 257.911 526 260.52C526 261.842 526.893 262.374 528.021 261.722L561.979 241.74C563.168 240.942 563.916 239.618 564 238.169L564 235.474C564 234.152 563.091 233.62 561.979 234.289L528.021 254.254C526.805 255.066 526.052 256.429 526 257.911Z" fill="#E0E0E0" fill-rule="evenodd"/><path d="M463 375.981 463 378.586C463 379.847 463.908 380.361 465.035 379.731L498.965 360.436C500.166 359.675 500.923 358.392 501 356.986L501 354.414C501 353.153 500.092 352.639 498.965 353.269L465.069 372.58C463.868 373.324 463.099 374.588 463 375.981Z" fill="#E0E0E0" fill-rule="evenodd"/><path d="M463.915 318.568 499.085 298.392C500.686 297.473 502 298.225 502 300.064L502 340.415C501.889 342.451 500.807 344.314 499.085 345.429L463.915 365.605C462.23 366.524 461 365.788 461 363.933L461 323.582C461.113 321.546 462.197 319.684 463.915 318.568Z" fill="#FAFAFA" fill-rule="evenodd"/><path d="M463.408 367C463.003 367.003 462.604 366.899 462.25 366.698 461.397 366.12 460.923 365.116 461.01 364.078L461.01 323.537C461.128 321.186 462.36 319.038 464.317 317.777L498.892 297.507C499.732 296.912 500.823 296.835 501.736 297.305 502.588 297.88 503.067 298.874 502.993 299.908L502.993 340.449C502.875 342.8 501.643 344.948 499.686 346.209L465.111 366.496C464.597 366.812 464.01 366.985 463.408 367ZM500.545 298.682C500.238 298.694 499.94 298.793 499.686 298.968L465.111 319.238C463.674 320.199 462.766 321.793 462.664 323.537L462.664 364.078C462.664 364.666 462.813 365.086 463.077 365.237 463.487 365.374 463.939 365.299 464.284 365.035L498.859 344.765C500.291 343.791 501.195 342.195 501.306 340.449L501.306 299.908C501.357 299.473 501.197 299.042 500.876 298.75 500.774 298.699 500.66 298.677 500.545 298.682Z" fill="#EBEBEB" fill-rule="evenodd"/><path d="M504.021 303.393 495.996 307.896C494.231 309.009 493.117 310.875 493 312.917L493 321.923C493 323.781 494.343 324.534 495.996 323.597L504.021 319.094C505.781 317.978 506.886 316.111 507 314.072L507 305.067C507 303.225 505.657 302.472 504.021 303.393Z" fill="#B9D0E9" fill-rule="evenodd"/><path d="M467.41 322.982 484.59 313.188C485.361 312.747 486 313.106 486 314.02L486 314.559C485.941 315.55 485.42 316.456 484.59 317.007L467.41 326.802C466.623 327.259 465.984 326.9 466 325.986L466 325.431C466.051 324.436 466.574 323.527 467.41 322.982Z" fill="#EBEBEB" fill-rule="evenodd"/><path d="M467.41 331.008 484.59 321.196C485.361 320.738 486 321.114 486 322.013L486 322.553C485.949 323.549 485.426 324.46 484.59 325.006L467.41 334.819C466.623 335.276 465.984 334.819 466 334.001L466 333.428C466.061 332.446 466.584 331.548 467.41 331.008Z" fill="#EBEBEB" fill-rule="evenodd"/><path d="M467.41 338.695 484.59 328.201C485.361 327.729 486 328.114 486 329.076L486 329.671C485.941 330.732 485.42 331.703 484.59 332.294L467.41 342.788C466.623 343.278 465.984 342.893 466 341.913L466 341.319C466.048 340.254 466.572 339.278 467.41 338.695Z" fill="#EBEBEB" fill-rule="evenodd"/><path d="M467.439 346.7 496.545 329.187C497.348 328.714 498 329.187 498 330.063L498 330.658C497.941 331.726 497.401 332.702 496.545 333.285L467.439 350.798C466.636 351.271 465.984 350.886 466 349.923L466 349.31C466.057 348.25 466.591 347.282 467.439 346.7Z" fill="#EBEBEB" fill-rule="evenodd"/><path d="M467.439 353.905 496.545 337.186C497.348 336.718 498 337.186 498 338.022L498 338.573C497.945 339.593 497.403 340.526 496.545 341.081L467.439 357.8C466.636 358.268 465.984 357.884 466 356.964L466 356.396C466.049 355.383 466.586 354.455 467.439 353.905Z" fill="#EBEBEB" fill-rule="evenodd"/><path d="M525 340.843 525 343.521C525 344.842 525.91 345.374 527.021 344.722L560.979 324.744C562.177 323.946 562.928 322.612 563 321.157L563 318.48C563 317.158 562.108 316.626 560.979 317.278L527.021 337.256C525.829 338.057 525.079 339.389 525 340.843Z" fill="#E0E0E0" fill-rule="evenodd"/><path d="M525.926 282.879 561.074 262.409C562.756 261.459 564 262.222 564 264.105L564 305.044C563.881 307.112 562.794 309.001 561.074 310.132L525.926 330.602C524.244 331.535 523 330.772 523 328.906L523 287.966C523.113 285.896 524.199 284.005 525.926 282.879Z" fill="#FAFAFA" fill-rule="evenodd"/><path d="M524.478 332C524.064 332.003 523.656 331.898 523.294 331.694 522.422 331.113 521.932 330.104 522.008 329.055L522.008 287.963C522.121 285.573 523.383 283.389 525.392 282.107L560.76 261.561C561.901 260.662 563.549 260.865 564.442 262.012 564.882 262.578 565.075 263.301 564.974 264.012L564.974 305.105C564.857 307.489 563.594 309.667 561.589 310.943L526.221 331.489C525.695 331.809 525.094 331.985 524.478 332ZM526.171 283.588C524.692 284.565 523.757 286.188 523.649 287.963L523.649 329.055C523.597 329.496 523.761 329.934 524.089 330.23 524.512 330.369 524.976 330.288 525.324 330.008L560.692 309.462C562.168 308.49 563.102 306.875 563.214 305.105L563.214 264.012C563.422 263.509 563.185 262.932 562.684 262.722 562.269 262.549 561.791 262.681 561.521 263.042Z" fill="#EBEBEB" fill-rule="evenodd"/><path d="M565.004 268.403 556.979 272.906C555.219 274.022 554.114 275.889 554 277.928L554 286.933C554 288.775 555.343 289.528 556.979 288.607L565.004 284.104C566.765 282.988 567.878 281.123 568 279.083L568 270.077C568 268.219 566.64 267.466 565.004 268.403Z" fill="#B9D0E9" fill-rule="evenodd"/><path d="M528.496 286.983 546.504 277.181C547.329 276.724 548 277.181 548 277.998L548 278.554C547.948 279.552 547.391 280.465 546.504 281.004L528.496 290.805C527.671 291.262 527 290.886 527 289.988L527 289.416C527.065 288.427 527.621 287.523 528.496 286.983Z" fill="#EBEBEB" fill-rule="evenodd"/><path d="M528.496 294.978 546.504 285.174C547.329 284.733 548 285.174 548 285.991L548 286.547C547.94 287.544 547.384 288.454 546.504 288.998L528.496 298.802C527.671 299.259 527 298.9 527 297.985L527 297.429C527.057 296.433 527.614 295.521 528.496 294.978Z" fill="#EBEBEB" fill-rule="evenodd"/><path d="M528.496 302.999 546.504 293.182C547.329 292.724 548 293.182 548 294L548 294.54C547.943 295.538 547.386 296.451 546.504 296.994L528.496 306.812C527.671 307.254 527 306.893 527 305.993L527 305.404C527.076 304.424 527.629 303.534 528.496 302.999Z" fill="#EBEBEB" fill-rule="evenodd"/><path d="M528.455 310.975 557.546 294.201C558.348 293.731 559 294.117 559 295.039L559 295.509C558.942 296.532 558.401 297.467 557.546 298.025L528.455 314.8C527.652 315.269 527 314.883 527 313.961L527 313.391C527.082 312.401 527.62 311.507 528.455 310.975Z" fill="#EBEBEB" fill-rule="evenodd"/><path d="M528.455 318.898 557.546 302.192C558.348 301.741 559 302.109 559 303.028L559 303.596C558.942 304.615 558.401 305.545 557.546 306.102L528.455 322.808C527.652 323.259 527 322.891 527 321.972L527 321.388C527.063 320.375 527.603 319.452 528.455 318.898Z" fill="#EBEBEB" fill-rule="evenodd"/><path d="M463 459.989 463 462.589C463 463.847 463.908 464.361 465.035 463.731L498.965 444.456C500.166 443.696 500.923 442.416 501 441.011L501 438.411C501 437.153 500.092 436.64 498.965 437.269L465.069 456.544C463.855 457.296 463.084 458.58 463 459.989Z" fill="#E0E0E0" fill-rule="evenodd"/><path d="M463.978 402.568 499.09 382.392C500.688 381.473 502 382.225 502 384.064L502 424.415C501.884 426.451 500.804 428.309 499.09 429.429L463.91 449.605C462.228 450.524 461 449.789 461 447.933L461 407.582C461.123 405.533 462.232 403.666 463.978 402.568Z" fill="#FAFAFA" fill-rule="evenodd"/><path d="M463.408 451C463.002 451.004 462.604 450.899 462.25 450.698 461.401 450.115 460.928 449.114 461.009 448.078L461.009 407.536C461.126 405.184 462.359 403.036 464.318 401.775L498.876 381.537C499.999 380.662 501.609 380.879 502.471 382.019 502.884 382.567 503.066 383.256 502.979 383.939L502.979 424.481C502.861 426.833 501.629 428.981 499.67 430.242L465.079 450.513C464.571 450.815 463.997 450.983 463.408 451ZM500.563 382.663C500.257 382.683 499.961 382.78 499.703 382.948L465.112 403.236C463.671 404.195 462.763 405.791 462.663 407.536L462.663 448.078C462.46 448.575 462.691 449.144 463.181 449.351 463.586 449.522 464.055 449.391 464.318 449.035L498.909 428.764C500.342 427.79 501.247 426.194 501.357 424.448L501.357 383.905C501.409 383.47 501.248 383.039 500.927 382.747 500.817 382.686 500.691 382.656 500.563 382.663Z" fill="#EBEBEB" fill-rule="evenodd"/><path d="M504.021 387.393 495.996 391.897C494.231 393.011 493.117 394.878 493 396.921L493 405.93C493 407.788 494.343 408.525 495.996 407.604L504.021 403.1C505.781 401.983 506.886 400.116 507 398.076L507 389.068C507 387.226 505.657 386.472 504.021 387.393Z" fill="#B9D0E9" fill-rule="evenodd"/><path d="M467.41 406.695 484.59 396.201C485.361 395.729 486 396.114 486 397.076L486 397.671C485.941 398.732 485.42 399.703 484.59 400.294L467.41 410.788C466.623 411.277 465.984 410.893 466 409.913L466 409.319C466.048 408.254 466.572 407.278 467.41 406.695Z" fill="#EBEBEB" fill-rule="evenodd"/><path d="M467.41 414.718 484.59 404.209C485.361 403.719 486 404.122 486 405.085L486 405.663C485.946 406.728 485.423 407.703 484.59 408.29L467.41 418.798C466.623 419.271 465.984 418.886 466 417.923L466 417.31C466.061 416.257 466.584 415.296 467.41 414.718Z" fill="#EBEBEB" fill-rule="evenodd"/><path d="M467.41 422.697 484.59 412.202C485.361 411.729 486 412.114 486 413.076L486 413.671C485.941 414.733 485.42 415.704 484.59 416.295L467.41 426.791C466.623 427.281 465.984 426.878 466 425.916L466 425.392C466.022 424.3 466.549 423.29 467.41 422.697Z" fill="#EBEBEB" fill-rule="evenodd"/><path d="M467.439 429.872 496.545 413.192C497.348 412.742 498 413.109 498 414.026L498 414.627C497.941 415.644 497.401 416.573 496.545 417.128L467.439 433.808C466.636 434.258 465.984 433.891 466 432.974L466 432.39C466.047 431.369 466.582 430.432 467.439 429.872Z" fill="#EBEBEB" fill-rule="evenodd"/><path d="M467.439 437.908 496.545 421.203C497.348 420.735 498 421.103 498 422.038L498 422.589C497.941 423.608 497.401 424.539 496.545 425.095L467.439 441.8C466.636 442.268 465.984 441.884 466 440.965L466 440.397C466.049 439.385 466.586 438.458 467.439 437.908Z" fill="#EBEBEB" fill-rule="evenodd"/><path d="M525 424.831 525 427.526C525 428.848 525.91 429.38 527.021 428.711L560.979 408.746C562.177 407.948 562.928 406.614 563 405.158L563 402.48C563 401.158 562.108 400.626 560.979 401.278L527.021 421.26C525.832 422.059 525.084 423.382 525 424.831Z" fill="#E0E0E0" fill-rule="evenodd"/><path d="M525.926 366.879 561.074 346.409C562.756 345.459 564 346.222 564 348.104L564 389.027C563.887 391.098 562.801 392.989 561.074 394.115L525.926 414.602C524.244 415.535 523 414.772 523 412.906L523 371.966C523.113 369.896 524.199 368.005 525.926 366.879Z" fill="#FAFAFA" fill-rule="evenodd"/><path d="M524.478 415C524.064 415.003 523.656 414.899 523.294 414.698 522.422 414.125 521.932 413.13 522.008 412.096L522.008 371.583C522.119 369.227 523.382 367.072 525.392 365.81L560.76 345.553C561.901 344.667 563.549 344.867 564.442 345.998 564.882 346.555 565.075 347.269 564.974 347.97L564.974 388.466C564.862 390.823 563.599 392.978 561.589 394.24L526.221 414.58C525.687 414.865 525.086 415.011 524.478 415ZM526.171 367.27C524.692 368.233 523.757 369.833 523.649 371.583L523.649 412.096C523.59 412.526 523.756 412.956 524.089 413.237 524.509 413.383 524.974 413.308 525.324 413.036L560.743 392.763C562.222 391.799 563.156 390.2 563.264 388.449L563.264 347.97C563.473 347.473 563.236 346.904 562.735 346.698 562.32 346.527 561.841 346.658 561.572 347.013Z" fill="#EBEBEB" fill-rule="evenodd"/><path d="M565.004 352.411 556.979 356.912C555.219 358.028 554.114 359.893 554 361.932L554 370.934C554 372.775 555.343 373.528 556.979 372.607L565.004 368.106C566.765 366.99 567.878 365.126 568 363.086L568 354.084C568 352.226 566.64 351.457 565.004 352.411Z" fill="#B9D0E9" fill-rule="evenodd"/><path d="M528.496 371.013 546.504 361.196C547.329 360.738 548 361.114 548 362.014L548 362.554C547.943 363.552 547.386 364.465 546.504 365.008L528.496 374.826C527.671 375.267 527 374.826 527 374.007L527 373.435C527.07 372.448 527.624 371.551 528.496 371.013Z" fill="#EBEBEB" fill-rule="evenodd"/><path d="M528.496 378.98 546.504 369.174C547.329 368.733 548 369.174 548 369.992L548 370.547C547.94 371.544 547.384 372.454 546.504 372.999L528.496 382.805C527.671 383.262 527 382.886 527 381.987L527 381.432C527.052 380.433 527.609 379.52 528.496 378.98Z" fill="#EBEBEB" fill-rule="evenodd"/><path d="M528.496 387.004 546.504 377.198C547.329 376.741 548 377.1 548 378.016L548 378.555C547.94 379.552 547.384 380.462 546.504 381.006L528.496 390.812C527.671 391.253 527 390.893 527 389.995L527 389.423C527.07 388.437 527.624 387.542 528.496 387.004Z" fill="#EBEBEB" fill-rule="evenodd"/><path d="M528.455 394.908 557.546 378.203C558.348 377.735 559 378.103 559 379.038L559 379.589C558.942 380.608 558.401 381.539 557.546 382.095L528.455 398.8C527.652 399.268 527 398.884 527 397.965L527 397.397C527.055 396.381 527.597 395.456 528.455 394.908Z" fill="#EBEBEB" fill-rule="evenodd"/><path d="M528.455 402.913 557.546 386.2C558.348 385.732 559 386.116 559 387.035L559 387.587C558.95 388.608 558.408 389.542 557.546 390.094L528.455 406.807C527.652 407.259 527 406.891 527 405.972L527 405.387C527.068 404.379 527.607 403.463 528.455 402.913Z" fill="#EBEBEB" fill-rule="evenodd"/><path d="M338 532.834 338 535.517C338 536.842 338.909 537.375 340.037 536.721L373.963 516.702C375.163 515.911 375.921 514.582 376 513.125L376 510.477C376 509.152 375.091 508.619 373.963 509.29L340.037 529.292C338.85 530.079 338.094 531.391 338 532.834Z" fill="#E0E0E0" fill-rule="evenodd"/><path d="M338.91 474.873 374.089 454.401C375.772 453.468 377 454.215 377 456.097L377 497.042C376.881 499.106 375.802 500.992 374.089 502.13L338.91 522.602C337.228 523.535 336 522.772 336 520.906L336 479.962C336.106 477.894 337.188 476.001 338.91 474.873Z" fill="#FAFAFA" fill-rule="evenodd"/><path d="M337.463 523C337.048 523.003 336.641 522.899 336.278 522.698 335.41 522.124 334.926 521.127 335.009 520.096L335.009 479.576C335.129 477.226 336.39 475.079 338.394 473.819L373.776 453.559C374.905 452.673 376.543 452.861 377.436 453.98 377.883 454.539 378.076 455.254 377.973 455.959L377.973 496.479C377.853 498.829 376.592 500.976 374.589 502.237L339.206 522.497C338.679 522.812 338.079 522.985 337.463 523ZM338.783 474.541 339.206 475.262C337.734 476.229 336.806 477.827 336.701 479.576L336.701 520.096C336.493 520.593 336.73 521.162 337.231 521.369 337.646 521.54 338.124 521.409 338.394 521.053L373.776 500.776C375.242 499.809 376.167 498.221 376.281 496.479L376.281 455.959C376.489 455.462 376.252 454.893 375.751 454.687 375.336 454.516 374.858 454.646 374.589 455.002L339.206 475.262Z" fill="#EBEBEB" fill-rule="evenodd"/><path d="M378.021 460.396 369.996 464.9C368.228 466.012 367.114 467.879 367 469.924L367 478.933C367 480.774 368.343 481.528 369.996 480.607L378.021 476.103C379.776 474.981 380.881 473.119 381 471.079L381 462.071C381 460.212 379.657 459.475 378.021 460.396Z" fill="#B9D0E9" fill-rule="evenodd"/><path d="M341.41 479.008 358.59 469.196C359.361 468.738 360 469.114 360 470.013L360 470.553C359.949 471.549 359.426 472.46 358.59 473.006L341.41 482.819C340.623 483.276 340 482.819 340 482.001L340 481.445C340.048 480.454 340.574 479.546 341.41 479.008Z" fill="#EBEBEB" fill-rule="evenodd"/><path d="M341.41 486.999 358.59 477.188C359.361 476.746 360 477.106 360 478.022L360 478.562C359.941 479.554 359.42 480.462 358.59 481.014L341.41 490.826C340.623 491.267 340 490.826 340 490.008L340 489.436C340.056 488.446 340.579 487.542 341.41 486.999Z" fill="#EBEBEB" fill-rule="evenodd"/><path d="M341.41 494.961 358.59 485.195C359.361 484.739 360 485.113 360 486.008L360 486.546C359.949 487.537 359.426 488.444 358.59 488.987L341.41 498.819C340.623 499.275 340 498.819 340 498.006L340 497.436C340.033 496.431 340.559 495.507 341.41 494.961Z" fill="#EBEBEB" fill-rule="evenodd"/><path d="M341.439 502.902 370.545 486.186C371.348 485.718 372 486.186 372 487.021L372 487.573C371.95 488.594 371.408 489.529 370.545 490.081L341.439 506.797C340.636 507.265 340 506.897 340 505.961L340 505.393C340.057 504.381 340.59 503.457 341.439 502.902Z" fill="#EBEBEB" fill-rule="evenodd"/><path d="M341.439 510.896 370.545 494.178C371.348 493.727 372 494.178 372 495.014L372 495.583C371.942 496.603 371.401 497.534 370.545 498.09L341.439 514.808C340.636 515.259 340 514.891 340 513.972L340 513.387C340.057 512.375 340.59 511.451 341.439 510.896Z" fill="#EBEBEB" fill-rule="evenodd"/><path d="M399 496.983 399 499.582C399 500.84 399.91 501.37 401.021 500.724L434.979 481.454C436.18 480.695 436.933 479.412 437 478.01L437 475.427C437 474.152 436.107 473.639 434.979 474.268L401.021 493.539C399.83 494.307 399.081 495.585 399 496.983Z" fill="#E0E0E0" fill-rule="evenodd"/><path d="M399.926 439.566 435.074 419.392C436.756 418.473 438 419.225 438 421.064L438 461.41C437.889 463.451 436.801 465.314 435.074 466.424L399.926 486.597C398.244 487.533 397 486.781 397 484.926L397 444.58C397.119 442.542 398.206 440.68 399.926 439.566Z" fill="#FAFAFA" fill-rule="evenodd"/><path d="M398.479 488C398.065 488.003 397.657 487.899 397.294 487.698 396.422 487.118 395.932 486.12 396.008 485.082L396.008 444.607C396.13 442.259 397.393 440.117 399.394 438.856L434.761 418.551C435.904 417.667 437.553 417.868 438.445 418.998 438.88 419.552 439.071 420.254 438.976 420.949L438.976 461.424C438.865 463.775 437.6 465.923 435.59 467.175L400.206 487.43C399.69 487.765 399.096 487.963 398.479 488ZM436.504 419.792C436.185 419.8 435.873 419.899 435.607 420.077L400.223 440.348C398.747 441.305 397.812 442.897 397.701 444.64L397.701 485.116C397.64 485.55 397.806 485.986 398.141 486.273 398.561 486.41 399.023 486.335 399.377 486.072L434.761 465.834C436.237 464.87 437.172 463.274 437.283 461.525L437.283 421.016C437.336 420.581 437.172 420.15 436.843 419.859 436.736 419.812 436.621 419.788 436.504 419.792Z" fill="#EBEBEB" fill-rule="evenodd"/><path d="M439.218 424.393 431.766 428.896C430.139 430.019 429.113 431.88 429 433.917L429 442.923C429 444.781 430.247 445.534 431.766 444.597L439.218 440.094C440.86 438.983 441.895 437.116 442 435.072L442 426.067C442 424.225 440.753 423.472 439.218 424.393Z" fill="#B9D0E9" fill-rule="evenodd"/><path d="M402.496 443.691 420.504 433.201C421.329 432.729 422 433.114 422 434.093L422 434.687C421.94 435.753 421.384 436.727 420.504 437.31L402.496 447.799C401.671 448.271 401 447.887 401 446.908L401 446.313C401.06 445.247 401.616 444.273 402.496 443.691Z" fill="#EBEBEB" fill-rule="evenodd"/><path d="M402.496 451.712 420.504 441.209C421.329 440.719 422 441.122 422 442.084L422 442.662C421.948 443.732 421.391 444.71 420.504 445.288L402.496 455.791C401.671 456.281 401 455.878 401 454.916L401 454.303C401.062 453.246 401.619 452.283 402.496 451.712Z" fill="#EBEBEB" fill-rule="evenodd"/><path d="M402.496 459.695 420.504 449.201C421.329 448.729 422 449.114 422 450.076L422 450.671C421.94 451.737 421.384 452.712 420.504 453.294L402.496 463.788C401.671 464.278 401 463.893 401 462.913L401 462.284C401.07 461.229 401.624 460.271 402.496 459.695Z" fill="#EBEBEB" fill-rule="evenodd"/><path d="M402.455 466.952 431.546 450.193C432.348 449.74 433 450.109 433 451.031L433 451.534C432.942 452.556 432.401 453.49 431.546 454.048L402.455 470.807C401.652 471.26 401 470.891 401 469.969L401 469.382C401.084 468.39 401.62 467.494 402.455 466.952Z" fill="#EBEBEB" fill-rule="evenodd"/><path d="M402.455 474.919 431.546 458.2C432.348 457.732 433 458.116 433 459.036L433 459.588C432.945 460.607 432.403 461.54 431.546 462.095L402.455 478.814C401.652 479.283 401 478.814 401 477.979L401 477.41C401.055 476.394 401.597 475.467 402.455 474.919Z" fill="#EBEBEB" fill-rule="evenodd"/><path d="M240 315.928 233 312 233 343.106 240 347 240 315.928Z" fill="#B9D0E9" fill-rule="evenodd"/><path d="M240 315.928 233 312 233 343.106 240 347 240 315.928Z" fill="#000000" fill-rule="evenodd" fill-opacity="0.101961"/></g></svg>