<svg width="756" height="756" xmlns="http://www.w3.org/2000/svg" xmlns:xlink="http://www.w3.org/1999/xlink" overflow="hidden"><defs><clipPath id="clip0"><rect x="0" y="0" width="756" height="756"/></clipPath></defs><g clip-path="url(#clip0)"><rect x="0" y="0" width="756" height="756" fill="#181D2A" fill-opacity="0"/><path d="M197.403 676.751 215.976 668.718 208.419 682.058 195.874 679.978 197.403 676.751Z" fill="#263238" fill-rule="evenodd"/><path d="M197.403 676.751 215.976 668.718 208.419 682.058 195.874 679.978 197.403 676.751Z" fill="#FFFFFF" fill-rule="evenodd" fill-opacity="0.2"/><path d="M197.716 676.964 215.712 669.184 208.419 682.058 196.176 680.028 197.716 676.964Z" fill="#FFFFFF" fill-rule="evenodd" fill-opacity="0.4"/><path d="M212.568 689.495 230.52 661.36 222.222 659.984 205.193 688.844 212.568 689.495Z" fill="#263238" fill-rule="evenodd"/><path d="M212.568 689.495 230.52 661.36 222.222 659.984 205.193 688.844 212.568 689.495Z" fill="#FFFFFF" fill-rule="evenodd" fill-opacity="0.2"/><path d="M212.567 689.495 230.369 661.596 222.313 660.26 205.451 688.862 212.567 689.495Z" fill="#FFFFFF" fill-rule="evenodd" fill-opacity="0.4"/><path d="M213.094 689.471 230.964 661.235 238.155 662.241 220.92 689.65 213.094 689.471Z" fill="#263238" fill-rule="evenodd"/><path d="M213.094 689.471 230.964 661.235 238.155 662.241 220.92 689.65 213.094 689.471Z" fill="#FFFFFF" fill-rule="evenodd" fill-opacity="0.2"/><path d="M213.243 689.471 231.125 661.461 238.053 662.411 220.92 689.65 213.243 689.471Z" fill="#FFFFFF" fill-rule="evenodd" fill-opacity="0.4"/><path d="M238.597 662.128 245.492 663.122 228.441 689.641 221.405 689.494 238.597 662.128Z" fill="#263238" fill-rule="evenodd"/><path d="M238.597 662.128 245.492 663.122 228.441 689.641 221.405 689.494 238.597 662.128Z" fill="#FFFFFF" fill-rule="evenodd" fill-opacity="0.2"/><path d="M238.688 662.329 245.409 663.245 228.441 689.641 221.567 689.496 238.688 662.329Z" fill="#FFFFFF" fill-rule="evenodd" fill-opacity="0.4"/><path d="M245.928 663.194 251.982 664.012 235.551 689.789 228.81 689.665 245.928 663.194Z" fill="#263238" fill-rule="evenodd"/><path d="M245.928 663.194 251.982 664.012 235.551 689.789 228.81 689.665 245.928 663.194Z" fill="#FFFFFF" fill-rule="evenodd" fill-opacity="0.2"/><path d="M246.039 663.349 251.93 664.103 235.551 689.789 229.01 689.661 246.039 663.349Z" fill="#FFFFFF" fill-rule="evenodd" fill-opacity="0.4"/><path d="M189.785 679.068 174.372 706.43 195.086 704.222 209.564 677.624 189.785 679.068Z" fill="#869FD1" fill-rule="evenodd"/><path d="M189.785 679.068 174.372 706.43 195.086 704.222 209.564 677.624 189.785 679.068Z" fill="#000000" fill-rule="evenodd" fill-opacity="0.2"/><path d="M164.823 658.322 189.785 679.068 174.372 706.43 150.4 684.059 164.823 658.322Z" fill="#869FD1" fill-rule="evenodd"/><path d="M164.823 658.322 189.785 679.068 174.372 706.43 150.4 684.059 164.823 658.322Z" fill="#000000" fill-rule="evenodd" fill-opacity="0.0509804"/><path d="M164.823 658.322 185.48 660.132 209.564 677.624 189.785 679.068 164.823 658.322Z" fill="#869FD1" fill-rule="evenodd"/><path d="M164.823 658.322 185.48 660.132 209.564 677.624 189.785 679.068 164.823 658.322Z" fill="#FFFFFF" fill-rule="evenodd" fill-opacity="0.4"/><path d="M201.815 653.369 202.523 653.896 193.028 670.457 192.098 669.992 201.815 653.369Z" fill="#263238" fill-rule="evenodd"/><path d="M201.815 653.369 202.091 653.576 192.408 670.143 192.098 669.992 201.815 653.369Z" fill="#FFFFFF" fill-rule="evenodd" fill-opacity="0.4"/><path d="M202.523 653.896 202.091 653.576 192.409 670.143 193.028 670.457 202.523 653.896Z" fill="#FFFFFF" fill-rule="evenodd" fill-opacity="0.2"/><path d="M105.27 645.215 84.3028 687.256 100.386 687.413 121.25 647.268 105.27 645.215Z" fill="#263238" fill-rule="evenodd"/><path d="M105.27 645.215 84.3028 687.256 100.386 687.413 121.25 647.268 105.27 645.215Z" fill="#FFFFFF" fill-rule="evenodd" fill-opacity="0.2"/><path d="M105.47 645.509 84.6496 687.264 100.386 687.412 121.071 647.599 105.47 645.509Z" fill="#FFFFFF" fill-rule="evenodd" fill-opacity="0.4"/><path d="M121.927 647.381 101.269 687.559 116.423 687.847 136.724 649.225 121.927 647.381Z" fill="#263238" fill-rule="evenodd"/><path d="M121.927 647.381 101.269 687.559 116.423 687.847 136.724 649.225 121.927 647.381Z" fill="#FFFFFF" fill-rule="evenodd" fill-opacity="0.2"/><path d="M122.123 647.774 101.63 687.557 116.423 687.847 136.609 649.467 122.123 647.774Z" fill="#FFFFFF" fill-rule="evenodd" fill-opacity="0.4"/><path d="M137.314 649.336 117.12 687.615 130.881 688.131 150.849 651.219 137.314 649.336Z" fill="#263238" fill-rule="evenodd"/><path d="M137.314 649.336 117.12 687.615 130.881 688.131 150.849 651.219 137.314 649.336Z" fill="#FFFFFF" fill-rule="evenodd" fill-opacity="0.2"/><path d="M137.456 649.608 117.491 687.626 130.881 688.131 150.672 651.538 137.456 649.608Z" fill="#FFFFFF" fill-rule="evenodd" fill-opacity="0.4"/><path d="M151.451 650.959 131.313 688.004 144.4 688.31 163.911 652.577 151.451 650.959Z" fill="#263238" fill-rule="evenodd"/><path d="M151.451 650.959 131.313 688.004 144.4 688.31 163.911 652.577 151.451 650.959Z" fill="#FFFFFF" fill-rule="evenodd" fill-opacity="0.2"/><path d="M151.555 651.237 131.621 688.018 144.4 688.31 163.786 652.805 151.555 651.237Z" fill="#FFFFFF" fill-rule="evenodd" fill-opacity="0.4"/><path d="M172.091 675.736 169.71 680.126 149.115 680.788 159.301 662.54 172.091 675.736Z" fill="#263238" fill-rule="evenodd"/><path d="M172.091 675.736 169.71 680.126 149.115 680.788 159.301 662.54 172.091 675.736Z" fill="#FFFFFF" fill-rule="evenodd" fill-opacity="0.2"/><path d="M171.881 676.099 169.71 680.126 149.49 680.776 159.382 662.951 171.881 676.099Z" fill="#FFFFFF" fill-rule="evenodd" fill-opacity="0.4"/><path d="M209.661 679.741 184.785 711.998C180.105 708.736 182.458 694.322 187.616 686.675 193.63 679.419 204.675 677.199 209.661 679.741Z" fill="#263238" fill-rule="evenodd"/><path d="M186.782 709.395 185.705 710.795C181.735 705.575 184.245 692.915 187.616 686.675 181.682 700.272 186.782 709.395 186.782 709.395Z" fill-rule="evenodd"/><path d="M209.661 679.741 184.785 711.998C180.105 708.736 182.458 694.322 187.616 686.675 193.63 679.419 204.675 677.199 209.661 679.741Z" fill="#FFFFFF" fill-rule="evenodd"/><path d="M188.984 685.771C197.584 680.46 203.101 680.319 207.587 682.43L208.585 681.129C202.887 679.438 197.223 679.94 188.984 685.771Z" fill="#FFFFFF" fill-rule="evenodd" fill-opacity="0.2"/><path d="M190.603 690.328C183.433 699.083 180.595 708.556 184.25 711.549 187.905 714.541 196.671 709.879 203.828 701.197 210.985 692.514 213.836 682.969 210.179 679.988 206.521 677.008 197.764 681.621 190.603 690.328Z" fill="#869FD1" fill-rule="evenodd"/><path d="M190.603 690.328C183.433 699.083 180.595 708.556 184.25 711.549 187.905 714.541 196.671 709.879 203.828 701.197 210.985 692.514 213.836 682.969 210.179 679.988 206.521 677.008 197.764 681.621 190.603 690.328Z" fill="#FFFFFF" fill-rule="evenodd" fill-opacity="0.4"/><path d="M190.687 689.969C189.299 691.698 188.072 693.549 187.023 695.502 186.145 697.017 186.399 698.933 187.641 700.166 189.392 701.6 193.602 699.377 197.042 695.199 200.481 691.021 201.848 686.45 200.099 685.004 199.071 684.162 196.811 684.222 194.925 685.774 193.385 687.039 191.967 688.443 190.687 689.969Z" fill="#000000" fill-rule="evenodd" fill-opacity="0.2"/><path d="M200.317 694.934 195.6 692.051 193.252 688.443C191.75 688.651 190.63 689.933 190.628 691.451L194.311 693.379 197.457 698.388Z" fill="#263238" fill-rule="evenodd"/><path d="M200.317 694.934 195.6 692.051 193.252 688.443C191.75 688.651 190.63 689.933 190.628 691.451L194.311 693.379 197.457 698.388Z" fill="#FFFFFF" fill-rule="evenodd" fill-opacity="0.2"/><path d="M198.151 696.079C197.356 697.053 197.046 698.096 197.447 698.448 197.849 698.801 198.82 698.266 199.614 697.304 200.407 696.341 200.719 695.287 200.317 694.934 199.916 694.582 198.944 695.117 198.151 696.079Z" fill="#263238" fill-rule="evenodd"/><path d="M198.151 696.079C197.356 697.053 197.046 698.096 197.447 698.448 197.849 698.801 198.82 698.266 199.614 697.304 200.407 696.341 200.719 695.287 200.317 694.934 199.916 694.582 198.944 695.117 198.151 696.079Z" fill="#FFFFFF" fill-rule="evenodd" fill-opacity="0.4"/><path d="M191.418 689.456C190.956 690.043 190.677 690.754 190.62 691.499L194.302 693.427 197.449 698.436C197.026 697.993 197.605 696.598 198.288 695.928 198.288 695.928 196.922 694.719 191.418 689.456Z" fill="#000000" fill-rule="evenodd" fill-opacity="0.2"/><path d="M199.985 694.842 195.436 692.211 192.948 688.554 192.742 688.594 195.346 692.233 199.69 694.892 199.985 694.842Z" fill="#FFFFFF" fill-rule="evenodd" fill-opacity="0.2"/><path d="M198.369 696.264C197.698 697.085 197.425 697.985 197.764 698.265 198.103 698.544 198.945 698.112 199.61 697.328 200.274 696.543 200.554 695.607 200.217 695.315 199.88 695.023 199.042 695.431 198.369 696.264Z" fill-rule="evenodd"/><path d="M198.369 696.264C197.698 697.085 197.425 697.985 197.764 698.265 198.103 698.544 198.945 698.112 199.61 697.328 200.274 696.543 200.554 695.607 200.217 695.315 199.88 695.023 199.042 695.431 198.369 696.264Z" fill="#000000" fill-rule="evenodd" fill-opacity="0.4"/><path d="M187.887 709.852 188.065 710.279 203.05 705.816 202.928 705.423 187.887 709.852Z" fill="#263238" fill-rule="evenodd"/><path d="M187.887 709.852 188.065 710.279 203.05 705.816 202.928 705.423 187.887 709.852Z" fill="#FFFFFF" fill-rule="evenodd" fill-opacity="0.101961"/><path d="M210.247 687.147 210.61 687.207 208.983 699.417 208.5 699.336 210.247 687.147Z" fill="#263238" fill-rule="evenodd"/><path d="M210.247 687.147 210.61 687.207 208.983 699.417 208.5 699.336 210.247 687.147Z" fill="#FFFFFF" fill-rule="evenodd" fill-opacity="0.101961"/><path d="M193.485 687.412 208.983 699.417 208.732 699.661 193.118 687.675 193.485 687.412Z" fill="#263238" fill-rule="evenodd"/><path d="M193.485 687.412 208.983 699.417 208.732 699.661 193.118 687.675 193.485 687.412Z" fill="#FFFFFF" fill-rule="evenodd" fill-opacity="0.101961"/><path d="M192.553 688.463 192.903 688.149 203.259 705.304 203.017 705.562 192.553 688.463Z" fill="#263238" fill-rule="evenodd"/><path d="M192.553 688.463 192.903 688.149 203.259 705.304 203.017 705.562 192.553 688.463Z" fill="#FFFFFF" fill-rule="evenodd" fill-opacity="0.101961"/><path d="M204.583 701.745C203.014 703.709 202.338 705.835 203.163 706.481 203.988 707.127 205.957 706.124 207.562 704.165 209.167 702.206 209.806 700.075 208.981 699.429 208.156 698.782 206.2 699.788 204.583 701.745Z" fill="#263238" fill-rule="evenodd"/><path d="M204.583 701.745C203.014 703.709 202.338 705.835 203.163 706.481 203.988 707.127 205.957 706.124 207.562 704.165 209.167 702.206 209.806 700.075 208.981 699.429 208.156 698.782 206.2 699.788 204.583 701.745Z" fill="#FFFFFF" fill-rule="evenodd" fill-opacity="0.2"/><path d="M204.889 701.994C203.441 703.755 202.876 705.663 203.609 706.269 204.341 706.875 206.148 705.944 207.558 704.189 208.968 702.434 209.573 700.509 208.841 699.903 208.108 699.296 206.337 700.233 204.889 701.994Z" fill="#000000" fill-rule="evenodd" fill-opacity="0.101961"/><path d="M169.709 680.126 150.4 684.059 152.343 680.59 169.709 680.126Z" fill="#000000" fill-rule="evenodd" fill-opacity="0.2"/></g></svg>