<svg width="756" height="756" xmlns="http://www.w3.org/2000/svg" xmlns:xlink="http://www.w3.org/1999/xlink" overflow="hidden"><defs><clipPath id="clip0"><rect x="0" y="0" width="756" height="756"/></clipPath></defs><g clip-path="url(#clip0)"><rect x="0" y="0" width="756" height="756" fill="#181D2A" fill-opacity="0"/><path d="M694 64.5C694 80.2402 681.016 93.0001 665 93.0001 648.984 93.0001 636 80.2402 636 64.5 636 48.7599 648.984 36 665 36 681.016 36 694 48.7599 694 64.5Z" fill="#869FD1" fill-rule="evenodd"/><path d="M694 64.5C694 80.2402 681.016 93.0001 665 93.0001 648.984 93.0001 636 80.2402 636 64.5 636 48.7599 648.984 36 665 36 681.016 36 694 48.7599 694 64.5Z" fill="#FFFFFF" fill-rule="evenodd" fill-opacity="0.4"/><path d="M694 64.5C694 80.2402 681.016 93.0001 665 93.0001 648.984 93.0001 636 80.2402 636 64.5 636 48.7599 648.984 36 665 36 681.016 36 694 48.7599 694 64.5Z" fill="#FFFFFF" fill-rule="evenodd" fill-opacity="0.4"/><path d="M639.489 50.9283C638.837 54.1518 641.097 55.5056 646.064 55.2263 657.837 54.5762 669.343 51.5096 679.851 46.222 682.155 44.664 682.384 42.8911 681.514 41 695.566 52.0351 696.544 66.7878 690.426 78.1237 688.936 80.3565 686.701 82.0027 684.112 82.7763 676.609 85.6967 668.742 87.6007 660.724 88.4388 653.302 89.5133 648.944 89.0298 647.27 87.1172 634.609 77.4145 633.544 62.5328 639.489 50.9283Z" fill="#FFFFFF" fill-rule="evenodd" fill-opacity="0.2"/><path d="M636 64.4858C635.971 69.9938 637.639 75.3792 640.783 79.9265 642.305 82.0756 647.229 82.5054 654.914 81.4416 664.902 80.4241 674.7 78.0526 684.034 74.3928 689.121 72.4157 692.491 69.8906 693.937 66.7208 694.275 61.6427 693.255 56.5656 690.98 52 690.534 55.9542 687.795 59.2315 682.284 61.6706 671.507 65.6592 660.298 68.396 648.881 69.8261 641.609 70.6535 636.598 69.4716 636 64.4858Z" fill="#FFFFFF" fill-rule="evenodd" fill-opacity="0.2"/><path d="M653.376 39.4165C656.114 38.3646 658.953 37.5933 661.848 37.1133 665.652 36.7277 666.309 37.3705 665.889 38.3666 664.759 39.5182 663.42 40.4481 661.945 41.109 659.65 42.0977 657.213 42.7234 654.723 42.9622 652.988 43.0372 651.145 43.08 650.1 42.2873 649.583 41.3554 651.135 40.3699 653.376 39.4165Z" fill="#000000" fill-rule="evenodd" fill-opacity="0.101961"/><path d="M711.811 50.6316C710.363 46.2558 700.839 45.0284 687.548 46.7467 688.736 48.1491 689.765 49.6732 690.618 51.2933L690.618 51.2933C695.375 51.4747 698.52 52.5847 699.206 54.6445 700.882 59.7353 686.939 68.7217 668.053 74.7091 649.167 80.6964 632.502 81.4435 630.826 76.3527 630.097 74.2182 631.849 71.582 636.029 68.5083 635.975 68.5083 636.323 68.2841 636.269 68.3161 636.037 66.5467 635.97 64.7611 636.073 62.9798 623.947 69.3194 616.719 75.9258 618.189 80.3656 620.496 87.3348 643.322 86.3316 669.185 78.1137 695.048 69.8957 714.119 57.6008 711.811 50.6316Z" fill="#869FD1" fill-rule="evenodd"/><path d="M711.811 50.6316C710.363 46.2558 700.839 45.0284 687.548 46.7467 688.736 48.1491 689.765 49.6732 690.618 51.2933L690.618 51.2933C695.375 51.4747 698.52 52.5847 699.206 54.6445 700.882 59.7353 686.939 68.7217 668.053 74.7091 649.167 80.6964 632.502 81.4435 630.826 76.3527 630.097 74.2182 631.849 71.582 636.029 68.5083 635.975 68.5083 636.323 68.2841 636.269 68.3161 636.037 66.5467 635.97 64.7611 636.073 62.9798 623.947 69.3194 616.719 75.9258 618.189 80.3656 620.496 87.3348 643.322 86.3316 669.185 78.1137 695.048 69.8957 714.119 57.6008 711.811 50.6316Z" fill="#FFFFFF" fill-rule="evenodd" fill-opacity="0.301961"/></g></svg>