<svg width="756" height="756" xmlns="http://www.w3.org/2000/svg" xmlns:xlink="http://www.w3.org/1999/xlink" overflow="hidden"><defs><clipPath id="clip0"><rect x="0" y="0" width="756" height="756"/></clipPath></defs><g clip-path="url(#clip0)"><rect x="0" y="0" width="756" height="756" fill="#181D2A" fill-opacity="0"/><path d="M99.9209 583.099 40.5751 548.736C38.4749 547.523 38.4749 545.553 40.5751 544.34L367.551 354.898C369.928 353.701 372.729 353.701 375.106 354.898L434.436 389.261C436.521 390.473 436.521 392.444 434.436 393.657L107.475 583.099C105.1 584.301 102.296 584.301 99.9209 583.099Z" fill="#121620" fill-rule="evenodd"/><path d="M305.711 529.729 353.595 502.029C358.532 499.165 361 495.437 361 491.694 361 487.951 361 485.027 361 485.027L303.409 452.371C300.598 450.526 298.828 447.457 298.638 444.098L298.638 385 215 433.354 215 492.452C215.194 495.805 216.963 498.869 219.77 500.71L269.971 529.714C279.845 535.427 295.852 535.427 305.711 529.729Z" fill="#B9D0E9" fill-rule="evenodd"/><path d="M305.711 529.729 353.595 502.029C358.532 499.165 361 495.437 361 491.694 361 487.951 361 485.027 361 485.027L303.409 452.371C300.598 450.526 298.828 447.457 298.638 444.098L298.638 385 215 433.354 215 492.452C215.194 495.805 216.963 498.869 219.77 500.71L269.971 529.714C279.845 535.427 295.852 535.427 305.711 529.729Z" fill="#94A6BA" fill-rule="evenodd"/><path d="M235 502.394 235 509 219.748 500.207C216.95 498.371 215.188 495.316 215 491.973L215 433.155 230.871 424C231.187 428.027 231.549 432.189 231.88 436.246L220.757 442.686 220.757 488.625C220.929 491.964 222.69 495.019 225.49 496.844Z" fill="#B9D0E9" fill-rule="evenodd"/><path d="M235 502.394 235 509 219.748 500.207C216.95 498.371 215.188 495.316 215 491.973L215 433.155 230.871 424C231.187 428.027 231.549 432.189 231.88 436.246L220.757 442.686 220.757 488.625C220.929 491.964 222.69 495.019 225.49 496.844Z" fill="#000000" fill-rule="evenodd" fill-opacity="0.701961"/><path d="M221 488.708C221.178 492.073 222.948 495.148 225.761 496.983L270.095 522.706C279.951 528.431 295.928 528.431 305.783 522.706L353.609 494.949C363.464 489.239 363.464 479.976 353.609 474.267L309.245 448.529C306.431 446.693 304.661 443.618 304.483 440.253L304.483 394 221 442.455Z" fill="#B9D0E9" fill-rule="evenodd"/><path d="M221 488.708C221.178 492.073 222.948 495.148 225.761 496.983L270.095 522.706C279.951 528.431 295.928 528.431 305.783 522.706L353.609 494.949C363.464 489.239 363.464 479.976 353.609 474.267L309.245 448.529C306.431 446.693 304.661 443.618 304.483 440.253L304.483 394 221 442.455Z" fill="#000000" fill-rule="evenodd" fill-opacity="0.301961"/><path d="M319 454.434 319 454.434 309.304 448.79C306.49 446.946 304.718 443.857 304.54 440.477L304.54 394 221 442.673 221 489.135C221.178 492.515 222.95 495.604 225.765 497.448L235.294 503Z" fill="#B9D0E9" fill-rule="evenodd" fill-opacity="0.701961"/><path d="M319 454.434 319 454.434 309.304 448.79C306.49 446.946 304.718 443.857 304.54 440.477L304.54 394 221 442.673 221 489.135C221.178 492.515 222.95 495.604 225.765 497.448L235.294 503Z" fill="#000000" fill-rule="evenodd" fill-opacity="0.6"/><path d="M361 485 361 491.61C361 495.288 358.529 498.935 353.631 501.749L305.983 528.831C300.761 531.594 294.924 533.028 289 533L289 526.479C294.924 526.507 300.761 525.073 305.983 522.31L353.631 495.079C358.529 492.355 361 488.633 361 485Z" fill="#B9D0E9" fill-rule="evenodd"/><path d="M361 485 361 491.61C361 495.288 358.529 498.935 353.631 501.749L305.983 528.831C300.761 531.594 294.924 533.028 289 533L289 526.479C294.924 526.507 300.761 525.073 305.983 522.31L353.631 495.079C358.529 492.355 361 488.633 361 485Z" fill="#000000" fill-rule="evenodd" fill-opacity="0.2"/><path d="M86.5646 552.725C90.225 554.497 94.5088 554.418 98.1019 552.513L421.057 365.787C424.566 363.487 426.772 359.653 427 355.46L427 72.3803C426.858 68.3144 424.785 64.561 421.42 62.2801 417.767 60.5014 413.483 60.5803 409.898 62.492L86.9426 249.218C83.4315 251.509 81.2235 255.34 81 259.53L81 542.701C81.1766 546.733 83.238 550.446 86.5646 552.725Z" fill="#B9D0E9" fill-rule="evenodd"/><path d="M86.5646 552.725C90.225 554.497 94.5088 554.418 98.1019 552.513L421.057 365.787C424.566 363.487 426.772 359.653 427 355.46L427 72.3803C426.858 68.3144 424.785 64.561 421.42 62.2801 417.767 60.5014 413.483 60.5803 409.898 62.492L86.9426 249.218C83.4315 251.509 81.2235 255.34 81 259.53L81 542.701C81.1766 546.733 83.238 550.446 86.5646 552.725Z" fill="#000000" fill-rule="evenodd" fill-opacity="0.301961"/><path d="M97.9452 552.182 421.04 365.533C424.557 363.246 426.77 359.417 427 355.225L427 72.247C427 68.4478 424.322 66.919 421.04 68.811L97.9452 255.46C94.4191 257.772 92.2097 261.631 92 265.844L92 548.746C92 552.546 94.6625 554.09 97.9452 552.182Z" fill="#B9D0E9" fill-rule="evenodd"/><path d="M97.9452 552.182 421.04 365.533C424.557 363.246 426.77 359.417 427 355.225L427 72.247C427 68.4478 424.322 66.919 421.04 68.811L97.9452 255.46C94.4191 257.772 92.2097 261.631 92 265.844L92 548.746C92 552.546 94.6625 554.09 97.9452 552.182Z" fill="#B9D0E9" fill-rule="evenodd"/><path d="M97.9452 552.182 421.04 365.533C424.557 363.246 426.77 359.417 427 355.225L427 72.247C427 68.4478 424.322 66.919 421.04 68.811L97.9452 255.46C94.4191 257.772 92.2097 261.631 92 265.844L92 548.746C92 552.546 94.6625 554.09 97.9452 552.182Z" fill="#000000" fill-rule="evenodd" fill-opacity="0.501961"/><path d="M97 552.97C93.6384 554.419 89.8199 554.336 86.5229 552.743 83.1926 550.465 81.1406 546.723 81 542.669L81 511 92.0459 517.439 92.0459 549.109C91.971 552.562 94.1413 554.116 97 552.97Z" fill="#B9D0E9" fill-rule="evenodd"/><path d="M97 552.97C93.6384 554.419 89.8199 554.336 86.5229 552.743 83.1926 550.465 81.1406 546.723 81 542.669L81 511 92.0459 517.439 92.0459 549.109C91.971 552.562 94.1413 554.116 97 552.97Z" fill="#000000" fill-rule="evenodd" fill-opacity="0.701961"/><path d="M92 517.055 92 548.758C92 552.547 94.6625 554.087 97.9452 552.185L421.04 366.059C424.557 363.778 426.77 359.959 427 355.778L427 324Z" fill="#B9D0E9" fill-rule="evenodd"/><path d="M92 517.055 92 548.758C92 552.547 94.6625 554.087 97.9452 552.185L421.04 366.059C424.557 363.778 426.77 359.959 427 355.778L427 324Z" fill="#5C6874" fill-rule="evenodd"/><path d="M104 493.482 104 269.858C104.128 267.346 105.453 265.047 107.562 263.678L412.438 87.4844C414.4 86.3511 416 87.2728 416 89.5544L416 313.117C415.864 315.629 414.542 317.924 412.438 319.297L107.562 495.476C105.585 496.67 104 495.748 104 493.482Z" fill="#FAFAFA" fill-rule="evenodd"/><path d="M259.5 432.798C256.251 435.029 254.206 438.767 254 442.853 254 446.552 256.459 448.062 259.5 446.205 262.746 443.971 264.788 440.235 265 436.149 265 432.436 262.541 430.94 259.5 432.798Z" fill="#B9D0E9" fill-rule="evenodd"/><path d="M259.5 432.798C256.251 435.029 254.206 438.767 254 442.853 254 446.552 256.459 448.062 259.5 446.205 262.746 443.971 264.788 440.235 265 436.149 265 432.436 262.541 430.94 259.5 432.798Z" fill="#FFFFFF" fill-rule="evenodd" fill-opacity="0.501961"/><path d="M94 260.421C92.9237 262.23 92.3169 264.276 92.2343 266.374L92.2343 517 81 510.548 81 259.877C81.0875 257.803 81.6945 255.783 82.7658 254Z" fill="#B9D0E9" fill-rule="evenodd"/><path d="M94 260.421C92.9237 262.23 92.3169 264.276 92.2343 266.374L92.2343 517 81 510.548 81 259.877C81.0875 257.803 81.6945 255.783 82.7658 254Z" fill="#000000" fill-rule="evenodd" fill-opacity="0.701961"/></g></svg>