<svg width="756" height="756" xmlns="http://www.w3.org/2000/svg" xmlns:xlink="http://www.w3.org/1999/xlink" overflow="hidden"><defs><clipPath id="clip0"><rect x="0" y="0" width="756" height="756"/></clipPath></defs><g clip-path="url(#clip0)"><rect x="0" y="0" width="756" height="756" fill="#181D2A" fill-opacity="0"/><path d="M572.969 255.419C573.258 258.161 571.491 260.644 569.023 260.966 566.555 261.287 564.32 259.323 564.031 256.581 563.745 253.869 565.471 251.404 567.907 251.044 570.371 250.68 572.633 252.604 572.96 255.341 572.964 255.367 572.967 255.392 572.969 255.419Z" fill="#FFFFFF" fill-rule="evenodd"/><path d="M572.858 255.439C572.799 255.439 572.74 255.029 572.456 254.362 572.036 253.42 571.318 252.639 570.412 252.137 568.268 250.891 565.511 251.603 564.252 253.729 562.995 255.855 563.715 258.588 565.859 259.834 566.254 260.063 566.681 260.232 567.128 260.334 568.617 260.679 570.181 260.266 571.298 259.233 572.051 258.535 572.557 257.615 572.74 256.61 572.858 255.896 572.811 255.439 572.87 255.439 572.994 255.816 573.029 256.217 572.976 256.61 572.886 257.714 572.405 258.752 571.617 259.538 570.417 260.74 568.677 261.249 567.01 260.884 564.289 260.323 562.54 257.683 563.106 254.985 563.423 253.474 564.428 252.193 565.828 251.516 567.356 250.763 569.166 250.838 570.625 251.715 571.586 252.288 572.311 253.18 572.669 254.233 572.833 254.612 572.898 255.028 572.858 255.439Z" fill="#263238" fill-rule="evenodd"/></g></svg>