<svg width="756" height="756" xmlns="http://www.w3.org/2000/svg" xmlns:xlink="http://www.w3.org/1999/xlink" overflow="hidden"><defs><clipPath id="clip0"><rect x="0" y="0" width="756" height="756"/></clipPath></defs><g clip-path="url(#clip0)"><rect x="0" y="0" width="756" height="756" fill="#333F50" fill-opacity="0"/><path d="M546 132.316 546 356.987C545.823 360.278 544.091 363.286 541.337 365.084L412.618 439.546C412.167 439.837 411.645 439.994 411.109 440 410.911 439.997 410.714 439.971 410.52 439.924L410.113 439.788 409.871 439.637 409.6 439.455C409.508 439.387 409.422 439.311 409.343 439.228 408.973 438.885 408.681 438.467 408.483 438.002 408.161 437.258 407.997 436.454 408 435.641L408 212.105C408.178 208.818 409.903 205.812 412.648 204.008L541.276 129.622C542.191 128.975 543.366 128.822 544.415 129.213 544.554 129.279 544.686 129.361 544.808 129.455L544.808 129.455C544.922 129.542 545.024 129.643 545.11 129.758 545.162 129.807 545.209 129.863 545.245 129.925 545.309 129.996 545.36 130.078 545.396 130.167 545.525 130.351 545.621 130.556 545.683 130.772 545.736 130.903 545.772 131.04 545.789 131.181 545.802 131.21 545.802 131.243 545.789 131.272 545.83 131.409 545.855 131.552 545.864 131.695 545.985 131.922 546 132.119 546 132.316Z" fill="#455A64" fill-rule="evenodd" fill-opacity="0.6"/><path d="M543.461 130.513C543.618 130.51 543.774 130.547 543.915 130.619L543.915 130.619 544.005 130.619 544.141 130.786 544.141 130.786 544.247 130.967 544.247 130.967 544.247 130.967 544.398 131.406 544.398 131.406 544.398 131.406 544.398 131.406C544.406 131.441 544.406 131.477 544.398 131.512 544.407 131.663 544.407 131.815 544.398 131.966L544.398 356.991C544.224 359.739 542.775 362.249 540.484 363.771L411.763 438.245C411.529 438.396 411.257 438.481 410.977 438.487L410.977 438.487 410.66 438.487 410.554 438.487 410.357 438.366 410.357 438.366 410.357 438.366 410.357 438.366C410.15 438.163 409.986 437.921 409.874 437.654 409.629 437.102 409.505 436.503 409.511 435.899L409.511 212.115C409.68 209.368 411.122 206.859 413.41 205.335L542.298 130.952C542.692 130.696 543.144 130.545 543.612 130.513M543.612 129C542.879 129.031 542.166 129.249 541.542 129.636L412.654 204.018C409.906 205.822 408.178 208.828 408 212.115L408 435.642C407.997 436.454 408.162 437.258 408.484 438.002 408.682 438.467 408.975 438.885 409.345 439.228 409.424 439.311 409.51 439.387 409.602 439.455L409.874 439.637 410.116 439.788 410.524 439.924C410.717 439.971 410.915 439.997 411.113 440L411.113 440C411.649 439.993 412.172 439.835 412.624 439.546L541.33 365.088C544.085 363.287 545.819 360.28 546 356.991L546 132.329C546 132.133 546 131.936 546 131.739 545.991 131.596 545.965 131.453 545.924 131.315 545.938 131.287 545.938 131.253 545.924 131.225 545.908 131.084 545.871 130.947 545.819 130.816 545.757 130.6 545.66 130.395 545.532 130.211 545.495 130.122 545.444 130.04 545.38 129.969 545.344 129.907 545.297 129.851 545.244 129.802 545.158 129.687 545.057 129.586 544.942 129.499L544.942 129.499C544.82 129.405 544.688 129.323 544.549 129.257 544.212 129.104 543.847 129.026 543.476 129.03Z" fill="#455A64" fill-rule="evenodd" fill-opacity="0.6"/><path d="M546 132.316 546 356.987C545.823 360.278 544.091 363.286 541.337 365.084L412.618 439.546C412.167 439.837 411.645 439.994 411.109 440 410.911 439.997 410.714 439.971 410.52 439.924L410.113 439.788 409.871 439.637 409.6 439.455C409.508 439.387 409.422 439.311 409.343 439.228 408.973 438.885 408.681 438.467 408.483 438.002 408.161 437.258 407.997 436.454 408 435.641L408 212.105C408.178 208.818 409.903 205.812 412.648 204.008L541.276 129.622C542.191 128.975 543.366 128.822 544.415 129.213 544.554 129.279 544.686 129.361 544.808 129.455L544.808 129.455C544.922 129.542 545.024 129.643 545.11 129.758 545.162 129.807 545.209 129.863 545.245 129.925 545.309 129.996 545.36 130.078 545.396 130.167 545.525 130.351 545.621 130.556 545.683 130.772 545.736 130.903 545.772 131.04 545.789 131.181 545.802 131.21 545.802 131.243 545.789 131.272 545.83 131.409 545.855 131.552 545.864 131.695 545.985 131.922 546 132.119 546 132.316Z" fill="#455A64" fill-rule="evenodd" fill-opacity="0.6"/><path d="M546 130.579C544.947 130.187 543.767 130.34 542.849 130.989L413.635 205.582C410.879 207.391 409.148 210.405 408.969 213.702L408.969 229 403 225.494 403 210.317C403.18 207.03 404.913 204.027 407.666 202.228L536.895 127.62C537.883 126.906 539.184 126.801 540.273 127.346 541.122 127.832 545 130.109 546 130.579Z" fill="#B9D0E9" fill-rule="evenodd"/><path d="M548 133.335C548 130.289 545.902 129.163 543.319 130.655L413.681 205.518C410.915 207.325 409.176 210.347 409 213.65L409 229 548 148.746Z" fill="#B9D0E9" fill-rule="evenodd"/><path d="M542.832 131.002 414.187 205.543C412.817 206.397 411.686 207.585 410.898 209L405 205.573C405.766 204.175 406.878 203 408.228 202.162L536.949 127.621C537.937 126.905 539.239 126.8 540.328 127.348 541.173 127.864 545.02 130.062 546 130.593 544.944 130.179 543.751 130.333 542.832 131.002Z" fill="#FFFFFF" fill-rule="evenodd"/><path d="M403 225.384 403 209.8C403.072 208.101 403.606 206.448 404.547 205L411 208.507C410.067 209.95 409.545 211.599 409.486 213.291L409.486 229Z" fill="#000000" fill-rule="evenodd" fill-opacity="0.14902"/><path d="M519.5 151.261C517.887 152.5 516.962 154.403 517.001 156.401 517.001 158.469 518.121 159.516 519.5 158.748 521.111 157.502 522.035 155.597 521.999 153.594 521.999 151.512 520.879 150.479 519.5 151.261Z" fill="#455A64" fill-rule="evenodd"/><path d="M529 145.292C527.063 146.691 525.955 148.834 526.001 151.086 526.001 153.41 527.345 154.588 529 153.709 530.947 152.317 532.058 150.169 531.998 147.914 531.998 145.59 530.671 144.412 529 145.292Z" fill="#455A64" fill-rule="evenodd"/><path d="M538.493 140.257C536.886 141.503 535.965 143.408 536.001 145.409 536.001 147.476 537.118 148.523 538.493 147.741 540.11 146.508 541.039 144.604 540.999 142.603 540.999 140.537 539.882 139.476 538.493 140.257Z" fill="#455A64" fill-rule="evenodd"/><path d="M411 441 410.395 440.667 408.881 439.863 408.881 439.863 408.052 439.409 408.052 439.409 406.761 438.711C406.347 438.469 405.964 438.272 405.677 438.12 405.391 437.969 405.168 437.848 405.072 437.802 404.745 437.643 404.458 437.422 404.227 437.15 403.958 436.873 403.736 436.555 403.574 436.211 403.19 435.439 402.994 434.594 403 433.74L403 225 409.279 228.501 409.279 437.075C409.304 437.885 409.477 438.684 409.789 439.439 409.998 439.904 410.307 440.323 410.697 440.667 410.767 440.761 410.861 440.839 410.968 440.894 410.973 440.93 410.984 440.967 411 441Z" fill="#37474F" fill-rule="evenodd" fill-opacity="0.901961"/><path d="M421.002 241.38C421.015 241.068 421.095 240.764 421.235 240.491L424.468 233.328C424.497 233.247 424.548 233.176 424.613 233.125L424.613 233.047C424.69 232.984 424.798 232.984 424.875 233.047 424.954 233.14 424.99 233.265 424.977 233.39L424.977 235.871C425.003 236.12 425.003 236.372 424.977 236.621 424.916 236.845 424.837 237.064 424.744 237.276L423.041 241.052 424.744 242.738C424.845 242.839 424.923 242.961 424.977 243.097 425.008 243.32 425.008 243.545 424.977 243.768L424.977 246.171C424.979 246.338 424.944 246.503 424.875 246.655 424.82 246.789 424.728 246.903 424.613 246.983L424.613 246.983C424.567 247.006 424.514 247.006 424.468 246.983L421.235 243.861C421.072 243.71 420.986 243.484 421.002 243.253Z" fill="#B9D0E9" fill-rule="evenodd"/><path d="M432.627 223.981C432.686 223.746 432.771 223.519 432.881 223.303 432.985 223.077 433.158 222.892 433.375 222.776L434.616 222.053C434.686 221.982 434.8 221.982 434.87 222.053 434.87 222.053 434.87 222.053 434.87 222.053 434.957 222.141 435 222.262 434.99 222.384 435.003 222.469 435.003 222.556 434.99 222.641L429.307 247.04C429.257 247.27 429.176 247.493 429.068 247.702 428.968 247.937 428.794 248.132 428.575 248.26L427.378 248.953C427.305 249.016 427.197 249.016 427.124 248.953 427.04 248.858 426.997 248.733 427.004 248.606 426.999 248.52 426.999 248.436 427.004 248.35Z" fill="#B9D0E9" fill-rule="evenodd"/><path d="M441.997 230.635C441.991 230.948 441.918 231.256 441.781 231.53L438.596 238.735C438.558 238.816 438.509 238.889 438.453 238.955L438.367 238.955C438.295 239.015 438.195 239.015 438.123 238.955 438.048 238.853 438.013 238.724 438.023 238.594L438.023 236.177C437.997 235.927 437.997 235.673 438.023 235.423 438.077 235.196 438.155 234.974 438.252 234.764L439.931 230.965 438.252 229.285C438.152 229.18 438.073 229.052 438.023 228.909 437.992 228.684 437.992 228.458 438.023 228.234L438.023 225.816C438.023 225.648 438.057 225.482 438.123 225.33 438.178 225.199 438.261 225.085 438.367 225L438.453 225C438.453 225 438.539 225 438.596 225L441.781 228.14C441.939 228.301 442.018 228.534 441.997 228.768Z" fill="#B9D0E9" fill-rule="evenodd"/><path d="M451.421 229.057C451.542 228.981 451.709 228.981 451.83 229.057 451.953 229.173 452.014 229.326 451.997 229.481L451.997 232.041C451.997 232.241 451.94 232.438 451.83 232.617 451.75 232.785 451.607 232.929 451.421 233.026L449.562 233.935C449.454 234.022 449.279 234.022 449.171 233.935 449.045 233.825 448.983 233.676 449.004 233.526L449.004 230.951C449.006 230.751 449.063 230.554 449.171 230.375 449.249 230.214 449.387 230.078 449.562 229.981Z" fill="#B9D0E9" fill-rule="evenodd"/><path d="M456.424 226.061C456.541 225.98 456.714 225.98 456.831 226.061 456.953 226.178 457.014 226.331 456.997 226.486L456.997 229.048C456.997 229.248 456.94 229.445 456.831 229.624 456.751 229.792 456.609 229.937 456.424 230.034L454.576 230.943C454.456 231.019 454.289 231.019 454.169 230.943 454.047 230.826 453.986 230.673 454.003 230.519L454.003 227.941C454.006 227.741 454.064 227.546 454.169 227.365 454.249 227.2 454.391 227.062 454.576 226.971Z" fill="#B9D0E9" fill-rule="evenodd"/><path d="M461.635 223.065C461.705 222.978 461.819 222.978 461.889 223.065 461.969 223.181 462.009 223.334 461.998 223.489L461.998 226.048C461.997 226.253 461.96 226.454 461.889 226.639 461.835 226.796 461.747 226.932 461.635 227.032L460.365 227.941C460.292 228.02 460.183 228.02 460.111 227.941 460.031 227.824 459.991 227.671 460.002 227.517L460.002 224.943C460.004 224.743 460.042 224.547 460.111 224.367 460.165 224.21 460.253 224.073 460.365 223.973Z" fill="#B9D0E9" fill-rule="evenodd"/><path d="M421.667 260.147 499.333 215.241C500.257 214.709 501 215.089 501 216.076 500.918 217.211 500.298 218.239 499.333 218.839L421.667 263.76C420.743 264.291 420 263.912 420 262.91 420.083 261.776 420.703 260.75 421.667 260.147Z" fill="#B9D0E9" fill-rule="evenodd"/><path d="M446.667 288.24 524.333 244.235C525.257 243.715 526 244.087 526 245.068 525.917 246.179 525.297 247.184 524.333 247.775L446.667 291.764C445.743 292.285 445 291.913 445 290.947 445.082 289.834 445.702 288.827 446.667 288.24Z" fill="#E0E0E0" fill-rule="evenodd"/><path d="M446.688 303.088 484.327 281.244C485.248 280.704 486 281.09 486 282.109 485.919 283.256 485.297 284.295 484.327 284.903L446.688 306.763C445.752 307.288 445 306.917 445 305.898 445.084 304.745 445.712 303.701 446.688 303.088Z" fill="#E0E0E0" fill-rule="evenodd"/><path d="M446.688 317.232 484.327 296.228C485.248 295.724 486 296.08 486 297.059 485.914 298.164 485.294 299.166 484.327 299.761L446.688 320.765C445.752 321.285 445 320.914 445 319.934 445.084 318.825 445.712 317.822 446.688 317.232Z" fill="#E0E0E0" fill-rule="evenodd"/><path d="M505.703 211.229 537.297 193.24C538.242 192.71 539 193.089 539 194.074 538.916 195.207 538.283 196.233 537.297 196.832L505.703 214.76C504.759 215.29 504 214.911 504 213.926 504.102 212.816 504.734 211.815 505.703 211.229Z" fill="#B9D0E9" fill-rule="evenodd"/><path d="M421.667 418.153 499.333 373.241C500.257 372.709 501 373.089 501 374.076 500.918 375.211 500.298 376.239 499.333 376.839L421.667 421.767C420.743 422.283 420 421.918 420 420.916 420.083 419.782 420.703 418.756 421.667 418.153Z" fill="#B9D0E9" fill-rule="evenodd"/><path d="M505.703 369.156 537.297 351.24C538.242 350.709 539 351.088 539 352.088 538.915 353.219 538.282 354.243 537.297 354.844L505.703 372.76C504.759 373.291 504 372.912 504 371.912 504.085 370.781 504.718 369.757 505.703 369.156Z" fill="#B9D0E9" fill-rule="evenodd"/><path d="M505.703 326.199 537.297 308.24C538.242 307.71 539 308.089 539 309.074 538.916 310.207 538.283 311.233 537.297 311.832L505.703 329.76C504.759 330.29 504 329.911 504 328.926 504.093 327.803 504.724 326.791 505.703 326.199Z" fill="#B9D0E9" fill-rule="evenodd"/><path d="M505.703 341.168 537.297 323.24C538.242 322.71 539 323.089 539 324.074 538.916 325.207 538.283 326.233 537.297 326.832L505.703 344.76C504.759 345.29 504 344.911 504 343.926 504.084 342.793 504.717 341.767 505.703 341.168Z" fill="#B9D0E9" fill-rule="evenodd"/><path d="M421.667 403.161 499.333 358.233C500.257 357.717 501 358.082 501 359.084 500.917 360.218 500.297 361.244 499.333 361.847L421.667 406.759C420.743 407.291 420 406.911 420 405.924 420.082 404.789 420.702 403.761 421.667 403.161Z" fill="#F5F5F5" fill-rule="evenodd"/><path d="M479.691 341.194 497.324 331.238C498.247 330.712 499 331.088 499 332.065 498.919 333.186 498.296 334.203 497.324 334.803L479.691 344.759C478.753 345.285 478 344.924 478 343.932 478.083 342.807 478.712 341.788 479.691 341.194Z" fill="#B9D0E9" fill-rule="evenodd"/><path d="M421.68 274.199 467.335 248.238C468.252 247.712 469 248.088 469 249.065 468.919 250.185 468.3 251.201 467.335 251.801L421.68 277.762C420.749 278.288 420 277.912 420 276.935 420.083 275.811 420.707 274.793 421.68 274.199Z" fill="#B9D0E9" fill-rule="evenodd"/><path d="M421.68 274.199 467.335 248.238C468.252 247.712 469 248.088 469 249.065 468.919 250.185 468.3 251.201 467.335 251.801L421.68 277.762C420.749 278.288 420 277.912 420 276.935 420.083 275.811 420.707 274.793 421.68 274.199Z" fill="#FFFFFF" fill-rule="evenodd" fill-opacity="0.6"/><path d="M421.695 288.189 437.32 279.24C438.245 278.709 439 279.088 439 280.091 438.914 281.222 438.291 282.247 437.32 282.856L421.695 291.76C420.755 292.291 420 291.912 420 290.909 420.1 289.791 420.727 288.782 421.695 288.189Z" fill="#B9D0E9" fill-rule="evenodd"/><path d="M421.695 288.189 437.32 279.24C438.245 278.709 439 279.088 439 280.091 438.914 281.222 438.291 282.247 437.32 282.856L421.695 291.76C420.755 292.291 420 291.912 420 290.909 420.1 289.791 420.727 288.782 421.695 288.189Z" fill="#FFFFFF" fill-rule="evenodd" fill-opacity="0.6"/><path d="M421.695 303.159 437.32 294.24C438.245 293.709 439 294.088 439 295.091 438.914 296.222 438.291 297.247 437.32 297.856L421.695 306.76C420.755 307.291 420 306.912 420 305.909 420.083 304.777 420.714 303.753 421.695 303.159Z" fill="#B9D0E9" fill-rule="evenodd"/><path d="M421.695 303.159 437.32 294.24C438.245 293.709 439 294.088 439 295.091 438.914 296.222 438.291 297.247 437.32 297.856L421.695 306.76C420.755 307.291 420 306.912 420 305.909 420.083 304.777 420.714 303.753 421.695 303.159Z" fill="#FFFFFF" fill-rule="evenodd" fill-opacity="0.6"/><path d="M421.695 317.186 437.32 308.244C438.245 307.712 439 308.077 439 309.08 438.918 310.213 438.294 311.241 437.32 311.848L421.695 320.759C420.755 321.291 420 320.911 420 319.923 420.092 318.796 420.721 317.78 421.695 317.186Z" fill="#B9D0E9" fill-rule="evenodd"/><path d="M421.695 317.186 437.32 308.244C438.245 307.712 439 308.077 439 309.08 438.918 310.213 438.294 311.241 437.32 311.848L421.695 320.759C420.755 321.291 420 320.911 420 319.923 420.092 318.796 420.721 317.78 421.695 317.186Z" fill="#FFFFFF" fill-rule="evenodd" fill-opacity="0.6"/><path d="M421.695 332.154 437.32 323.241C438.245 322.709 439 323.089 439 324.078 438.918 325.211 438.294 326.239 437.32 326.846L421.695 335.759C420.755 336.291 420 335.911 420 334.922 420.083 333.785 420.714 332.755 421.695 332.154Z" fill="#B9D0E9" fill-rule="evenodd"/><path d="M421.695 332.154 437.32 323.241C438.245 322.709 439 323.089 439 324.078 438.918 325.211 438.294 326.239 437.32 326.846L421.695 335.759C420.755 336.291 420 335.911 420 334.922 420.083 333.785 420.714 332.755 421.695 332.154Z" fill="#FFFFFF" fill-rule="evenodd" fill-opacity="0.6"/><path d="M473.65 244.27 493.335 233.234C494.243 232.717 495 233.086 495 234.045 494.914 235.147 494.296 236.143 493.335 236.73L473.65 247.766C472.742 248.283 472 247.914 472 246.955 472.08 245.856 472.694 244.858 473.65 244.27Z" fill="#B9D0E9" fill-rule="evenodd"/><path d="M473.65 244.27 493.335 233.234C494.243 232.717 495 233.086 495 234.045 494.914 235.147 494.296 236.143 493.335 236.73L473.65 247.766C472.742 248.283 472 247.914 472 246.955 472.08 245.856 472.694 244.858 473.65 244.27Z" fill="#FFFFFF" fill-rule="evenodd" fill-opacity="0.6"/><path d="M465.649 321.179 510.367 295.238C511.266 294.711 512 295.088 512 296.081 511.916 297.202 511.311 298.218 510.367 298.821L465.649 324.762C464.749 325.289 464 324.913 464 323.919 464.082 322.794 464.695 321.776 465.649 321.179Z" fill="#F5F5F5" fill-rule="evenodd"/><path d="M491.665 320.199 537.32 294.238C538.252 293.712 539 294.088 539 295.065 538.918 296.189 538.293 297.207 537.32 297.801L491.665 323.762C490.748 324.288 490 323.912 490 322.935 490.081 321.815 490.7 320.799 491.665 320.199Z" fill="#F5F5F5" fill-rule="evenodd"/><path d="M517.664 291.264 537.336 280.233C538.259 279.717 539 280.086 539 281.059 538.917 282.161 538.298 283.157 537.336 283.743L517.664 294.773C516.741 295.275 516 294.921 516 293.948 516.083 292.846 516.702 291.849 517.664 291.264Z" fill="#F5F5F5" fill-rule="evenodd"/><path d="M446.68 274.196 492.335 248.238C493.252 247.712 494 248.087 494 249.079 493.915 250.198 493.297 251.212 492.335 251.815L446.68 277.759C445.749 278.285 445 277.924 445 276.932 445.084 275.809 445.709 274.793 446.68 274.196Z" fill="#B9D0E9" fill-rule="evenodd"/><path d="M446.68 274.196 492.335 248.238C493.252 247.712 494 248.087 494 249.079 493.915 250.198 493.297 251.212 492.335 251.815L446.68 277.759C445.749 278.285 445 277.924 445 276.932 445.084 275.809 445.709 274.793 446.68 274.196Z" fill="#FFFFFF" fill-rule="evenodd" fill-opacity="0.6"/><path d="M498.65 244.27 518.334 233.234C519.258 232.718 520 233.086 520 234.045 519.918 235.149 519.299 236.148 518.334 236.73L498.65 247.766C497.742 248.283 497 247.914 497 246.955 497.08 245.856 497.694 244.858 498.65 244.27Z" fill="#B9D0E9" fill-rule="evenodd"/><path d="M498.65 244.27 518.334 233.234C519.258 232.718 520 233.086 520 234.045 519.918 235.149 519.299 236.148 518.334 236.73L498.65 247.766C497.742 248.283 497 247.914 497 246.955 497.08 245.856 497.694 244.858 498.65 244.27Z" fill="#FFFFFF" fill-rule="evenodd" fill-opacity="0.6"/></g></svg>