<svg width="756" height="756" xmlns="http://www.w3.org/2000/svg" xmlns:xlink="http://www.w3.org/1999/xlink" overflow="hidden"><defs><clipPath id="clip0"><rect x="0" y="0" width="756" height="756"/></clipPath></defs><g clip-path="url(#clip0)"><rect x="0" y="0" width="756" height="756" fill="#333F50" fill-opacity="0"/><path d="M444.884 92.0449 142.212 267.466C140.83 268.338 139.698 269.556 138.93 271L133 267.573C133.772 266.173 134.886 264.994 136.237 264.145L438.924 88.6326C439.91 87.9083 441.219 87.7972 442.312 88.3444 443.144 88.8601 447.017 91.0742 448 91.605 446.955 91.2133 445.781 91.3788 444.884 92.0449Z" fill="#FFFFFF" fill-rule="evenodd"/><path d="M448 93.2748 448 318.13C447.825 321.416 446.094 324.421 443.341 326.219L140.629 501.529C140.174 501.812 139.652 501.968 139.117 501.983 138.921 502.006 138.723 502.006 138.526 501.983 138.39 501.954 138.258 501.907 138.133 501.847L137.876 501.695 137.604 501.513C137.511 501.445 137.425 501.37 137.346 501.286 136.981 500.938 136.688 500.521 136.484 500.059 136.161 499.314 135.996 498.51 136 497.697L136 273.886C136.184 270.595 137.919 267.587 140.675 265.783L443.341 90.6089C444.257 89.9717 445.427 89.8245 446.472 90.215 446.614 90.2791 446.75 90.355 446.881 90.4422L446.881 90.4422C447 90.5289 447.103 90.6368 447.183 90.7604 447.236 90.8089 447.283 90.865 447.319 90.927 447.383 90.9981 447.434 91.0803 447.471 91.1694 447.592 91.3507 447.684 91.5501 447.743 91.76 447.796 91.8964 447.832 92.0389 447.849 92.1842 447.862 92.2129 447.862 92.2463 447.849 92.2751 447.89 92.413 447.915 92.5554 447.924 92.6991 447.985 92.8658 448 93.0627 448 93.2748Z" fill="#455A64" fill-rule="evenodd" fill-opacity="0.6"/><path d="M446.414 92.5149C446.569 92.5156 446.724 92.5465 446.867 92.6058L446.867 92.6058 446.867 92.6058 446.958 92.6058 447.079 92.7723 447.079 92.7723 447.2 92.9389C447.2 92.9389 447.2 92.9389 447.2 93.0147L447.2 93.0147 447.336 93.454 447.336 93.454 447.336 93.454 447.336 93.454C447.335 93.4893 447.335 93.5247 447.336 93.5601 447.336 93.7115 447.336 93.863 447.336 94.0296L447.336 319.206C447.167 321.956 445.724 324.467 443.434 325.993L140.918 501.317C140.683 501.468 140.411 501.553 140.131 501.559L140.131 501.559 139.814 501.559 139.708 501.559 139.511 501.423 139.511 501.423 139.511 501.423 139.511 501.347C139.294 501.15 139.124 500.906 139.012 500.635 138.767 500.082 138.643 499.482 138.649 498.878L138.649 274.959C138.816 272.205 140.268 269.692 142.567 268.172L445.082 92.9389C445.486 92.6923 445.941 92.5467 446.414 92.5149M446.414 91C445.68 91.0226 444.966 91.2366 444.341 91.621L141.674 266.87C138.923 268.671 137.189 271.673 137 274.959L137 498.696C136.997 499.509 137.161 500.314 137.484 501.059 137.688 501.521 137.981 501.938 138.346 502.286 138.425 502.37 138.511 502.445 138.603 502.513L138.876 502.695 139.133 502.847C139.258 502.907 139.39 502.954 139.526 502.983 139.722 503.006 139.92 503.006 140.116 502.983L140.192 502.983C140.727 502.968 141.249 502.812 141.704 502.529L444.341 327.295C447.094 325.497 448.825 322.492 449 319.206L449 94.3326C449 94.1205 449 93.9236 449 93.7418 448.991 93.5981 448.965 93.4557 448.924 93.3177 448.938 93.2888 448.938 93.2556 448.924 93.2268 448.908 93.0815 448.871 92.9389 448.819 92.8026 448.76 92.5927 448.667 92.3933 448.546 92.2119 448.51 92.1228 448.459 92.0408 448.395 91.9695 448.359 91.9075 448.312 91.8513 448.259 91.8028 448.179 91.6792 448.076 91.5714 447.956 91.4848L447.956 91.4848C447.826 91.3975 447.69 91.3216 447.548 91.2576 447.217 91.1041 446.855 91.0265 446.489 91.0303Z" fill="#455A64" fill-rule="evenodd"/><path d="M449 95.2668 449 319.577C448.825 322.854 447.094 325.852 444.341 327.645L141.629 502.53C141.174 502.812 140.652 502.968 140.117 502.983 139.921 503.006 139.723 503.006 139.527 502.983 139.39 502.954 139.258 502.908 139.133 502.847L138.876 502.696 138.604 502.515C138.511 502.447 138.425 502.371 138.346 502.288 137.981 501.941 137.688 501.525 137.484 501.064 137.161 500.321 136.997 499.518 137 498.707L137 275.44C137.184 272.156 138.919 269.156 141.675 267.356L444.341 92.6074C445.257 91.9718 446.427 91.825 447.472 92.2145 447.614 92.2784 447.75 92.3542 447.881 92.4412L447.881 92.4412C448 92.5277 448.103 92.6352 448.183 92.7585 448.236 92.8069 448.283 92.863 448.319 92.9248 448.383 92.9957 448.434 93.0777 448.471 93.1665 448.592 93.3475 448.684 93.5463 448.743 93.7558 448.796 93.8918 448.832 94.034 448.849 94.1789 448.862 94.2076 448.862 94.2408 448.849 94.2696 448.89 94.4072 448.915 94.5493 448.924 94.6926 448.985 94.8588 449 95.0553 449 95.2668Z" fill="#455A64" fill-rule="evenodd" fill-opacity="0.6"/><path d="M448 91.5889C446.956 91.1995 445.789 91.3462 444.873 91.9816L142.619 266.711C139.872 268.507 138.14 271.5 137.952 274.776L137.952 290 132 286.511 132 271.408C132.18 268.137 133.908 265.148 136.653 263.358L438.921 88.6287C439.906 87.9022 441.217 87.7968 442.305 88.3568 443.136 88.8553 447.003 91.0755 448 91.5889Z" fill="#B9D0E9" fill-rule="evenodd"/><path d="M450 95.2686C450 92.348 447.897 91.1588 445.341 92.634L142.659 266.801C139.911 268.585 138.18 271.564 138 274.825L138 290 450 110.504Z" fill="#B9D0E9" fill-rule="evenodd"/><path d="M444.884 92.0449 142.212 267.466C140.83 268.338 139.698 269.556 138.93 271L133 267.573C133.772 266.173 134.886 264.994 136.237 264.145L438.924 88.6326C439.91 87.9083 441.219 87.7972 442.312 88.3444 443.144 88.8601 447.017 91.0742 448 91.605 446.955 91.2133 445.781 91.3788 444.884 92.0449Z" fill="#FFFFFF" fill-rule="evenodd"/><path d="M132 286.535 132 271.6C132.062 269.972 132.527 268.387 133.351 267L139 270.36C138.174 271.74 137.713 273.322 137.663 274.945L137.663 290Z" fill="#000000" fill-rule="evenodd" fill-opacity="0.14902"/><path d="M421.5 112.283C419.889 113.685 418.965 115.827 419.001 118.078 419.001 120.403 420.121 121.581 421.5 120.717 423.111 119.315 424.035 117.173 423.999 114.922 423.927 112.597 422.807 111.419 421.5 112.283Z" fill="#455A64" fill-rule="evenodd"/><path d="M431.472 106.31C429.877 107.702 428.963 109.837 429.001 112.082 429.001 114.404 430.109 115.58 431.472 114.717 433.087 113.33 434.022 111.189 434 108.93 434 106.608 432.835 105.385 431.472 106.31Z" fill="#455A64" fill-rule="evenodd"/><path d="M440.5 101.324C438.883 102.715 437.958 104.852 438.001 107.097 438.001 109.412 439.121 110.586 440.5 109.71 442.117 108.318 443.042 106.181 442.999 103.936 442.999 101.558 441.879 100.385 440.5 101.324Z" fill="#455A64" fill-rule="evenodd"/><path d="M140 502 139.4 501.668C138.959 501.412 138.438 501.14 137.823 500.869L137.823 500.869 137.002 500.431 137.002 500.431 135.724 499.737C135.314 499.496 134.951 499.3 134.651 499.149 134.351 498.998 134.146 498.877 134.051 498.832 133.728 498.674 133.444 498.453 133.215 498.183 132.948 497.907 132.73 497.591 132.568 497.248 132.188 496.48 131.994 495.638 132 494.789L132 287 138.217 290.485 138.217 498.093C138.242 498.9 138.413 499.695 138.722 500.446 138.934 500.906 139.24 501.321 139.621 501.668 139.691 501.762 139.783 501.84 139.89 501.895Z" fill="#37474F" fill-rule="evenodd" fill-opacity="0.901961"/><path d="M239 368C239 368 227.924 361.009 226.494 360.965L195 360 207.521 366.501 207.521 367.035Z" fill="#263238" fill-rule="evenodd"/><path d="M185 389.502 185 369.811 239 303 239 329.052 207.51 366.418 207.51 366.964 239 367.948 239 394Z" fill="#FAFAFA" fill-rule="evenodd"/><path d="M239 303.18 226.588 296 173 362.82 185.427 370 239 303.18Z" fill="#455A64" fill-rule="evenodd"/><path d="M173 363 173 382.77 185 390 185 370.23 173 363Z" fill="#37474F" fill-rule="evenodd"/><path d="M271.754 381.351 255 391 296.825 238.3 313 229Z" fill="#FAFAFA" fill-rule="evenodd"/><path d="M313 229.413 300.339 222 284 231.587 296.646 239 313 229.413Z" fill="#455A64" fill-rule="evenodd"/><path d="M283.79 232 296 239.151 255.225 391 243 383.849 283.79 232Z" fill="#37474F" fill-rule="evenodd"/><path d="M316 309.804 328.511 317 360 279.196 347.489 272 316 309.804Z" fill="#263238" fill-rule="evenodd"/><path d="M359.49 279.206 328 278.026 328 252 382 256.751 382 276.422 328 343 328 316.883 359.49 279.751Z" fill="#FAFAFA" fill-rule="evenodd"/><path d="M316 245 328.412 252.218 382 257 369.573 249.782 316 245Z" fill="#455A64" fill-rule="evenodd"/><path d="M328 252.13 328 278 316 270.871 316 245" fill="#37474F" fill-rule="evenodd"/><path d="M316 309 328 316.345 328 343 316 335.655 316 309Z" fill="#37474F" fill-rule="evenodd"/></g></svg>